SplineFontDB: 1.0
FontName: WineTahoma
FullName: Tahoma
FamilyName: Tahoma
Weight: Regular
Copyright: Copyright (c) 2004 Larry Snyder, Based on Bitstream Vera Sans Copyright (c) 2003 by Bitstream, Inc. Font renamed in accordance with former's license. Please do not contact Bitstream Inc. for any reason regaurding this font.
Version: 000.001
FONDName: WineTahoma
DefaultBaseFilename: tahoma
ItalicAngle: 0
UnderlinePosition: -170
UnderlineWidth: 130
Ascent: 1638
Descent: 410
XUID: [1021 135 1692684408 1110792]
FSType: 0
OS2Version: 2
OS2_WeightWidthSlopeOnly: 0
OS2_UseTypoMetrics: 1
CreationTime: 1169210120
ModificationTime: 1204631878
PfmFamily: 33
TTFWeight: 400
TTFWidth: 5
LineGap: 0
VLineGap: 0
Panose: 2 11 6 4 3 5 4 4 2 4
OS2TypoAscent: 1566
OS2TypoAOffset: 0
OS2TypoDescent: -423
OS2TypoDOffset: 0
OS2TypoLinegap: 59
OS2WinAscent: 2049
OS2WinAOffset: 0
OS2WinDescent: 423
OS2WinDOffset: 0
HheadAscent: 2049
HheadAOffset: 0
HheadDescent: -423
HheadDOffset: 0
OS2SubXSize: 1434
OS2SubYSize: 1331
OS2SubXOff: 0
OS2SubYOff: 293
OS2SupXSize: 1434
OS2SupYSize: 1331
OS2SupXOff: 0
OS2SupYOff: 928
OS2StrikeYSize: 130
OS2StrikeYPos: 689
OS2FamilyClass: 2048
OS2Vendor: 'Wine'
ScriptLang: 2
 1 latn 1 dflt
 1 cyrl 1 dflt
TableOrder: GPOS 1
	'kern'
TtfTable: cvt  4
!(6u&
EndTtf
TtfTable: VDMX 1504
!!!!"!!*'#!<E0/!;Hj"!!iQ1s8E!)!"&])!"&]5s8E!+!"8i+!"8i:s8;p,!"Ju,!"Ju>s82j-
!"f2.!"],Bs82j/!##>0!"o8Fs82j1!#>P3!#,DKs82j3!#P\5!#>PNs82j5!#Yb5!#P\Ss7u^5
!#kn6!#bhVs7u^7!$2+9!#tt[s7u^9!$;1:!$2+_s7u^;!$VC=!$D7bs7lX<!$_I=!$VCgs7lX>
!%%[@!$hOks7lX@!%7gA!%%[os7cRA!%@mB!%7gss7ZLB!%\*D!%It"s7ZLD!%n6F!%\+&s7QFE
!&"<F!%n7*s7QFG!&=NI!&+C.s7QFI!&OZK!&=O2s7QFK!&jlN!&O[6s7H@L!&srN!&ag:s7H@N
!'(#O!&ss?s7?:O!'L;R!'1*Cs7?:Q!'UAS!'C6Fs7?:S!'gMU!'UBJs764T!($YU!'gNOs7-.U
!(6eW!($ZRs7-.W!(R"Z!(6fWs7-.Y!([([!(HrZs7-.[!)!:^!([)_s7$(\!)3F^!(m5cs6p"]
!)<L_!)*Afs6p"_!)NXa!)<Mks6p"a!)ijd!)NYos6p"c!*'!e!)`ers6fqd!*9-g!)rr"s6fqf
!*B3h!*0)&s6]kg!*]Ej!*B5*s6Teh!*oQk!*TA.s6Tej!+,]m!*fM1s6K_k!+5cm!+#Y7s6K_m

StartChar: .notdef
Encoding: 0 0 0
Width: 2048
Flags: W
HStem: 0 128<384 1664> 1408 128<384 1664>
VStem: 256 128<128 1408> 1664 128<128 1408>
Fore
1792 0 m 1
 256 0 l 1
 256 1536 l 1
 1792 1536 l 1
 1792 0 l 1
384 1408 m 1
 384 128 l 1
 1664 128 l 5
 1664 1408 l 1
 384 1408 l 1
EndSplineSet
EndChar
StartChar: exclam
Encoding: 33 33 2
Width: 680
Flags: W
HStem: 0 254<227 430>
VStem: 227 203<0 254 733.552 1493>
Fore
227 0 m 1
 227 254 l 1
 430 254 l 1
 430 0 l 1
 227 0 l 1
227 838 m 1
 227 1493 l 1
 430 1493 l 1
 430 838 l 1
 410 481 l 1
 248 481 l 1
 227 838 l 1
EndSplineSet
KernsSLIFO: 243 -94 0 0 240 -94 0 0
EndChar
StartChar: quotedbl
Encoding: 34 34 3
Width: 821
Flags: W
VStem: 115 170<938 1493> 493 170<938 1493>
Fore
115 1493 m 1
 285 1493 l 1
 285 938 l 1
 115 938 l 1
 115 1493 l 1
493 1493 m 1
 663 1493 l 1
 663 938 l 1
 493 938 l 1
 493 1493 l 1
EndSplineSet
EndChar
StartChar: numbersign
Encoding: 35 35 4
Width: 1491
Flags: W
HStem: 0 21G<294 415 708 822> 414 142<561 811> 421 135<141 399 962 1230> 934 133<258 526 690 936 1089 1347>
Fore
834 556 m 1xb0
 936 934 l 1
 654 934 l 1
 561 556 l 1xd0
 834 556 l 1xb0
666 1489 m 1
 795 1489 l 1
 690 1067 l 1
 960 1067 l 1
 1065 1489 l 1
 1199 1486 l 1
 1089 1067 l 1
 1347 1067 l 1
 1347 932 l 1
 1056 931 l 1
 962 556 l 1
 1230 556 l 1
 1230 421 l 1
 927 421 l 1xb0
 822 0 l 1
 708 0 l 1
 811 414 l 1
 518 414 l 1xd0
 415 0 l 1
 294 0 l 1
 399 421 l 1
 141 421 l 1
 141 556 l 1
 434 556 l 1xb0
 526 932 l 1
 258 932 l 1
 258 1067 l 1
 561 1067 l 1
 666 1489 l 1
EndSplineSet
EndChar
StartChar: dollar
Encoding: 36 36 5
Width: 1118
Flags: W
HStem: 0 142<342.4 528> 1179 145<628 787.467>
VStem: 106 184<831.733 1129> 528 100<-301 0 145 578 770 1179 1324 1556> 884 185<203.4 509.333>
Fore
528 598 m 1
 294.905 636.448 106 718.106 106 956 c 0
 106 1180 246.667 1301.67 528 1321 c 1
 528 1556 l 1
 628 1556 l 1
 628 1324 l 1
 752 1318.67 868.667 1298 978 1262 c 1
 978 1087 l 1
 867.333 1143 750.667 1173.67 628 1179 c 1
 628 752 l 1
 922 706.667 1069 583 1069 381 c 0
 1069 148.333 922 21.3333 628 0 c 1
 628 -301 l 1
 528 -301 l 1
 527 0 l 1
 385 2.66667 254.333 31 135 85 c 1
 141 279 l 1
 253 189 382 143.333 528 142 c 1
 528 598 l 1
528 770 m 1
 528 1180 l 1
 369.333 1162 290 1093 290 973 c 0
 290 864.333 369.333 796.667 528 770 c 1
628 578 m 1
 628 145 l 1
 798.667 167.667 884 240 884 362 c 0
 884 475.333 798.667 547.333 628 578 c 1
EndSplineSet
EndChar
StartChar: percent
Encoding: 37 37 6
Width: 2001
Flags: W
HStem: 7 127<1362.93 1698.5> 672 127<253.6 616.68> 693 127<1361.33 1699.39> 1358 127<277.138 615.068>
VStem: 102 159<920.436 1277.77> 632 160<878.793 1274.08> 1186 160<218.01 613.203> 1716 160<216.055 610.319>
Fore
102 1079 m 0xdf
 102 1318.09 224.814 1485 446 1485 c 0
 670.975 1485 792 1318.85 792 1079 c 0
 792 835.009 672.597 672 446 672 c 0
 223.593 672 102 837.032 102 1079 c 0xdf
530 0 m 1
 1310 1489 l 1
 1470 1489 l 1
 690 0 l 1
 530 0 l 1
632 1079 m 0
 632 1229.06 576.052 1358 446 1358 c 0
 316.106 1358 261 1231.9 261 1079 c 0
 261 957.027 298 799 446 799 c 0
 577.292 799 632 924.995 632 1079 c 0
1186 413 m 0
 1186 653.491 1308.41 820 1532 820 c 0xbf
 1754.41 820 1876 654.968 1876 413 c 0
 1876 173.915 1753.19 7 1532 7 c 0
 1307.02 7 1186 173.155 1186 413 c 0
1716 413 m 0
 1716 564.784 1660.76 693 1532 693 c 0
 1400.71 693 1346 567.002 1346 413 c 0
 1346 263.008 1401.94 134 1532 134 c 0
 1660.08 134 1716 261.504 1716 413 c 0
EndSplineSet
EndChar
StartChar: ampersand
Encoding: 38 38 7
Width: 1380
Flags: W
HStem: -34 162<458.11 705.8> 1357 158<399.68 690>
VStem: 68 193<318.1 601.067> 147 190<1076.53 1317.05> 1126 186<601.589 805.95>
Fore
573 1357 m 0xd8
 439.677 1357 337 1280.35 337 1158 c 0xd8
 337 1095.33 387 1012.67 487 910 c 2
 995 390 l 1
 1074.33 511.333 1118 646.667 1126 796 c 1
 1312 796 l 1
 1296 619.333 1226.33 447.333 1103 280 c 1
 1382 -5 l 1
 1130 -5 l 1
 987 142 l 1
 849.667 24.6667 695.333 -34 524 -34 c 0
 429 -45 331.206 -7.75459 230 77 c 0
 122.219 167.261 68 288 68 440 c 0xe8
 68 608.667 140.667 752.667 286 872 c 1
 193.333 980.667 147 1075.33 147 1156 c 0
 147 1380.76 311.121 1515 553 1515 c 0
 662 1515 773 1491 886 1443 c 1
 886 1261 l 1
 767.333 1325 663 1357 573 1357 c 0xd8
876 255 m 1
 437 782 l 1
 319.667 676.667 261 566.667 261 452 c 0xe8
 261 349 298 266 372 203 c 0
 442 141.667 498.667 116.667 542 128 c 1
 668 128 779.333 170.333 876 255 c 1
EndSplineSet
EndChar
StartChar: quotesingle
Encoding: 39 39 8
Width: 432
Flags: W
VStem: 104 170<938 1493>
Fore
104 1493 m 1
 274 1493 l 1
 274 938 l 1
 104 938 l 1
 104 1493 l 1
EndSplineSet
KernsSLIFO: 131 -94 0 0 34 -94 0 0
EndChar
StartChar: parenleft
Encoding: 40 40 9
Width: 784
Flags: W
VStem: 109 195<428.274 1014.67>
Fore
449 1564 m 1
 609 1564 l 1
 405.667 1244.67 304 933 304 629 c 0
 319.333 243.667 428.667 -92.6667 632 -380 c 1
 472 -380 l 1
 244.667 -84 123.667 252.333 109 629 c 0
 109 925.667 222.333 1237.33 449 1564 c 1
EndSplineSet
KernsSLIFO: 75 49 0 0 53 20 0 0
EndChar
StartChar: parenright
Encoding: 41 41 10
Width: 784
Flags: W
VStem: 395 195<397.353 1003.2>
Fore
94 1556 m 1
 254 1556 l 1
 478 1226.67 590 915 590 621 c 0
 576.667 247.667 458 -87 234 -383 c 1
 74 -383 l 1
 275.333 -95.6667 382.333 239 395 621 c 0
 395 923.667 294.667 1235.33 94 1556 c 1
EndSplineSet
EndChar
StartChar: asterisk
Encoding: 42 42 11
Width: 1118
Flags: W
VStem: 507 114<586 963 1143 1520>
Fore
957 1346 m 1
 1015 1247 l 1
 656 1053 l 1
 1015 858 l 1
 957 760 l 1
 621 963 l 1
 621 586 l 1
 507 586 l 1
 507 963 l 1
 171 760 l 1
 113 858 l 1
 472 1053 l 1
 113 1247 l 1
 171 1346 l 1
 507 1143 l 1
 507 1520 l 1
 621 1520 l 1
 621 1143 l 1
 957 1346 l 1
EndSplineSet
EndChar
StartChar: plus
Encoding: 43 43 12
Width: 1491
Flags: W
HStem: 572 155<158 662 830 1334>
VStem: 662 168<67 572 727 1237>
Fore
662 1237 m 1
 830 1237 l 1
 830 727 l 1
 1334 732 l 1
 1334 572 l 1
 830 572 l 1
 829 67 l 1
 662 67 l 1
 662 572 l 1
 158 572 l 1
 158 732 l 1
 662 727 l 1
 662 1237 l 1
EndSplineSet
EndChar
StartChar: comma
Encoding: 44 44 13
Width: 621
Flags: W
VStem: 156 211<77 249>
Fore
156 77 m 1
 156 249 l 1
 367 249 l 1
 367 77 l 1
 203 -243 l 1
 74 -243 l 1
 156 77 l 1
EndSplineSet
KernsSLIFO: 243 -201 0 0 240 -201 0 0 94 -90 0 0 62 -90 0 0 24 -49 0 0 10 -90 0 0
EndChar
StartChar: hyphen
Encoding: 45 45 14
Width: 743
Flags: W
HStem: 566 164<90 629>
Fore
90 566 m 1
 90 730 l 1
 629 730 l 1
 629 566 l 1
 90 566 l 1
EndSplineSet
KernsSLIFO: 163 -18 0 0 131 -47 0 0 91 -39 0 0 90 -39 0 0 89 -47 0 0 88 -18 0 0 87 -39 0 0 66 -18 0 0 59 -29 0 0 58 -131 0 0 57 -76 0 0 56 -47 0 0 55 -47 0 0 53 -143 0 0 52 -18 0 0 43 -94 0 0 42 -29 0 0 34 -47 0 0
EndChar
StartChar: period
Encoding: 46 46 15
Width: 621
Flags: W
HStem: 0 254<190 401>
VStem: 190 211<0 254>
Fore
190 0 m 1
 190 254 l 1
 401 254 l 1
 401 0 l 1
 190 0 l 1
EndSplineSet
KernsSLIFO: 243 -201 0 0 240 -201 0 0 238 -115 0 0 237 -115 0 0 94 -100 0 0 62 -100 0 0 24 -49 0 0 14 -162 0 0 13 -133 0 0 10 -100 0 0
EndChar
StartChar: slash
Encoding: 47 47 16
Width: 782
Flags: W
VStem: -25 690<-191 1492>
Fore
-25 -191 m 1
 495 1492 l 1
 665 1492 l 1
 145 -191 l 1
 -25 -191 l 1
EndSplineSet
EndChar
StartChar: zero
Encoding: 48 48 17
Width: 1118
Flags: W
HStem: -31 165<275.6 842.4> 1354 162<275.6 842.4>
VStem: 83 203<238.6 1239.6> 832 203<245.8 1241.6>
Fore
567 1516 m 8
 919 1516 1035 1303 1035 745 c 0
 1035 147 859.5 -31 559 -31 c 0
 158.001 -31 83 355 83 743 c 0
 83 1323 281 1516 567 1516 c 8
832 745 m 0
 832 1127 777 1354 559 1354 c 0
 341 1354 286 1125 286 743 c 0
 286 330 341 134 559 134 c 0
 777 134 832 361 832 745 c 0
EndSplineSet
EndChar
StartChar: one
Encoding: 49 49 18
Width: 1118
Flags: W
HStem: 0 169<254 501 701 990>
VStem: 501 200<169 1308>
Fore
254 0 m 1
 254 169 l 1
 501 169 l 1
 501 1308 l 1
 225 1236 l 1
 225 1420 l 1
 499 1492 l 1
 701 1492 l 1
 701 169 l 1
 990 170 l 1
 990 0 l 1
 254 0 l 1
EndSplineSet
EndChar
StartChar: two
Encoding: 50 50 19
Width: 1118
Flags: W
HStem: 0 170<352 1057> 1350 170<388.467 776.255>
VStem: 846 203<954.9 1295.14>
Fore
541 1520 m 0
 839.393 1520 1049 1368.42 1049 1094 c 0
 1049 976.667 995.667 853.667 889 725 c 0
 825.667 649 738.333 555.333 627 444 c 2
 352 170 l 1
 1057 170 l 1
 1057 0 l 1
 109 0 l 1
 109 170 l 1
 672 748 l 2
 788 873 846 984 846 1081 c 0
 846 1245.72 722.888 1350 545 1350 c 0
 419.667 1350 277.667 1305.67 119 1217 c 1
 119 1421 l 1
 283 1487 423.667 1520 541 1520 c 0
EndSplineSet
EndChar
StartChar: three
Encoding: 51 51 20
Width: 1118
Flags: W
HStem: -21 170<284.6 749.133> 723 166<277 721.616> 1358 170<315.6 724>
VStem: 803 201<188.067 686.806 906.8 1313.27>
Fore
469 1528 m 0
 754.012 1528 1004 1383.96 1004 1128 c 0
 1004 955.333 918 858 736 812 c 1
 917.931 771.85 1002 648.589 1002 442 c 0
 1002 71.6 689.761 -21 418 -21 c 0
 294 -21 186.667 1 96 45 c 1
 96 240 l 1
 208.667 174 314 143.667 412 149 c 0
 671.333 149 801 246.667 801 442 c 0
 801 630.312 659.166 723 451 723 c 2
 277 723 l 1
 277 889 l 1
 459 889 l 2
 663.667 889 803 953 803 1107 c 0
 803 1265.67 661 1358 451 1358 c 0
 341 1358 237.667 1330.67 141 1276 c 1
 141 1456 l 1
 241.667 1504 351 1528 469 1528 c 0
EndSplineSet
EndChar
StartChar: four
Encoding: 52 52 21
Width: 1118
Flags: HW
HStem: 0 21G<673 874> 524 168<280 673 874 1087>
VStem: 675 199<0 524 692 1185>
Fore
40 690 m 1
 670 1493 l 1
 874 1493 l 1
 874 692 l 1
 1087 692 l 1
 1087 524 l 1
 874 524 l 1
 874 0 l 1
 673 0 l 1
 673 524 l 1
 41 524 l 1
 40 690 l 1
675 692 m 1
 675 1185 l 1
 286.644 690 l 1
 675 692 l 1
EndSplineSet
KernsSLIFO: 15 -20 0 0 13 -20 0 0
EndChar
StartChar: five
Encoding: 53 53 22
Width: 1118
Flags: W
HStem: 1312 177<379 1003>
VStem: 186 193<910 1312> 806.4 208.6<-65.9878 678.108>
Fore
186 720 m 1
 181.73 989.082 190.236 1219.92 186 1489 c 1
 1003 1489 l 1
 1003 1312 l 1
 379 1312 l 1
 379 910 l 1
 792.346 931.333 1039.35 851.211 1015 432 c 0
 990.238 39.6282 750.856 -48.8157 481.5 -26.75 c 0
 409.394 -20.843 296.993 -6.22694 125 52 c 1
 125 263 l 1
 434.389 101.771 778.411 44.1462 806 412 c 0
 820.715 616.187 735.769 737.329 555 761 c 0
 483.5 770.363 380.644 773.758 186 720 c 1
EndSplineSet
EndChar
StartChar: six
Encoding: 54 54 23
Width: 1118
Flags: W
HStem: 730.692 181.308<439.812 686.726>
VStem: 850 203<386.437 601>
Fore
924 1495 m 1
 924 1305 l 1
 582.521 1429.54 341.106 1247.05 296.5 910.5 c 0
 292.833 882.833 289 847.667 285 805 c 1
 407.258 885.609 468.216 904.139 594 912 c 0
 838.18 924.989 1044.68 768.09 1053 499 c 0
 1067.29 56.1555 704.287 -31 592 -31 c 0
 302.144 -38.4322 115.914 170.353 95 499 c 0
 67.6667 916.333 149.667 1208.67 341 1376 c 0
 491.667 1506.67 686 1546.33 924 1495 c 1
349 271 m 0
 434.209 128.152 667.922 69.4613 774 221 c 0
 792.667 247.667 808 278.167 820 312.5 c 0
 832 346.833 840.167 379.5 844.5 410.5 c 0
 848.833 441.5 850.667 470.333 850 497 c 0
 847.333 577 821.833 637.333 773.5 678 c 0
 725.167 718.667 664.667 736 592 730 c 0
 416 715.333 316.333 637.667 293 497 c 0
 287.667 464.333 290 428 300 388 c 0
 310 348 326.333 309 349 271 c 0
EndSplineSet
EndChar
StartChar: seven
Encoding: 55 55 24
Width: 1118
Flags: W
HStem: 0 21G<285 496> 1314 175<98 800>
Fore
98 1314 m 1
 98 1489 l 1
 1038 1493 l 1
 1038 1407 l 1
 496 0 l 1
 285 0 l 1
 800 1314 l 1
 98 1314 l 1
EndSplineSet
KernsSLIFO: 15 -150 0 0 13 -150 0 0
EndChar
StartChar: eight
Encoding: 56 56 25
Width: 1118
Flags: W
HStem: 1373 148<395.533 668.4>
VStem: 221.5 827.5<84.5 347>
Fore
1049 347 m 0
 960.13 -115.576 413.456 -97.2621 221.5 84.5 c 0
 23.5416 271.947 3.60742 638.255 343 796 c 1
 34.2678 945.689 82.8745 1271.23 247 1414.5 c 0
 328.333 1485.5 435.333 1521 568 1521 c 0
 736.11 1518.4 1012.27 1449.29 1016 1141 c 0
 1018.67 1001 943 884 789 790 c 1
 997.667 680 1084.33 532.333 1049 347 c 0
567 1373 m 0
 254.676 1373 291.439 1069.3 380.5 963.5 c 0
 451.81 878.782 653.435 851.132 753 948.5 c 0
 837.671 1031.3 847.368 1219.69 750.5 1310 c 0
 706.167 1351.33 645 1372.33 567 1373 c 0
570 721 m 0
 324.343 736.163 179.682 347.008 384 181 c 0
 492.65 92.7224 662.383 86.8801 753 171.5 c 0
 947.131 352.784 833.536 705.68 570 721 c 0
EndSplineSet
EndChar
StartChar: nine
Encoding: 57 57 26
Width: 1118
Flags: W
HStem: 707 160<471.133 673.067>
VStem: 120 921<1148.24 1199.5 1169 1174>
Fore
134 252 m 1
 363 252 l 1
 463.835 114.124 639.682 121.066 761 299 c 0
 824.556 396.26 842.714 440.621 874 604 c 0
 893.333 696 897.667 777 887 847 c 1
 847.842 815.666 766.615 707 576 707 c 0
 326.461 707 66.4801 890.691 120 1169 c 0
 134.479 1245.39 202.24 1519 590 1519 c 0
 830.269 1519 969.734 1401.55 1041 1174 c 0
 1105.41 966.256 1091.34 639.608 1023 427 c 0
 1007.96 381.875 932.785 187.785 861 116 c 0
 575.057 -178.231 166.984 33.472 134 252 c 1
835 1165 m 1
 815.551 1448.93 473.517 1372.24 404.5 1322 c 1
 358.833 1286.67 331 1235 321 1167 c 0
 309 1084.33 328.333 1013.33 379 954 c 0
 429.667 894.667 495.333 867 576 867 c 0
 650.667 867 712.167 896 760.5 950 c 0
 808.833 1004 835 1075.66 835 1165 c 1
EndSplineSet
EndChar
StartChar: colon
Encoding: 58 58 27
Width: 725
Flags: W
HStem: 31 254<244 455> 836 254<244 455>
VStem: 244 211<31 285 836 1090>
Fore
244 31 m 1
 244 285 l 1
 455 285 l 1
 455 31 l 1
 244 31 l 1
244 836 m 1
 244 1090 l 1
 455 1090 l 1
 455 836 l 1
 244 836 l 1
EndSplineSet
KernsSLIFO: 238 -131 0 0
EndChar
StartChar: semicolon
Encoding: 59 59 28
Width: 725
Flags: W
HStem: 805 254<205 416>
VStem: 205 211<82 254 805 1059>
Fore
205 805 m 1
 205 1059 l 1
 416 1059 l 1
 416 805 l 1
 205 805 l 1
205 82 m 1
 205 254 l 1
 416 254 l 1
 416 82 l 1
 252 -238 l 1
 123 -238 l 1
 205 82 l 1
EndSplineSet
EndChar
StartChar: less
Encoding: 60 60 29
Width: 1491
Flags: W
Fore
1284 1202 m 1
 1284 1020 l 1
 451 655 l 1
 1284 288 l 1
 1284 106 l 1
 201 573 l 1
 201 739 l 1
 1284 1202 l 1
EndSplineSet
EndChar
StartChar: equal
Encoding: 61 61 30
Width: 1491
Flags: W
HStem: 362 160<193 1299> 782 160<193 1299>
Fore
193 782 m 1
 193 942 l 1
 1299 942 l 1
 1299 782 l 1
 193 782 l 1
193 362 m 1
 193 522 l 1
 1299 522 l 1
 1299 362 l 1
 193 362 l 1
EndSplineSet
EndChar
StartChar: greater
Encoding: 62 62 31
Width: 1491
Flags: W
Fore
1057 652 m 1
 215 1020 l 1
 215 1202 l 1
 1288 735 l 1
 1288 569 l 1
 215 106 l 1
 215 288 l 1
 1057 652 l 1
EndSplineSet
EndChar
StartChar: question
Encoding: 63 63 32
Width: 971
Flags: W
HStem: 0 254<353 556> 1356 164<329.667 643.31>
VStem: 353 203<0 254 401 692.997> 703 203<1079.87 1324.78>
Fore
353 0 m 1
 353 254 l 1
 556 254 l 1
 556 0 l 1
 353 0 l 1
499 1520 m 0
 738.377 1520 906 1389 906 1167 c 0
 906 1073 852 973.333 744 868 c 2
 656 782 l 2
 555.919 684.39 550 653.998 550 524 c 2
 550 401 l 1
 359 401 l 1
 359 555 l 2
 359 686.893 383.689 753.545 505 872 c 2
 595 961 l 2
 667 1032.33 703 1097.67 703 1157 c 0
 703 1286.06 601.931 1356 464 1356 c 0
 360.667 1356 242.333 1310.33 109 1219 c 1
 109 1407 l 1
 234.333 1482.33 364.333 1520 499 1520 c 0
EndSplineSet
EndChar
StartChar: at
Encoding: 64 64 33
Width: 1862
Flags: W
HStem: -216 143<770.467 1283.53> 224 143<705.779 1065.2> 978 145<706.666 1065.2> 1392 144<733.2 1265.33>
VStem: 131 141<485.248 898> 504 160<429.995 911.75> 1209 143<972 1103> 1616 144<522.267 855.933>
Fore
928 978 m 0
 757.743 978 664 856.654 664 673 c 0
 664 486.073 757.522 367 930 367 c 0
 1101.06 367 1194 487.647 1194 673 c 0
 1194 854.342 1098.77 978 928 978 c 0
1053 -216 m 0
 518.558 -216 181.719 85.3185 131 560 c 0
 131 820 185.333 1036.33 294 1209 c 0
 470 1427 687.667 1536 947 1536 c 0
 1241 1536 1476.67 1399.33 1654 1126 c 0
 1724.67 989.333 1760 837.667 1760 671 c 0
 1760 490.333 1695.98 357.656 1594 249 c 0
 1512.64 162.322 1393 144.667 1209 220 c 1
 1209 374 l 1
 1131 274 1025 224 891 224 c 0
 650.732 224 504 412.217 504 673 c 0
 504 934.837 650.55 1123 891 1123 c 0
 1025 1123 1131 1072.67 1209 972 c 1
 1209 1103 l 1
 1352 1103 l 1
 1352 367 l 1
 1457.33 303.667 1508.73 317.298 1543 391 c 0
 1579.4 469.298 1616 555.667 1616 667 c 0
 1616 812.333 1589.67 938.667 1537 1046 c 0
 1388.33 1276.67 1192.33 1392 949 1392 c 0
 783 1392 629.667 1333.67 489 1217 c 0
 400.634 1129.61 272 990.551 272 560 c 0
 286.667 348 366 189.333 510 84 c 0
 654.667 -20.6667 835.667 -73 1053 -73 c 0
 1230.33 -73 1391 -17 1535 95 c 1
 1625 -16 l 1
 1451.67 -149.333 1261 -216 1053 -216 c 0
EndSplineSet
EndChar
StartChar: A
Encoding: 65 65 34
Width: 1229
Flags: W
HStem: 0 21G<-10 190 1029 1238> 416 169<380 839>
Fore
839 585 m 1
 614 1294 l 1
 380 585 l 1
 839 585 l 1
-10 0 m 1
 500 1493 l 1
 729 1493 l 1
 1238 0 l 1
 1029 0 l 1
 894 416 l 1
 325 416 l 1
 190 0 l 1
 -10 0 l 1
EndSplineSet
KernsSLIFO: 243 -115 0 0 242 -47 0 0 240 -115 0 0 239 -47 0 0 238 -47 0 0 237 -47 0 0 90 -27 0 0 88 -10 0 0 87 -27 0 0 86 -10 0 0 85 -14 0 0 58 -76 0 0 56 -47 0 0 55 -55 0 0 54 -10 0 0 53 -115 0 0 52 -4 0 0 14 -47 0 0
EndChar
StartChar: B
Encoding: 66 66 35
Width: 1206
Flags: W
HStem: 0 21G<152 611> 719 158<352 791.622> 1327 166<350 773>
VStem: 152 198<11.7053 876.295 877 1327>
Fore
576 1327 m 2
 350 1327 l 1
 350 877 l 1
 576 877 l 2
 772 877 886 958.988 886 1124 c 0
 886 1259.8 771.333 1327 576 1327 c 2
1161 418 m 0
 1137.18 223.91 1025.4 -4.64784e-18 611 0 c 2
 152 0 l 1
 152 1493 l 1
 591 1493 l 2
 731 1493 846.667 1471.67 938 1429 c 0
 1048 1373.67 1099 1275 1091 1133 c 0
 1063 949 972.667 839.667 820 805 c 1
 1092.8 805 1161 603.037 1161 418 c 0
352 719 m 1
 354.748 595.321 347.252 292.679 350 169 c 1
 818.49 143.673 945.074 260.553 956 449 c 0
 966.374 640.903 839.816 680.513 772.5 699.5 c 0
 693.578 721.76 546.345 726.774 352 719 c 1
EndSplineSet
KernsSLIFO: 248 -18 0 0 238 10 0 0 237 10 0 0 90 2 0 0 88 10 0 0 86 10 0 0 83 10 0 0 80 10 0 0 77 12 0 0 75 10 0 0 74 10 0 0 73 12 0 0 70 10 0 0 66 10 0 0 53 -55 0 0 50 10 0 0 48 10 0 0 40 10 0 0 36 10 0 0 15 -18 0 0 14 10 0 0 13 -18 0 0
EndChar
StartChar: C
Encoding: 67 67 36
Width: 1231
Flags: W
HStem: 1347.28 168.716<571.697 830.264>
VStem: 66 206<580.825 1140.2>
Fore
1196 101 m 1
 803.549 -139.979 212.118 -67.8848 90 502 c 0
 74 576.667 66 657 66 743 c 0
 66 1215.54 294.645 1486.98 713 1516 c 0
 899.797 1528.44 1029.01 1474.75 1196 1390 c 1
 1196 1151 l 1
 981.577 1330.82 802.285 1356.53 711 1346 c 0
 411 1308.67 264.667 1107.67 272 743 c 0
 272 288.506 509.995 167.646 711 144 c 0
 849.667 128 1011.33 192.333 1196 337 c 1
 1196 101 l 1
EndSplineSet
KernsSLIFO: 238 -47 0 0 237 -47 0 0 214 -25 0 0 14 -47 0 0
EndChar
StartChar: D
Encoding: 68 68 37
Width: 1389
Flags: W
HStem: 0 162<350 914.744> 1325 164<350 1039.28>
VStem: 152 198<162 1325> 1110 213<220.751 1274.51>
Fore
1110 746 m 0
 1110 1152.54 918.061 1325 514 1325 c 2
 350 1325 l 1
 350 162 l 1
 514 162 l 2
 914.744 162 1110 341.962 1110 746 c 0
1323 746 m 0
 1323 212.653 1034.08 0 483 0 c 2
 152 0 l 1
 152 1489 l 1
 483 1489 l 2
 1035.82 1489 1323 1280.2 1323 746 c 0
EndSplineSet
KernsSLIFO: 248 -47 0 0 59 -18 0 0 58 -18 0 0 57 -10 0 0 56 -18 0 0 53 -47 0 0 43 -20 0 0 15 -47 0 0 13 -47 0 0
EndChar
StartChar: E
Encoding: 69 69 38
Width: 1149
Flags: W
HStem: 0 176<350 1083> 729 176<350 1033> 1313 176<350 1083>
VStem: 152 198<176 729 905 1313>
Fore
152 0 m 1
 152 1489 l 1
 1083 1489 l 1
 1083 1313 l 1
 350 1313 l 1
 350 905 l 1
 1033 905 l 1
 1033 729 l 1
 350 729 l 1
 350 176 l 1
 1083 176 l 1
 1083 0 l 1
 152 0 l 1
EndSplineSet
EndChar
StartChar: F
Encoding: 70 70 39
Width: 1067
Flags: W
HStem: 0 21G<152 350> 717 176<350 1014> 1313 176<350 1043>
VStem: 152 198<0 717 893 1313>
Fore
152 0 m 1
 152 1489 l 1
 1043 1489 l 1
 1043 1313 l 1
 350 1313 l 1
 350 893 l 1
 1014 893 l 1
 1014 717 l 1
 350 717 l 1
 350 0 l 1
 152 0 l 1
EndSplineSet
KernsSLIFO: 248 -285 0 0 215 -47 0 0 181 -47 0 0 163 -94 0 0 131 -104 0 0 80 -47 0 0 70 -47 0 0 66 -94 0 0 53 29 0 0 43 -59 0 0 34 -94 0 0 32 55 0 0 28 -55 0 0 27 -55 0 0 15 -285 0 0 13 -285 0 0
EndChar
StartChar: G
Encoding: 71 71 40
Width: 1366
Flags: W
HStem: -34 176<611.436 910.133> 575 174<636.961 1267>
VStem: 69 206<453.065 958.254> 1075 194<99 614.43>
Fore
1269 99 m 1
 1008.45 -22.8346 886.6 -34 791 -34 c 0
 424.16 -34 86.54 155.335 69 702 c 0
 53 1215.33 281 1486.67 753 1516 c 0
 943 1527.33 1113.33 1483.67 1264 1385 c 1
 1267.57 1313.39 1266.6 1241.59 1269 1146 c 1
 1097 1278.67 933 1345 777 1345 c 0
 576.2 1345 262.064 1255.7 275 706 c 0
 278.269 434.788 413.669 290.331 448 256 c 0
 474.76 229.24 579.979 132.408 768 142 c 0
 877.333 146.667 979.667 162.667 1075 190 c 1
 1068.6 292.214 1081.16 478.049 1075 575 c 1
 990.002 579.636 819.005 570.446 734 575 c 1
 736.893 614.063 731.573 712.483 733 751 c 1
 839.782 752.2 1160.22 747.8 1267 749 c 1
 1267.67 675.667 1268 567.333 1268 424 c 0
 1268 280.667 1268.33 172.333 1269 99 c 1
EndSplineSet
EndChar
StartChar: H
Encoding: 72 72 41
Width: 1382
Flags: W
HStem: 0 21G<152 350 1035 1233> 729 176<350 1035>
VStem: 152 198<0 729 905 1489> 1035 198<0 729 905 1489>
Fore
152 0 m 1
 152 1489 l 1
 350 1489 l 1
 350 905 l 1
 1035 905 l 1
 1035 1489 l 1
 1233 1489 l 1
 1233 0 l 1
 1035 0 l 1
 1035 729 l 1
 350 729 l 1
 350 0 l 1
 152 0 l 1
EndSplineSet
EndChar
StartChar: I
Encoding: 73 73 42
Width: 764
Flags: W
HStem: 0 152<92 280 478 670> 1337 152<92 280 478 670>
VStem: 280 198<152 1337>
Fore
92 1489 m 1
 670 1489 l 1
 670 1337 l 1
 478 1337 l 1
 478 152 l 1
 670 152 l 1
 670 0 l 1
 92 0 l 1
 92 152 l 1
 280 152 l 1
 280 1337 l 1
 92 1337 l 1
 92 1489 l 1
EndSplineSet
KernsSLIFO: 238 -29 0 0 237 -29 0 0 87 -31 0 0 84 -20 0 0 83 -10 0 0 81 -10 0 0 80 -25 0 0 79 -10 0 0 78 -10 0 0 72 -20 0 0 70 -25 0 0 69 -20 0 0 68 -25 0 0 66 -20 0 0 14 -29 0 0
EndChar
StartChar: J
Encoding: 74 74 43
Width: 854
Flags: W
HStem: -412 172<8 201.867>
VStem: 348 198<69.1596 1489>
Fore
348 112 m 1
 343 1489 l 1
 546 1489 l 1
 546 117 l 2
 542.667 -65 503.667 -193.333 429 -268 c 1
 359 -364 244.333 -412 85 -412 c 2
 8 -412 l 1
 8 -240 l 1
 71 -240 l 2
 171.667 -240 240 -206 276 -138 c 0
 302 -89.3333 326 -6 348 112 c 1
EndSplineSet
KernsSLIFO: 248 -18 0 0 131 -10 0 0 34 -10 0 0 15 -18 0 0 13 -18 0 0
EndChar
StartChar: K
Encoding: 75 75 44
Width: 1204
Flags: W
HStem: 0 21G<152 350 980 1237>
VStem: 152 198<0 775 824 1489>
Fore
152 0 m 1
 152 1489 l 1
 350 1489 l 1
 350 824 l 1
 960 1489 l 1
 1201 1489 l 1
 586 824 l 1
 1237 0 l 1
 980 0 l 1
 350 775 l 1
 350 0 l 1
 152 0 l 1
EndSplineSet
KernsSLIFO: 238 -104 0 0 237 -104 0 0 215 -68 0 0 214 -18 0 0 181 -68 0 0 163 -55 0 0 149 -18 0 0 90 -55 0 0 88 -57 0 0 87 -55 0 0 86 -41 0 0 80 -57 0 0 70 -57 0 0 66 -45 0 0 48 -18 0 0 14 -104 0 0
EndChar
StartChar: L
Encoding: 76 76 45
Width: 1020
Flags: W
HStem: 0 170<350 1015>
VStem: 152 198<170 1493>
Fore
152 0 m 1
 152 1493 l 1
 350 1493 l 1
 350 170 l 1
 1015 170 l 1
 1015 0 l 1
 152 0 l 1
EndSplineSet
KernsSLIFO: 243 -152 0 0 240 -152 0 0 238 -152 0 0 237 -152 0 0 214 -18 0 0 149 -18 0 0 132 -18 0 0 131 -41 0 0 90 -104 0 0 87 -104 0 0 58 -152 0 0 56 -94 0 0 55 -104 0 0 53 -162 0 0 50 -18 0 0 48 -18 0 0 43 94 0 0 40 -18 0 0 36 -18 0 0 34 -41 0 0 14 -152 0 0 8 -115 0 0
EndChar
StartChar: M
Encoding: 77 77 46
Width: 1579
Flags: W
HStem: 0 21G<152 337 1230 1428>
VStem: 152 185<0 1283> 1230 198<0 1283>
Fore
152 0 m 1
 152 1489 l 1
 422 1489 l 1
 794 660 l 1
 1153 1489 l 1
 1428 1489 l 1
 1428 0 l 1
 1230 0 l 1
 1230 1283 l 1
 842 410 l 1
 722 410 l 1
 337 1283 l 1
 337 0 l 1
 152 0 l 1
EndSplineSet
EndChar
StartChar: N
Encoding: 78 78 47
Width: 1366
Flags: W
HStem: 0 21G<152 337 995 1217>
VStem: 152 185<0 1284> 1032 185<310 1489>
Fore
152 0 m 1
 152 1489 l 1
 433 1489 l 1
 1032 310 l 1
 1032 1489 l 1
 1217 1489 l 1
 1217 0 l 1
 995 0 l 1
 337 1284 l 1
 337 0 l 1
 152 0 l 1
EndSplineSet
EndChar
StartChar: O
Encoding: 79 79 48
Width: 1450
Flags: W
HStem: 1345 170<486.673 862.285>
VStem: 66 204<367.578 1031.53>
Fore
906.5 1494 m 0
 1451.58 1355.63 1448.32 631.789 1292.5 316 c 0
 1075.34 -124.11 553.765 -78.9474 334.5 89 c 0
 230.093 168.971 66 342.532 66 724 c 0
 66 1078.75 170.663 1495.69 701 1515 c 0
 772.333 1517.67 840.833 1510.67 906.5 1494 c 0
913 182.5 m 0
 1271.58 352.711 1198.7 964.267 1077.5 1157 c 0
 992.412 1292.3 869.686 1340.99 715 1345 c 0
 539.364 1346.67 256.189 1253.57 270 727 c 0
 276.572 431.27 376.208 133.931 742 143 c 0
 803.333 144.333 860.333 157.5 913 182.5 c 0
EndSplineSet
KernsSLIFO: 248 -29 0 0 59 -18 0 0 58 -18 0 0 57 -10 0 0 53 -47 0 0 43 -8 0 0 15 -29 0 0 13 -29 0 0
EndChar
StartChar: P
Encoding: 80 80 49
Width: 1128
Flags: W
HStem: -10 21G<154 352> 545 169<352 511.754> 1309 170<331.899 652.903>
VStem: 154 198<-10 545 714 1309> 888 205<914.894 1163.98>
Fore
353 1479 m 2
 921.535 1479 1105.8 1362.4 1093 1004 c 0
 1074.59 645.422 755.225 524.84 352 545 c 1
 352 -10 l 1
 154 -10 l 1
 154 1479 l 1
 353 1479 l 2
352 714 m 1
 580.5 714 l 2
 632.922 720.369 763.488 747.177 830.5 821.5 c 0
 877.119 873.204 888 948.404 888 1004 c 0
 888 1127.06 855.126 1199.8 779.5 1251 c 0
 708.858 1298.83 583.343 1310.13 422.142 1308.5 c 0
 390.714 1308.83 367.333 1309 352 1309 c 1
 352 714 l 1
EndSplineSet
KernsSLIFO: 248 -285 0 0 215 -47 0 0 181 -47 0 0 163 -47 0 0 131 -68 0 0 80 -47 0 0 70 -47 0 0 66 -47 0 0 58 18 0 0 43 -70 0 0 34 -47 0 0 15 -285 0 0 13 -285 0 0
EndChar
StartChar: Q
Encoding: 81 81 50
Width: 1450
Flags: W
HStem: -29 164<522.267 775.749> 1356 164<522.267 941.3>
VStem: 66 213<523.867 962.4> 1184 213<522.133 962.4>
Fore
732 1356 m 0
 570.667 1356 447.333 1292 362 1164 c 0
 306.667 1052 279 912 279 744 c 0
 279 574.667 306.667 435.333 362 326 c 0
 447.333 198.667 570.667 135 732 135 c 0
 894.667 135 1009.33 198.333 1076 325 c 0
 1148 433.667 1184 573.333 1184 744 c 0
 1184 912 1156.33 1052 1101 1164 c 0
 1016 1292 893 1356 732 1356 c 0
1015 27 m 1
 1281 -264 l 1
 1037 -264 l 1
 816 -25 l 1
 766 -28 l 2
 758.667 -28.6667 747.333 -29 732 -29 c 0
 510 -29 337 46 213 196 c 0
 115 334.667 66 517.333 66 744 c 0
 66 970.667 115 1154.33 213 1295 c 0
 336 1445 509 1520 732 1520 c 0
 954.667 1520 1127.33 1444.67 1250 1294 c 0
 1348 1152.67 1397 969.333 1397 744 c 0
 1397 386 1269.67 147 1015 27 c 1
EndSplineSet
KernsSLIFO: 248 -29 0 0 15 -29 0 0 13 -29 0 0
EndChar
StartChar: R
Encoding: 82 82 51
Width: 1272
Flags: W
HStem: 0 21G<152 350 1001 1218> 592 165<350 491.751> 1319 174<350 697.133>
VStem: 152 198<0 592 757 1319> 877 207<941.4 1166.73>
Fore
568 1319 m 2
 350 1319 l 1
 350 757 l 1
 577 757 l 1
 673 771 747 802.5 799 851.5 c 0
 851 900.5 877 966 877 1048 c 0
 877 1139.33 850.333 1207.33 797 1252 c 0
 743.667 1296.67 667.333 1319 568 1319 c 2
760 680 m 1
 853.333 648.667 937.667 558 1013 408 c 2
 1218 0 l 1
 1001 0 l 1
 790 361 l 2
 756 415 714 471.667 664 531 c 0
 632 571.667 573.333 592 488 592 c 2
 350 592 l 1
 350 0 l 1
 152 0 l 1
 152 1493 l 1
 511 1493 l 2
 703 1493 846.5 1457.83 941.5 1387.5 c 0
 1036.5 1317.17 1084 1209 1084 1063 c 0
 1084 947.667 1054.33 855 995 785 c 0
 935.667 715 857.333 680 760 680 c 1
EndSplineSet
KernsSLIFO: 243 -68 0 0 240 -68 0 0 238 -94 0 0 237 -94 0 0 215 -55 0 0 181 -47 0 0 163 -47 0 0 90 -47 0 0 86 -12 0 0 80 -37 0 0 70 -37 0 0 66 -18 0 0 58 -18 0 0 53 -55 0 0 14 -94 0 0
EndChar
StartChar: S
Encoding: 83 83 52
Width: 1141
Flags: W
HStem: -17 164<338.667 837.867> 1369 163<435.993 753.733>
VStem: 89 206<1023.33 1289.2> 886 211<181.933 591>
Fore
1039 1444 m 1
 1039 1247 l 1
 865.667 1327 732.333 1367.67 639 1369 c 0
 409.667 1369 295 1287 295 1123 c 0
 295 1046.33 325 990 385 954 c 0
 420.333 932 485.333 911.333 580 892 c 2
 656 866 l 2
 796.667 837.333 901.333 792.667 970 732 c 0
 1054.67 659.333 1097 556.667 1097 424 c 0
 1097 130 906.333 -17 525 -17 c 0
 381.667 -17 232.667 22.3333 78 101 c 1
 78 309 l 1
 226 201 375 147 525 147 c 0
 765.667 147 886 234.333 886 409 c 0
 886 549 789.667 637.333 597 674 c 2
 474 698 l 2
 338 724.667 251.667 763 215 813 c 1
 131 880.333 89 976.667 89 1102 c 0
 89 1246 142.333 1355.33 249 1430 c 1
 312 1489 419 1523 570 1532 c 0
 711.333 1532 867.667 1502.67 1039 1444 c 1
EndSplineSet
KernsSLIFO: 248 -18 0 0 131 -18 0 0 90 -29 0 0 88 -18 0 0 87 -29 0 0 82 6 0 0 80 4 0 0 70 4 0 0 68 4 0 0 52 -23 0 0 34 -14 0 0 15 -18 0 0 13 -18 0 0
EndChar
StartChar: T
Encoding: 84 84 53
Width: 1196
Flags: W
HStem: 0 21G<498 701> 1318 171<3 498 701 1198>
VStem: 498 203<0 1318>
Fore
3 1318 m 1
 0 1489 l 1
 1198 1489 l 1
 1201 1318 l 1
 701 1318 l 1
 701 0 l 1
 498 0 l 1
 498 1318 l 1
 3 1318 l 1
EndSplineSet
KernsSLIFO: 248 -276 0 0 238 -143 0 0 237 -143 0 0 215 -209 0 0 214 -47 0 0 181 -209 0 0 163 -227 0 0 149 -47 0 0 132 -39 0 0 131 -123 0 0 94 20 0 0 91 -162 0 0 90 -190 0 0 88 -190 0 0 87 -190 0 0 86 -190 0 0 84 -170 0 0 83 -190 0 0 80 -209 0 0 72 -201 0 0 70 -209 0 0 68 -209 0 0 66 -227 0 0 62 20 0 0 58 -70 0 0 53 -100 0 0 52 -10 0 0 48 -47 0 0 43 -59 0 0 40 -39 0 0 36 -39 0 0 34 -115 0 0 32 55 0 0 28 -190 0 0 27 -190 0 0 15 -276 0 0 14 -143 0 0 13 -276 0 0 10 20 0 0
EndChar
StartChar: U
Encoding: 85 85 54
Width: 1343
Flags: W
HStem: -29 164<523.867 886.133>
VStem: 166 198<1119.99 1489> 166 191<418.199 1379.68> 1042 201<417.44 1489>
Fore
166 561 m 2xb0
 166 1489 l 1
 364 1489 l 1xd0
 357 595 l 2
 363 434.333 380.333 323.333 409 262 c 1
 467 177.333 565.667 135 705 135 c 0
 844.333 135 943 177.333 1001 262 c 1
 1028.33 336.667 1041.54 444.001 1042 584 c 2
 1045 1489 l 1
 1243 1489 l 1
 1243 560 l 2
 1265 167.333 1085.67 -29 705 -29 c 0
 323.667 -29 144 167.667 166 561 c 2xb0
EndSplineSet
KernsSLIFO: 248 -18 0 0 131 -18 0 0 34 -10 0 0 15 -18 0 0 13 -18 0 0
EndChar
StartChar: V
Encoding: 86 86 55
Width: 1223
Flags: W
HStem: 0 21G<497 726>
Fore
726 0 m 1
 497 0 l 1
 -8 1489 l 1
 204 1489 l 1
 611 236 l 1
 1028 1489 l 1
 1230 1489 l 1
 726 0 l 1
EndSplineSet
KernsSLIFO: 248 -276 0 0 238 -47 0 0 237 -47 0 0 215 -94 0 0 181 -94 0 0 163 -94 0 0 131 -68 0 0 90 -63 0 0 86 -55 0 0 80 -94 0 0 70 -94 0 0 66 -94 0 0 34 -55 0 0 28 -76 0 0 27 -76 0 0 15 -276 0 0 14 -47 0 0 13 -276 0 0
EndChar
StartChar: W
Encoding: 87 87 56
Width: 1847
Flags: W
HStem: 0 21G<408 626 1225 1448>
Fore
408 0 m 1
 27 1489 l 1
 230 1489 l 1
 530 251 l 1
 811 1493 l 1
 1038 1493 l 1
 1330 239 l 1
 1628 1489 l 1
 1822 1489 l 1
 1448 0 l 1
 1225 0 l 1
 922 1236 l 1
 626 0 l 1
 408 0 l 1
EndSplineSet
KernsSLIFO: 248 -209 0 0 238 -47 0 0 237 -47 0 0 215 -76 0 0 181 -76 0 0 163 -76 0 0 131 -37 0 0 90 -53 0 0 86 -37 0 0 83 -37 0 0 80 -76 0 0 70 -76 0 0 66 -76 0 0 34 -47 0 0 28 -76 0 0 27 -76 0 0 15 -209 0 0 14 -47 0 0 13 -276 0 0
EndChar
StartChar: X
Encoding: 88 88 57
Width: 1190
Flags: W
HStem: 0 21G<8 222 954 1181>
Fore
481 745 m 1
 24 1493 l 1
 241 1493 l 1
 604 904 l 1
 985 1493 l 1
 1202 1493 l 1
 714 755 l 1
 1181 0 l 1
 954 0 l 1
 591 596 l 1
 222 0 l 1
 8 0 l 1
 481 745 l 1
EndSplineSet
KernsSLIFO: 238 -76 0 0 237 -76 0 0 215 -55 0 0 214 -10 0 0 181 -55 0 0 163 -47 0 0 149 -10 0 0 132 -10 0 0 90 -66 0 0 86 -29 0 0 80 -45 0 0 70 -45 0 0 66 -37 0 0 48 -10 0 0 40 -10 0 0 36 -10 0 0 14 -76 0 0
EndChar
StartChar: Y
Encoding: 89 89 58
Width: 1180
Flags: W
HStem: 0 21G<490 693>
VStem: 493 198<0 638>
Fore
493 638 m 1
 -10 1489 l 1
 210 1489 l 1
 594 832 l 1
 984 1489 l 1
 1194 1489 l 1
 691 659 l 1
 693 0 l 1
 490 0 l 1
 493 638 l 1
EndSplineSet
KernsSLIFO: 248 -276 0 0 238 -131 0 0 237 -131 0 0 215 -123 0 0 214 -18 0 0 181 -123 0 0 163 -131 0 0 149 -18 0 0 131 -76 0 0 87 -94 0 0 86 -104 0 0 84 -104 0 0 83 -94 0 0 82 -123 0 0 81 -94 0 0 80 -123 0 0 79 -94 0 0 78 -94 0 0 72 -123 0 0 70 -123 0 0 69 -115 0 0 66 -131 0 0 48 -18 0 0 43 -59 0 0 34 -76 0 0 28 -190 0 0 27 -190 0 0 15 -276 0 0 14 -131 0 0 13 -276 0 0
EndChar
StartChar: Z
Encoding: 90 90 59
Width: 1145
Flags: W
HStem: 0 176<273 1099> 1313 176<95 856>
Fore
95 1313 m 1
 95 1489 l 1
 1079 1489 l 1
 1079 1313 l 1
 273 176 l 1
 1099 176 l 1
 1099 0 l 1
 59 0 l 1
 59 184 l 1
 856 1313 l 1
 95 1313 l 1
EndSplineSet
KernsSLIFO: 238 -47 0 0 237 -47 0 0 215 -55 0 0 214 -18 0 0 181 -55 0 0 163 -47 0 0 149 -18 0 0 132 -18 0 0 90 -63 0 0 88 -39 0 0 80 -55 0 0 70 -55 0 0 66 -47 0 0 59 -10 0 0 48 -18 0 0 40 -18 0 0 36 -18 0 0 14 -55 0 0
EndChar
StartChar: bracketleft
Encoding: 91 91 60
Width: 784
Flags: W
HStem: -270 143<350 590> 1413 143<350 590>
VStem: 166 184<-127 1413> 166 424<-270 -127 1413 1556>
Fore
166 -270 m 1xd0
 166 1556 l 1
 590 1556 l 1
 590 1413 l 1xd0
 350 1413 l 1
 350 -127 l 1xe0
 590 -127 l 1
 590 -270 l 1
 166 -270 l 1xd0
EndSplineSet
KernsSLIFO: 75 49 0 0 53 20 0 0
EndChar
StartChar: backslash
Encoding: 92 92 61
Width: 782
Flags: W
VStem: 51 690<-190 1493>
Fore
51 1493 m 1
 221 1493 l 1
 741 -190 l 1
 571 -190 l 1
 51 1493 l 1
EndSplineSet
EndChar
StartChar: bracketright
Encoding: 93 93 62
Width: 784
Flags: W
HStem: -279 143<98 337> 1404 143<98 337>
VStem: 98 424<-279 -136 1404 1547> 337 185<-136 1404>
Fore
98 1547 m 1xe0
 522 1547 l 1
 522 -279 l 1
 98 -279 l 1
 98 -136 l 1xe0
 337 -136 l 1
 337 1404 l 1xd0
 98 1404 l 1
 98 1547 l 1xe0
EndSplineSet
EndChar
StartChar: asciicircum
Encoding: 94 94 63
Width: 1491
Flags: W
HStem: 925 557<638 1142>
Fore
638 1482 m 1
 834 1482 l 1
 1337 930 l 1
 1142 925 l 1
 735 1298 l 1
 333 925 l 1
 133 925 l 1
 638 1482 l 1
EndSplineSet
EndChar
StartChar: underscore
Encoding: 95 95 64
Width: 1118
Flags: W
HStem: -312 143<-16 1048>
Fore
-16 -169 m 1
 1048 -169 l 1
 1048 -312 l 1
 -16 -312 l 1
 -16 -169 l 1
EndSplineSet
EndChar
StartChar: grave
Encoding: 96 96 65
Width: 1118
Flags: W
HStem: 1302 374<491 670>
VStem: 248 422<1302 1676>
Fore
491 1676 m 1
 670 1302 l 1
 521 1302 l 1
 248 1676 l 1
 491 1676 l 1
EndSplineSet
EndChar
StartChar: a
Encoding: 97 97 66
Width: 1075
Flags: W
HStem: -27 154<403.467 585.467> 563 157<445 647.414> 993 156<382.267 627.733>
VStem: 57 171<249.333 463.4> 759 187<0 132.535 414 563>
Fore
759 563 m 1
 588 563 l 2
 506.667 564.333 441.333 555.333 392 536 c 0
 282.667 500.667 228 434 228 336 c 0
 228 269.333 255 217.667 309 181 c 0
 363 145 423.667 127 491 127 c 0
 563.667 126.333 628.333 167.333 685 250 c 0
 734.333 323.333 759 414 759 522 c 2
 759 563 l 1
946 639 m 2
 946 0 l 1
 759 0 l 1
 766 151 l 1
 685.333 31 578.333 -28.3333 445 -27 c 0
 310.333 -29.6667 212 1 150 65 c 0
 88 129 57 215.333 57 324 c 0
 57 578 228 710 570 720 c 2
 759 735 l 1
 759 725 l 1
 790.333 815 778 883 722 929 c 0
 671.333 971.667 600.333 993 509 993 c 0
 389.667 993 277.333 962.333 172 901 c 1
 172 1071 l 1
 297.333 1123 415.667 1149 527 1149 c 0
 806.333 1147.67 946 977.667 946 639 c 2
EndSplineSet
KernsSLIFO: 90 -14 0 0 88 -10 0 0 87 -14 0 0
EndChar
StartChar: b
Encoding: 98 98 67
Width: 1133
Flags: W
HStem: -35 153<452.8 742.7> 977 153<419.667 742.7>
VStem: 135 189<0 92 1000 1556> 900 172<402.4 692.733>
Fore
658 1130 m 0
 930.73 1130 1072 865.024 1072 548 c 0
 1072 390.667 1051.22 249.96 975 152 c 0
 871.221 18.6267 754 -35 658 -35 c 0
 474.667 -35 372 6.66699 324 92 c 1
 324 -1 l 1
 135 0 l 1
 135 1556 l 1
 323 1556 l 1
 323 1000 l 1
 363 1086.67 474.667 1130 658 1130 c 0
900 548 m 0
 900 659.333 881.333 753.333 844 830 c 0
 795 928 701 977 562 977 c 0
 410.113 977 333.275 821.128 319.5 704.5 c 0
 314.5 662.167 312 607.333 312 540 c 0
 312 363.676 329.254 315.311 352 268 c 0
 410.07 150.331 478 118 562 118 c 0
 701 118 795 167 844 265 c 0
 881.333 341.667 900 436 900 548 c 0
EndSplineSet
KernsSLIFO: 248 -18 0 0 90 -4 0 0 15 -18 0 0 13 -29 0 0
EndChar
StartChar: c
Encoding: 99 99 68
Width: 944
Flags: W
HStem: -22 156<435.2 735.867>
VStem: 82 194<337.3 751.133>
Fore
932 1053 m 1
 932 896 l 1
 826.667 953.333 721.667 982 617 982 c 0
 490.333 982 406.333 951.333 365 890 c 0
 305.667 814.667 276 712.333 276 583 c 0
 261 440 283 331 342 256 c 1
 387.333 174.667 473 134 599 134 c 0
 706.333 134 808.333 174.333 905 255 c 1
 914 50 l 1
 811.333 2 699.667 -22 579 -22 c 0
 404.333 -22 278 32.3333 200 141 c 0
 106 245.667 66.6667 393 82 583 c 0
 82 763 134.667 902.667 240 1002 c 0
 327.333 1081.33 455 1127 623 1139 c 1
 729.667 1127.67 832.667 1099 932 1053 c 1
EndSplineSet
KernsSLIFO: 238 -18 0 0 237 -18 0 0 164 -6 0 0 68 -6 0 0 53 -96 0 0 14 -18 0 0
EndChar
StartChar: d
Encoding: 100 100 69
Width: 1133
Flags: W
HStem: -24 154<409.667 634.133> 998 154<410.1 634.133>
VStem: 59 190<404.733 713.267> 806 184<5 173 409.733 718.267 955 1561>
Fore
806 955 m 1
 806 1561 l 1
 990 1561 l 1
 990 5 l 1
 806 5 l 1
 806 173 l 1
 730 41.6667 610.333 -24 447 -24 c 0
 343.667 -27.3333 250.333 33.6667 167 159 c 0
 95 267.667 59 401 59 559 c 0
 59 717 95 850.333 167 959 c 0
 250.333 1084.33 343.667 1148.67 447 1152 c 0
 610.333 1152 730 1086.33 806 955 c 1
249 559 m 0
 249 440.333 271 343 315 267 c 0
 369.667 172.333 428.667 126.667 492 130 c 0
 601.333 130 683.667 177 739 271 c 0
 783.667 347.667 806 445.333 806 564 c 0
 806 682.667 783.667 780.333 739 857 c 0
 683.667 951 601.333 998 492 998 c 0
 429 995 370 946 315 851 c 0
 271 775 249 677.667 249 559 c 0
EndSplineSet
EndChar
StartChar: e
Encoding: 101 101 70
Width: 1077
Flags: W
HStem: -26 157<298.443 783.467> 539 144<246 866> 985 157<355.133 691.039>
VStem: 866 174<630 812>
Fore
611 -26 m 0
 258.527 -26 59 203.082 59 572 c 0
 59 723.973 88.6814 841.682 183 964 c 0
 275 1082.67 406.333 1142 577 1142 c 0
 729.667 1142 847 1088 929 980 c 0
 1012.86 870.114 1040 770 1040 630 c 2
 1040 539 l 1
 240 539 l 1
 254.975 291.906 372.879 131 621 131 c 0
 752 131 879 166 1002 236 c 1
 1002 61 l 1
 874 3 743.667 -26 611 -26 c 0
246 683 m 1
 866 683 l 1
 866 815.81 797.106 942.116 707 969.5 c 0
 673 979.833 630 985 578 985 c 0
 378.8 985 256.797 832.014 246 683 c 1
EndSplineSet
KernsSLIFO: 53 -131 0 0
EndChar
StartChar: f
Encoding: 102 102 71
Width: 651
Flags: W
HStem: 0 21G<146 331> 977 143<29 146 331 634> 1403 153<421.2 683>
VStem: 146 185<0 977 1120 1309.68>
Fore
509 1556 m 2
 683 1556 l 1
 683 1403 l 1
 507 1403 l 2
 441 1403 395 1389 369 1361 c 0
 343.667 1333.67 331 1286.33 331 1219 c 2
 331 1120 l 1
 634 1120 l 1
 634 977 l 1
 331 977 l 1
 331 0 l 1
 146 0 l 1
 146 977 l 1
 29 980 l 1
 29 1123 l 1
 146 1120 l 1
 146 1198 l 2
 146 1322 175.333 1412.67 234 1470 c 0
 292.667 1527.33 384.333 1556 509 1556 c 2
EndSplineSet
KernsSLIFO: 248 -115 0 0 243 68 0 0 240 68 0 0 238 -68 0 0 237 -68 0 0 181 -20 0 0 171 121 0 0 166 -20 0 0 163 -25 0 0 94 100 0 0 90 -25 0 0 86 -20 0 0 84 -23 0 0 83 -10 0 0 82 -10 0 0 81 -10 0 0 80 -20 0 0 79 -10 0 0 78 -10 0 0 75 -20 0 0 72 -10 0 0 71 -14 0 0 70 -20 0 0 68 -20 0 0 66 -25 0 0 62 100 0 0 61 94 0 0 32 115 0 0 15 -150 0 0 14 -68 0 0 13 -150 0 0 11 68 0 0 10 100 0 0 8 86 0 0 3 86 0 0
EndChar
StartChar: g
Encoding: 103 103 72
Width: 1133
Flags: W
HStem: -412 150<337.653 757.867> 12 154<428.102 635.867> 1005 155.41<408.153 635.294>
VStem: 59 190<418.733 726.4> 806 184<-211.333 209 431.6 740.133 962 1132>
Fore
806 585 m 0
 806 704.333 784 800 740 872 c 0
 684.667 969.333 602 1013.67 492 1005 c 0
 428 997 369 948.333 315 859 c 0
 271 786.333 249 691 249 573 c 0
 249 454.333 271 359 315 287 c 0
 369 198.333 428 158 492 166 c 0
 602.667 166 685 210.333 739 299 c 0
 783.667 371.667 806 467 806 585 c 0
990 1132 m 1
 990 151 l 2
 990 -224.333 818 -412 474 -412 c 0
 392 -420 298.667 -405 194 -367 c 1
 194 -188 l 1
 299.333 -245.333 383 -270 445 -262 c 0
 685.667 -262 806 -135.333 806 118 c 2
 806 209 l 1
 730.667 77.6667 611 12 447 12 c 0
 343 4 249.667 60 167 180 c 0
 95 285 59 416 59 573 c 0
 59 731 95 862.333 167 967 c 0
 249.667 1087 343 1151 447 1159 c 0
 610.333 1183 730 1117.33 806 962 c 1
 806 1132 l 1
 990 1132 l 1
EndSplineSet
KernsSLIFO: 75 12 0 0
EndChar
StartChar: h
Encoding: 104 104 73
Width: 1143
Flags: W
HStem: 0 21G<135 320 826 1010> 987 160<506.667 801.333>
VStem: 135 185<0 769.933 946 1556> 826 184<0 944.733>
Fore
1010 676 m 2
 1010 0 l 1
 826 0 l 1
 826 670 l 2
 826 881.333 764.333 987 641 987 c 0
 537.667 987 457.333 953.333 400 886 c 0
 346.667 822.667 320 738.333 320 633 c 2
 320 0 l 1
 135 0 l 1
 135 1556 l 1
 320 1556 l 1
 320 946 l 1
 406.667 1080 527.333 1147 682 1147 c 0
 900.667 1147 1010 990 1010 676 c 2
EndSplineSet
KernsSLIFO: 90 -18 0 0 88 -10 0 0 87 -18 0 0
EndChar
StartChar: i
Encoding: 105 105 74
Width: 469
Flags: W
HStem: 0 21G<127 311> 1100 20G<127 311> 1323 233<127 311>
VStem: 127 184<0 1120 1323 1556>
Fore
127 0 m 1
 127 1120 l 1
 311 1120 l 1
 311 0 l 1
 127 0 l 1
127 1323 m 1
 127 1556 l 1
 311 1556 l 1
 311 1323 l 1
 127 1323 l 1
EndSplineSet
KernsSLIFO: 85 4 0 0 77 2 0 0 74 2 0 0 71 4 0 0
EndChar
StartChar: j
Encoding: 106 106 75
Width: 578
Flags: W
HStem: -412 157<-90 60.4> 1115 20G<140 324> 1338 233<140 324>
VStem: 140 184<-145.273 1135 1338 1571>
Fore
140 -5 m 2
 140 1135 l 1
 324 1135 l 1
 324 -5 l 2
 324 -139 300.667 -237.333 254 -300 c 0
 198.667 -374.667 107.333 -412 -20 -412 c 2
 -90 -412 l 1
 -90 -255 l 1
 -41 -255 l 2
 37 -255 88.6667 -232 114 -186 c 0
 131.333 -152.667 140 -92.3333 140 -5 c 2
140 1338 m 1
 140 1571 l 1
 324 1571 l 1
 324 1338 l 1
 140 1338 l 1
EndSplineSet
EndChar
StartChar: k
Encoding: 107 107 76
Width: 1020
Flags: W
HStem: 0 21G<135 320 765 1005> 1100 20G<745 980>
VStem: 135 185<0 547 637 1556>
Fore
135 0 m 1
 135 1556 l 1
 320 1556 l 1
 320 637 l 1
 745 1120 l 1
 980 1120 l 1
 539 609 l 1
 1005 0 l 1
 765 0 l 1
 320 547 l 1
 320 0 l 1
 135 0 l 1
EndSplineSet
KernsSLIFO: 238 -94 0 0 237 -94 0 0 215 -18 0 0 181 -18 0 0 80 -18 0 0 70 -18 0 0 14 -94 0 0
EndChar
StartChar: l
Encoding: 108 108 77
Width: 469
Flags: W
HStem: 0 21G<139 323>
VStem: 139 184<0 1556>
Fore
139 0 m 1
 139 1556 l 1
 323 1556 l 1
 323 0 l 1
 139 0 l 1
EndSplineSet
KernsSLIFO: 172 10 0 0 171 10 0 0 85 4 0 0 77 6 0 0 74 2 0 0 71 2 0 0
EndChar
StartChar: m
Encoding: 109 109 78
Width: 1720
Flags: W
HStem: 0 21G<135 323 769 957 1403 1591> 987 159<469.867 755 1078.13 1333.11>
VStem: 135 193<0 757.067 946 1117> 769 188<0 848.169> 1403 188<0 841.267>
Fore
911 905 m 1
 985.667 1065.67 1095 1146 1239 1146 c 0
 1383 1144 1481 1090 1533 984 c 0
 1571.67 906 1591 802.667 1591 674 c 2
 1591 0 l 1
 1403 0 l 1
 1403 668 l 2
 1402.33 872.667 1333.33 979 1196 987 c 0
 1105.33 987 1037.67 948.667 993 872 c 0
 956.333 810 944.333 729.667 957 631 c 2
 957 0 l 1
 769 0 l 1
 769 668 l 2
 777 880.667 716 987 586 987 c 0
 496.667 987 429.333 948.333 384 871 c 0
 346.667 807.667 328 728.667 328 634 c 2
 323 0 l 1
 135 0 l 1
 135 1117 l 1
 328 1117 l 1
 328 946 l 1
 397.333 1079.33 498 1146 630 1146 c 0
 770.667 1146 864.333 1065.67 911 905 c 1
EndSplineSet
KernsSLIFO: 90 -18 0 0 88 -10 0 0 87 -18 0 0
EndChar
StartChar: n
Encoding: 110 110 79
Width: 1143
Flags: W
HStem: 0 21G<135 323 825 1009> 987 160<479.867 821.933>
VStem: 135 188<0 769.933 946 1120> 825 184<0 270.746>
Fore
1009 676 m 2
 1009 0 l 1
 825 0 l 1
 825 670 l 2
 845 881.333 772.333 987 607 987 c 0
 503 987 435 953.333 403 886 c 1
 349.667 822.667 323 738.333 323 633 c 2
 323 0 l 1
 135 0 l 1
 135 1120 l 1
 323 1120 l 1
 323 946 l 1
 410.333 1080 518.667 1147 648 1147 c 0
 908.667 1147 1029 990 1009 676 c 2
EndSplineSet
KernsSLIFO: 90 -18 0 0 88 -10 0 0 87 -18 0 0
EndChar
StartChar: o
Encoding: 111 111 80
Width: 1112
Flags: W
HStem: -29 156<424.533 686.267> 991 156<427.133 688>
VStem: 57 194<403.867 713.267> 860 195<404.6 711.4>
Fore
571 991 m 0
 460.333 991 377 944.667 321 852 c 0
 274.333 775.333 251 677.667 251 559 c 0
 251 439.667 274 342 320 266 c 0
 374.667 173.333 458.333 127 571 127 c 0
 659.667 126.333 732.667 172.667 790 266 c 0
 836.667 342.667 860 440 860 558 c 0
 860 676 836.667 773.333 790 850 c 0
 734 943 661 990 571 991 c 0
571 1147 m 0
 720.333 1146.33 840.333 1089 931 975 c 0
 1013.67 872.333 1055 733.333 1055 558 c 0
 1055 382.667 1013.67 243.667 931 141 c 0
 841 27 721 -29.6667 571 -29 c 0
 401 -29 271 28 181 142 c 0
 98.3333 244.667 57 383.667 57 559 c 0
 57 734.333 98.3333 873.333 181 976 c 0
 271 1090 401 1147 571 1147 c 0
EndSplineSet
KernsSLIFO: 248 -18 0 0 90 -12 0 0 89 -18 0 0 87 -12 0 0 15 -18 0 0 13 -29 0 0
EndChar
StartChar: p
Encoding: 112 112 81
Width: 1133
Flags: W
HStem: 5 147<416.933 689.067> 975 147<416.933 689.067>
VStem: 135 179<-412 86 412.23 711.471 1090.11 1097> 850 182<418.4 708.733>
Fore
314 86 m 1
 311 -412 l 1
 135 -412 l 1
 138 1097 l 1
 314 1097 l 1
 314 936 l 1
 347 1060 441 1122 596 1122 c 0
 738.667 1122 849.667 1062.33 929 943 c 0
 997.667 840.333 1032 714 1032 564 c 0
 1032 413.333 997.667 286.667 929 184 c 0
 849.667 64.6667 738.667 5 596 5 c 0
 441 5 347 32 314 86 c 1
850 564 m 0
 850 675.333 829.333 767.667 788 841 c 0
 736 930.333 657.667 975 553 975 c 0
 448.333 975 383.667 930.667 359 842 c 0
 329 768.667 314 676.333 314 565 c 0
 314 453.667 327.667 360.667 355 286 c 0
 382.333 196.667 448.333 152 553 152 c 0
 657.667 152 736 196.667 788 286 c 0
 829.333 359.333 850 452 850 564 c 0
EndSplineSet
KernsSLIFO: 248 -18 0 0 90 -4 0 0 15 -18 0 0 13 -29 0 0
EndChar
StartChar: q
Encoding: 113 113 82
Width: 1133
Flags: W
HStem: -15 154<437.799 634.133> 1007 154<436.09 634.133>
VStem: 59 190<404.733 713.267> 806 186<-412 182 418.733 727.267 1039 1164>
Fore
249 559 m 0
 249 440.333 271 343 315 267 c 0
 369.667 172.333 428.667 129.667 492 139 c 1
 601.333 139 683.667 186 739 280 c 0
 783.667 356.667 806 454.333 806 573 c 0
 806 691.667 783.667 789.333 739 866 c 0
 683.667 960 601.333 1007 492 1007 c 1
 429 998 370 946 315 851 c 0
 271 775 249 677.667 249 559 c 0
806 -412 m 1
 806 182 l 1
 730 50.6667 610.333 -15 447 -15 c 0
 337.667 -15 244.333 43 167 159 c 0
 95 267.667 59 401 59 559 c 0
 59 717 95 850.333 167 959 c 0
 256.333 1093.67 349.667 1161 447 1161 c 0
 615.667 1161 736 1120.33 808 1039 c 1
 808 1164 l 1
 992 1164 l 1
 992 -412 l 1
 806 -412 l 1
EndSplineSet
EndChar
StartChar: r
Encoding: 114 114 83
Width: 737
Flags: W
HStem: 0 21G<135 323> 949 164<555.695 700.003>
VStem: 135 188<0 929.6 945 1117>
Fore
727 1104 m 1
 727 915 l 1
 712.333 937.667 680 949 630 949 c 0
 425.333 971 323 851 323 589 c 2
 323 0 l 1
 135 0 l 1
 135 1117 l 1
 323 1117 l 1
 323 945 l 1
 387.667 1055.67 505.333 1111.67 676 1113 c 0
 697 1113 714 1110 727 1104 c 1
EndSplineSet
KernsSLIFO: 248 -276 0 0 243 29 0 0 240 29 0 0 238 -18 0 0 237 -18 0 0 215 -10 0 0 181 -10 0 0 166 -10 0 0 164 -10 0 0 163 -39 0 0 82 -10 0 0 80 -10 0 0 72 -10 0 0 70 -10 0 0 69 -10 0 0 68 -10 0 0 66 -35 0 0 15 -276 0 0 14 -25 0 0 13 -276 0 0
EndChar
StartChar: s
Encoding: 115 115 84
Width: 913
Flags: W
HStem: -41 154<298.856 587.533> 981 154<342.2 643.267>
VStem: 76 178<740.8 952.933> 696 189<143.6 347.133>
Fore
825 1075 m 1
 825 901 l 1
 719.667 954.333 607.667 981 489 981 c 0
 332.333 980.333 254 923.667 254 811 c 0
 254 757 283.333 715.667 342 687 c 1
 342.667 675 382.333 660.333 461 643 c 2
 524 629 l 2
 641.333 603 725.333 570.667 776 532 c 0
 848.667 477.333 885 399 885 297 c 0
 885 179 834.667 90.6667 734 32 c 0
 653.333 -16.6667 549.333 -41 422 -41 c 0
 328.667 -42.3333 210.667 -19.6667 68 27 c 1
 68 217 l 1
 202 146.333 321.333 111.667 426 113 c 0
 606 113 696 169.667 696 283 c 0
 696 332.333 679.333 370.667 646 398 c 0
 616.667 421.333 542.667 447 424 475 c 2
 360 490 l 2
 280.667 512.667 217.333 543.667 170 583 c 0
 107.333 633.667 76 707 76 803 c 0
 76 918.333 120.667 1004.67 210 1062 c 0
 285.333 1109.33 371 1133.67 467 1135 c 0
 605 1135 724.333 1115 825 1075 c 1
EndSplineSet
EndChar
StartChar: t
Encoding: 116 116 85
Width: 684
Flags: W
HStem: 0 154<426 719> 977 143<20 155 340 719>
VStem: 155 185<274.336 977 1120 1438>
Fore
155 1438 m 1
 340 1438 l 1
 340 1120 l 1
 719 1120 l 1
 719 977 l 1
 340 977 l 1
 340 369 l 2
 340 284.333 350.667 228.333 372 201 c 0
 397.333 169.667 450 154 530 154 c 2
 719 154 l 1
 719 0 l 1
 530 0 l 2
 390.667 0 293.333 26.6667 238 80 c 0
 182.667 134 155 230.333 155 369 c 2
 155 977 l 1
 20 977 l 1
 20 1120 l 1
 155 1120 l 1
 155 1438 l 1
EndSplineSet
KernsSLIFO: 243 18 0 0 240 18 0 0 238 -39 0 0 237 -39 0 0 90 -20 0 0 87 -20 0 0 85 -16 0 0 14 -39 0 0
EndChar
StartChar: u
Encoding: 117 117 86
Width: 1143
Flags: W
HStem: -29 160<434.533 633.867> 1100 20G<817 1001>
VStem: 127 184<332 1117> 817 184<0 172 347.2 1120>
Fore
127 431 m 2
 127 1117 l 1
 311 1117 l 1
 311 438 l 2
 311 332 329.167 253.5 365.5 202.5 c 0
 401.833 151.5 456.333 127.667 529 131 c 0
 609.667 131 678.667 164.667 736 232 c 0
 790 294.667 817 379 817 485 c 2
 817 1120 l 1
 1001 1120 l 1
 1001 0 l 1
 817 0 l 1
 817 172 l 1
 729 38 620 -29 490 -29 c 0
 368.667 -32.3333 277.833 4.33333 217.5 81 c 0
 157.167 157.667 127 274.333 127 431 c 2
EndSplineSet
EndChar
StartChar: v
Encoding: 118 118 87
Width: 1020
Flags: W
HStem: 0 21G<416 584>
VStem: 6 1000<1117 1117>
Fore
416 0 m 1
 6 1117 l 1
 201 1117 l 1
 512 234 l 1
 811 1117 l 1
 1006 1117 l 1
 584 0 l 1
 416 0 l 1
EndSplineSet
KernsSLIFO: 248 -170 0 0 240 31 0 0 238 -39 0 0 237 -39 0 0 215 -12 0 0 181 -16 0 0 163 -39 0 0 80 -16 0 0 70 -16 0 0 66 -39 0 0 15 -170 0 0 14 -39 0 0 13 -170 0 0
EndChar
StartChar: w
Encoding: 119 119 88
Width: 1520
Flags: W
HStem: 0 21G<305 478 1022 1196> 1100 20G<1305 1489>
Fore
305 0 m 1
 31 1117 l 1
 215 1117 l 1
 412 252 l 1
 677 1117 l 1
 832 1117 l 1
 1104 252 l 1
 1305 1120 l 1
 1489 1120 l 1
 1196 0 l 1
 1022 0 l 1
 749 861 l 1
 478 0 l 1
 305 0 l 1
EndSplineSet
KernsSLIFO: 248 -68 0 0 240 20 0 0 238 -18 0 0 237 -18 0 0 163 -18 0 0 66 -18 0 0 15 -68 0 0 14 -18 0 0 13 -68 0 0
EndChar
StartChar: x
Encoding: 120 120 89
Width: 1014
Flags: W
HStem: 0 21G<15 232 796 1013> 1100 20G<10 227>
VStem: 10 1003<1117 1120>
Fore
796 1117 m 1
 1013 1117 l 1
 633 575 l 1
 1013 0 l 1
 796 0 l 1
 516 440 l 1
 232 0 l 1
 15 0 l 1
 408 586 l 1
 10 1120 l 1
 227 1120 l 1
 524 721 l 1
 796 1117 l 1
EndSplineSet
KernsSLIFO: 238 -47 0 0 237 -47 0 0 215 -18 0 0 181 -25 0 0 164 -18 0 0 80 -25 0 0 72 -10 0 0 70 -25 0 0 69 -10 0 0 68 -18 0 0 14 -47 0 0
EndChar
StartChar: y
Encoding: 121 121 90
Width: 1020
Flags: W
HStem: -429 154<107 293.867>
VStem: 6 1007<1117 1117>
Fore
1013 1117 m 1
 573 -102 l 2
 548 -218 518 -296 483 -336 c 0
 427.667 -398 351.333 -429 254 -429 c 2
 107 -429 l 1
 107 -275 l 1
 215 -275 l 2
 275.667 -275 322.333 -254.667 355 -214 c 0
 373.667 -190.667 397.333 -142.333 426 -69 c 1
 442 0 l 1
 6 1117 l 1
 201 1117 l 1
 509 238 l 1
 818 1117 l 1
 1013 1117 l 1
EndSplineSet
KernsSLIFO: 248 -170 0 0 240 31 0 0 238 -39 0 0 237 -39 0 0 215 -12 0 0 181 -16 0 0 164 -16 0 0 163 -39 0 0 82 -10 0 0 80 -16 0 0 72 -10 0 0 70 -16 0 0 69 -10 0 0 68 -16 0 0 66 -39 0 0 15 -180 0 0 14 -39 0 0 13 -180 0 0
EndChar
StartChar: z
Encoding: 122 122 91
Width: 909
Flags: W
HStem: 0 146<239 874> 972 145<72 684>
Fore
72 972 m 1
 72 1117 l 1
 874 1117 l 1
 874 951 l 1
 239 146 l 1
 874 146 l 1
 874 0 l 1
 49 0 l 1
 49 167 l 1
 684 972 l 1
 72 972 l 1
EndSplineSet
KernsSLIFO: 238 -18 0 0 237 -18 0 0 181 -10 0 0 164 -10 0 0 82 -10 0 0 80 -10 0 0 72 -10 0 0 70 -10 0 0 69 -10 0 0 68 -10 0 0 14 -18 0 0
EndChar
StartChar: braceleft
Encoding: 123 123 92
Width: 983
Flags: W
HStem: -334 144<663.267 850> 541 143<59 242.2> 1413 143<663.267 850>
VStem: 370 185<-52 371.333 824.067 1275>
Fore
782 -190 m 2
 850 -190 l 1
 850 -334 l 1
 788 -334 l 2
 630 -334 523 -312 467 -268 c 0
 402.333 -217.333 370 -116.333 370 35 c 2
 370 274 l 2
 370 371.333 352.667 439.333 318 478 c 0
 281 520 215 541 120 541 c 2
 59 541 l 1
 59 684 l 1
 120 684 l 2
 214 684 279.667 704.667 317 746 c 0
 352.333 785.333 370 852.667 370 948 c 2
 370 1188 l 2
 370 1338 402.333 1438.33 467 1489 c 0
 524.333 1533.67 631.333 1556 788 1556 c 2
 850 1556 l 1
 850 1413 l 1
 782 1413 l 2
 690.667 1413 630 1397.67 600 1367 c 0
 570 1336 555 1275 555 1184 c 2
 555 936 l 2
 555 842.667 543.333 773.333 520 728 c 0
 490.667 670 435.333 631.333 354 612 c 1
 435.333 592 490.667 553 520 495 c 0
 543.333 447 555 377.667 555 287 c 2
 555 39 l 2
 555 -52 570 -113 600 -144 c 0
 630 -174.667 690.667 -190 782 -190 c 2
EndSplineSet
KernsSLIFO: 75 49 0 0 53 20 0 0
EndChar
StartChar: bar
Encoding: 124 124 93
Width: 782
Flags: W
VStem: 307 170<-483 1565>
Fore
307 1565 m 1
 477 1565 l 1
 477 -483 l 1
 307 -483 l 1
 307 1565 l 1
EndSplineSet
EndChar
StartChar: braceright
Encoding: 125 125 94
Width: 983
Flags: W
HStem: -334 144<98 260> 541 143<704.8 889> 1413 143<98 287.6>
VStem: 393 184<-79.7333 371.333 852.667 1301.87>
Fore
98 -334 m 1
 98 -190 l 1
 168 -190 l 2
 260 -190 320.333 -175 349 -145 c 0
 378.333 -113.667 393 -52.3333 393 39 c 2
 393 287 l 2
 393 377.667 404.667 447 428 495 c 0
 457.333 553 512.667 592 594 612 c 1
 512.667 630 457 668.667 427 728 c 0
 404.333 772.667 393 842 393 936 c 2
 393 1184 l 2
 393 1274.67 378.333 1335.67 349 1367 c 0
 320.333 1397.67 260 1413 168 1413 c 2
 98 1413 l 1
 98 1556 l 1
 161 1556 l 2
 317 1556 423.667 1533.67 481 1489 c 0
 545 1437.67 577 1337.33 577 1188 c 2
 577 948 l 2
 577 852.667 594.667 785.333 630 746 c 0
 667.333 704.667 733 684 827 684 c 2
 889 684 l 1
 889 541 l 1
 827 541 l 2
 732 541 666 520 629 478 c 0
 594.333 439.333 577 371.333 577 274 c 2
 577 35 l 2
 577 -116 545 -217 481 -268 c 0
 425 -312 318.333 -334 161 -334 c 2
 98 -334 l 1
EndSplineSet
EndChar
StartChar: asciitilde
Encoding: 126 126 95
Width: 1491
Flags: W
HStem: 492 165<969.467 1195.2> 627 166<353.667 570.65>
Fore
1415 817 m 1x80
 1415 639 l 1
 1285 541 1158 492 1034 492 c 0x80
 964 492 878.667 511.667 778 551 c 2
 740 565 l 2
 631.333 606.333 548.333 627 491 627 c 0
 377 627 257.667 573.667 133 467 c 1
 133 645 l 1
 263.667 743.667 390.667 793 514 793 c 0x40
 586 793 671.667 773 771 733 c 0
 894.683 683.194 989.667 657 1057 657 c 0
 1165 657 1284.33 710.333 1415 817 c 1x80
EndSplineSet
EndChar
StartChar: exclamdown
Encoding: 161 161 96
Width: 680
Flags: W
HStem: 0 21G<227 430> 1239 254<227 430>
VStem: 227 203<0 759.448 1239 1493>
Fore
430 1493 m 1
 430 1239 l 1
 227 1239 l 1
 227 1493 l 1
 430 1493 l 1
430 655 m 1
 430 0 l 1
 227 0 l 1
 227 655 l 1
 248 1012 l 1
 410 1012 l 1
 430 655 l 1
EndSplineSet
EndChar
StartChar: cent
Encoding: 162 162 97
Width: 1118
Flags: W
VStem: 115 195<413.4 704.6> 621 102<-313 -29 131 987 1145 1432>
Fore
621 131 m 1
 621 987 l 1
 515 974 435 925 381 840 c 0
 333.667 764.667 310 671 310 559 c 0
 310 447 333.667 353.333 381 278 c 0
 435 192 515 143 621 131 c 1
1002 1077 m 1
 1002 905 l 1
 903.333 958.333 810.667 987 724 991 c 1
 723 127 l 1
 815 133.667 908 162.333 1002 213 c 1
 1002 43 l 1
 918 4 825 -20 723 -29 c 1
 723 -313 l 1
 621 -313 l 1
 621 -25 l 1
 456.333 -12.3333 330 47.6667 242 155 c 0
 157.333 255.667 115 390.333 115 559 c 0
 115 728 157 863 241 964 c 0
 327.667 1069.33 454.333 1129.67 621 1145 c 1
 621 1432 l 1
 723 1432 l 1
 724 1145 l 1
 822 1139.67 914.667 1117 1002 1077 c 1
EndSplineSet
EndChar
StartChar: sterling
Encoding: 163 163 98
Width: 1118
Flags: W
HStem: 0 170<88 312 502 1031> 635 143<123 312 502 873> 1360 160<616.067 841.3>
VStem: 312 190<170 635 778 1158.96>
Fore
1012 1460 m 1
 1012 1278 l 1
 917.333 1332.67 831 1360 753 1360 c 0
 647.667 1360 577 1324.67 541 1254 c 0
 515 1203 502 1116 502 993 c 2
 502 778 l 1
 873 778 l 1
 873 635 l 1
 502 635 l 1
 502 170 l 1
 1031 170 l 1
 1031 0 l 1
 88 0 l 1
 88 170 l 1
 312 170 l 1
 312 635 l 1
 123 635 l 1
 123 778 l 1
 312 778 l 1
 312 1016 l 2
 312 1180.67 342.667 1303.67 404 1385 c 0
 473.333 1475 584 1520 736 1520 c 0
 817 1520 909 1500 1012 1460 c 1
EndSplineSet
EndChar
StartChar: currency
Encoding: 164 164 99
Width: 1118
Flags: W
HStem: 287 137<456.067 626.8> 893 137<456.933 627.667>
VStem: 179 133<573.2 746.533> 771 134<573.2 746.533>
Fore
744 965 m 1
 922 1148 l 1
 1017 1048 l 1
 843 868 l 1
 884.333 798.667 905 728.667 905 658 c 0
 905 584 882.667 515.667 838 453 c 1
 1015 272 l 1
 920 174 l 1
 743 355 l 1
 677.667 309.667 610.333 287 541 287 c 0
 475 287 407.667 308.333 339 351 c 1
 162 170 l 1
 66 270 l 1
 241 450 l 1
 199.667 523.333 179 592.667 179 658 c 0
 179 730.667 200.333 799.333 243 864 c 1
 68 1044 l 1
 164 1144 l 1
 342 963 l 1
 400.667 1007.67 467 1030 541 1030 c 0
 609 1030 676.667 1008.33 744 965 c 1
771 659 m 0
 771 726.333 749 782 705 826 c 0
 662.333 870.667 607.667 893 541 893 c 0
 476.333 893 422 870.667 378 826 c 0
 334 782 312 726.333 312 659 c 0
 312 593 333.667 537.333 377 492 c 0
 421 446.667 475.667 424 541 424 c 0
 607 424 661.667 446.667 705 492 c 0
 749 537.333 771 593 771 659 c 0
EndSplineSet
EndChar
StartChar: yen
Encoding: 165 165 100
Width: 1118
Flags: W
HStem: 0 21G<477 657> 457 122<103 477 657 1028> 786 122<103 341 790 1028>
VStem: 477 180<0 457 579 630>
Fore
1028 579 m 1
 1028 457 l 1
 657 457 l 1
 657 0 l 1
 477 0 l 1
 477 457 l 1
 103 457 l 1
 103 579 l 1
 477 579 l 1
 477 630 l 1
 402 786 l 1
 103 786 l 1
 103 908 l 1
 341 908 l 1
 55 1495 l 1
 226 1495 l 1
 566 795 l 1
 905 1495 l 1
 1077 1495 l 1
 790 908 l 1
 1028 908 l 1
 1028 786 l 1
 730 786 l 1
 655 630 l 1
 655 579 l 1
 1028 579 l 1
EndSplineSet
EndChar
StartChar: brokenbar
Encoding: 166 166 101
Width: 782
Flags: W
VStem: 307 170<-350 408 674 1432>
Fore
307 408 m 1
 477 408 l 1
 477 -350 l 1
 307 -350 l 1
 307 408 l 1
307 1432 m 1
 477 1432 l 1
 477 674 l 1
 307 674 l 1
 307 1432 l 1
EndSplineSet
EndChar
StartChar: section
Encoding: 167 167 102
Width: 1118
Flags: W
HStem: -385 162<435.8 733.933> 1378 162<466.667 757.133>
VStem: 119 186<581.2 768.4> 195 211<1123.2 1354.67> 792 211<-188.667 54.5> 894 185<408.3 595.933>
Fore
963 1475 m 1xd0
 963 1290 l 1
 837.667 1348.67 730.333 1378 641 1378 c 0
 484.333 1378 406 1321.67 406 1209 c 0
 406 1143 484.667 1066.33 642 979 c 0
 648 975 663 966.333 687 953 c 0
 810.346 884.476 896.889 830.873 945 789 c 0
 1034.12 711.431 1079 626.667 1079 534 c 0xd4
 1079 400.667 1008.33 294.333 867 215 c 1
 957.667 140.333 1003 56.3333 1003 -37 c 0
 1003 -153.667 959 -242.333 871 -303 c 0
 796.333 -357.667 696.333 -385 571 -385 c 0
 467 -385 347 -363.333 211 -320 c 1
 211 -135 l 1
 342.333 -193.667 454.333 -223 547 -223 c 0
 710.333 -223 792 -163 792 -43 c 0
 792 32 708 116 540 209 c 2
 511 224 l 2
 385 292 298.667 346.667 252 388 c 0
 163.333 464.667 119 550.667 119 646 c 0xe8
 119 783.333 189.333 889 330 963 c 1
 240 1029 195 1113.33 195 1216 c 0
 195 1322.67 239.528 1404.7 328 1463 c 0
 405.504 1514.07 500.667 1540 614 1540 c 0
 724.667 1540 841 1518.33 963 1475 c 1xd0
448 884 m 1
 352.667 816 305 748 305 680 c 0xe4
 305 604 362.667 526 478 446 c 0
 514 421.333 604.667 370.667 750 294 c 1
 846 361 894 429 894 498 c 0
 894 573.333 835.643 651.298 719 732 c 0
 692.995 749.992 602.667 800.667 448 884 c 1
EndSplineSet
EndChar
StartChar: dieresis
Encoding: 168 168 103
Width: 1118
Flags: W
HStem: 1304 203<254 457 667 870>
VStem: 254 203<1304 1507> 667 203<1304 1507>
Fore
667 1304 m 1
 667 1507 l 1
 870 1507 l 1
 870 1304 l 1
 667 1304 l 1
254 1304 m 1
 254 1507 l 1
 457 1507 l 1
 457 1304 l 1
 254 1304 l 1
EndSplineSet
EndChar
StartChar: copyright
Encoding: 169 169 104
Width: 1903
Flags: W
HStem: -204 118<669.4 1197.2> 130 137<829.867 1101.4> 1034 138<821.467 1104> 1391 119<666.8 1199.8>
VStem: 86 114<384.067 917.933> 428 186<491.533 806.133> 1662 116<383.2 924>
CounterMasks: 2 00 00
Fore
932 1510 m 0
 1169.33 1510 1369.33 1426.67 1532 1260 c 0
 1696 1093 1778 890 1778 651 c 0
 1778 413.667 1695.67 211.667 1531 45 c 0
 1366.33 -121 1166.67 -204 932 -204 c 0
 697 -204 497 -121 332 45 c 0
 168 212 86 414 86 651 c 0
 86 889.667 167.667 1092.67 331 1260 c 0
 495 1426.67 695.333 1510 932 1510 c 0
932 1391 m 0
 728 1391 555 1319 413 1175 c 0
 271 1031 200 856.333 200 651 c 0
 200 445.667 271.333 271.667 414 129 c 0
 557.333 -14.3333 730 -86 932 -86 c 0
 1136 -86 1308.67 -15 1450 127 c 0
 1591.33 270.333 1662 445 1662 651 c 0
 1662 861 1591.67 1036.33 1451 1177 c 0
 1311 1319.67 1138 1391 932 1391 c 0
1273 1108 m 1
 1273 959 l 1
 1173.67 1009 1074 1034 974 1034 c 0
 856.667 1034 766.667 999.667 704 931 c 0
 644 863.667 614 770.333 614 651 c 0
 614 528.333 646 433.667 710 367 c 0
 774 300.333 865.667 267 985 267 c 0
 1081.67 267 1177.67 291.667 1273 341 c 1
 1273 196 l 1
 1173 152 1069 130 961 130 c 0
 795.667 130 666.667 175.333 574 266 c 0
 476.667 358 428 486.333 428 651 c 0
 428 815.667 476.667 943.667 574 1035 c 0
 669.333 1126.33 798.333 1172 961 1172 c 0
 1071 1172 1175 1150.67 1273 1108 c 1
EndSplineSet
EndChar
StartChar: ordfeminine
Encoding: 170 170 105
Width: 1010
Flags: W
HStem: 544 140<392.106 569.4> 1025 135<420.034 721> 1381 135<355.667 687.267>
VStem: 115 158<780.933 951.667> 721 160<567 699 902 1025>
CounterMasks: 1 00
Fore
881 1096 m 2
 881 567 l 1
 721 567 l 1
 721 699 l 1
 655.667 595.667 554.333 544 417 544 c 0
 330.333 544 259.333 568.667 204 618 c 0
 144.667 670 115 743 115 837 c 0
 115 1052.33 251.333 1160 524 1160 c 2
 721 1160 l 1
 721 1165 l 2
 721 1309 636.667 1381 468 1381 c 0
 374 1381 278 1354 180 1300 c 1
 180 1449 l 1
 283.333 1493.67 386.667 1516 490 1516 c 0
 750.667 1516 881 1376 881 1096 c 2
721 1025 m 1
 583 1025 l 2
 490 1025 424 1018 385 1004 c 0
 310.333 979.333 273 928.667 273 852 c 0
 273 797.333 293.667 754.333 335 723 c 0
 370.333 697 414.667 684 468 684 c 0
 546 684 608.333 714.333 655 775 c 0
 699 830.333 721 902 721 990 c 2
 721 1025 l 1
EndSplineSet
EndChar
StartChar: guillemotleft
Encoding: 171 171 106
Width: 1174
Flags: W
HStem: 170 967<1055 1055>
VStem: 102 953<697 1137>
Fore
560 697 m 1
 1055 1137 l 1
 1055 936 l 1
 737 654 l 1
 1055 371 l 1
 1055 170 l 1
 560 610 l 1
 560 697 l 1
102 697 m 1
 597 1137 l 1
 597 936 l 1
 279 654 l 1
 597 371 l 1
 597 170 l 1
 102 610 l 1
 102 697 l 1
EndSplineSet
EndChar
StartChar: logicalnot
Encoding: 172 172 107
Width: 1491
Flags: W
HStem: 602 158<158 1153>
VStem: 1153 171<57 602>
Fore
158 602 m 1
 158 760 l 1
 1324 762 l 1
 1324 57 l 1
 1153 57 l 1
 1153 602 l 1
 158 602 l 1
EndSplineSet
EndChar
StartChar: registered
Encoding: 174 174 108
Width: 1903
Flags: W
HStem: -218 119<682.8 1217.53> 593 117<774 914.133> 1033 120<773 1037.18> 1396 120<677.2 1216.27>
VStem: 87 115<379.067 917.7> 592 181<177 593 710 1033> 1144 186<783.9 957.667> 1691 117<375.6 920.733>
CounterMasks: 2 00 00
Fore
945 1396 m 0
 739 1396 563.333 1323 418 1177 c 0
 273 1032 201 855 202 646 c 0
 202 440.667 275 265 421 119 c 0
 568.333 -26.3333 744 -99 948 -99 c 0
 1155.33 -99 1331 -27 1475 117 c 0
 1619 261.667 1691 438 1691 646 c 0
 1690.33 857.333 1618 1035 1474 1179 c 0
 1330 1323.67 1153.67 1396 945 1396 c 0
945 1516 m 0
 1187 1516 1391 1431.67 1557 1263 c 0
 1723 1094.33 1806.67 888.667 1808 646 c 0
 1808 407.333 1724.33 203.333 1557 34 c 0
 1390 -134 1187 -218 948 -218 c 0
 708 -218 504.333 -134 337 34 c 0
 170.333 202.667 87 406.667 87 646 c 0
 86.3333 886.667 168.667 1092.33 334 1263 c 0
 500 1431.67 703.667 1516 945 1516 c 0
915 1033 m 2
 773 1033 l 1
 773 710 l 1
 915 710 l 2
 988.333 710 1041.67 718.667 1075 736 c 0
 1121 759 1144 804 1144 871 c 0
 1144 937.667 1121 983 1075 1007 c 0
 1043.67 1024.33 990.333 1033 915 1033 c 2
592 1153 m 1
 922 1153 l 2
 1194 1153 1330 1059.67 1330 873 c 0
 1330 733.667 1252.67 649.667 1098 621 c 1
 1136.67 608.333 1189.33 546.667 1256 436 c 2
 1415 177 l 1
 1215 177 l 1
 1065 421 l 2
 1030.33 478.333 1002 518 980 540 c 0
 942.667 575.333 899.333 593 850 593 c 2
 774 593 l 1
 774 177 l 1
 593 177 l 1
 592 1153 l 1
EndSplineSet
EndChar
StartChar: overscore
Encoding: 175 175 109
AltUni: 713
Width: 1118
Flags: W
HStem: 1671 135<-16 989>
Fore
-16 1806 m 1
 989 1806 l 1
 989 1671 l 1
 -16 1671 l 1
 -16 1806 l 1
EndSplineSet
EndChar
StartChar: degree
Encoding: 176 176 110
Width: 965
Flags: W
HStem: 755 155<403.333 574.933> 1373 158<402.467 575.8>
VStem: 100 155<1054.07 1226.53> 723 157<1054.07 1225.67>
Fore
490 1373 m 0
 422.667 1373 366.667 1350.67 322 1306 c 0
 277.333 1262 255 1206.33 255 1139 c 0
 255 1073.67 277.333 1019 322 975 c 0
 367.333 931.667 423.333 910 490 910 c 0
 555.333 910 610.667 931.667 656 975 c 0
 700.667 1019 723 1073.67 723 1139 c 0
 723 1205.67 700.667 1261.33 656 1306 c 0
 611.333 1350.67 556 1373 490 1373 c 0
490 1531 m 0
 599.333 1531 691.667 1493 767 1417 c 0
 842.333 1339.67 880 1247 880 1139 c 0
 880 1029 842.333 937.333 767 864 c 0
 692.333 791.333 599.333 755 488 755 c 0
 374.667 755 281.333 791 208 863 c 0
 136 935 100 1027 100 1139 c 0
 100 1250 137 1343 211 1418 c 0
 285 1493.33 378 1531 490 1531 c 0
EndSplineSet
EndChar
StartChar: plusminus
Encoding: 177 177 111
Width: 1491
Flags: W
HStem: 151 167<162 1386> 864 167<162 694 854 1386>
VStem: 694 160<485 864 1031 1411>
Fore
694 1411 m 1
 854 1411 l 1
 854 1031 l 1
 1386 1031 l 1
 1386 864 l 1
 854 864 l 1
 854 485 l 1
 694 485 l 1
 694 864 l 1
 162 864 l 1
 162 1031 l 1
 694 1031 l 1
 694 1411 l 1
162 151 m 1
 162 318 l 1
 1386 318 l 1
 1386 151 l 1
 162 151 l 1
EndSplineSet
EndChar
StartChar: twosuperior
Encoding: 178 178 112
Width: 1010
Flags: W
HStem: 566 128<377 846> 1398 122<376.8 543.972>
VStem: 672 168<1147.2 1304.93>
Fore
377 694 m 1
 846 694 l 1
 846 566 l 1
 184 566 l 1
 184 689 l 1
 291 787 l 2
 545 1018.33 672 1167 672 1233 c 0
 672 1288.33 650 1330.67 606 1360 c 0
 567.333 1385.33 519.667 1398 463 1398 c 0
 387.667 1398 297 1372 191 1320 c 1
 191 1457 l 1
 303.667 1499 402 1520 486 1520 c 0
 582 1520 662 1500 726 1460 c 0
 802 1412 840 1342.33 840 1251 c 0
 840 1148.33 717.667 990.667 473 778 c 2
 377 694 l 1
EndSplineSet
EndChar
StartChar: threesuperior
Encoding: 179 179 113
Width: 1010
Flags: W
HStem: 551 121<335.904 643.733> 1005 120<355 628.2> 1394 121<361.324 597.1>
VStem: 655 159<1143.13 1376.27> 676 160<694.133 982.733>
Fore
633 1070 m 1xf0
 768.333 1042 836 964.667 836 838 c 0
 836 646.667 707.333 551 450 551 c 0
 372.667 551 284 566.333 184 597 c 1
 184 731 l 1
 255.333 691.667 338.667 672 434 672 c 0
 595.333 672 676 727.333 676 838 c 0xe8
 676 949.333 599.333 1005 446 1005 c 2
 355 1005 l 1
 355 1125 l 1
 454 1125 l 2
 588 1125 655 1170.33 655 1261 c 0
 655 1349.67 586.667 1394 450 1394 c 0
 393.333 1394 315 1378.67 215 1348 c 1
 215 1476 l 1
 319.667 1502 409.333 1515 484 1515 c 0
 571 1515 643.889 1497.81 703 1464 c 0
 776.862 1421.76 814 1358.33 814 1273 c 0
 814 1165.67 753.667 1098 633 1070 c 1xf0
EndSplineSet
EndChar
StartChar: acute
Encoding: 180 180 114
Width: 1118
Flags: W
HStem: 1302 375<449 686>
VStem: 449 459<1302 1677>
Fore
449 1302 m 1
 686 1677 l 1
 908 1677 l 1
 633 1302 l 1
 449 1302 l 1
EndSplineSet
EndChar
StartChar: paragraph
Encoding: 182 182 115
Width: 1118
Flags: W
HStem: 1355 134<643 832>
VStem: 504 139<-363 565> 832 140<-363 1355>
Fore
527 1489 m 2
 972 1489 l 1
 972 -363 l 1
 832 -363 l 1
 832 1355 l 1
 643 1355 l 1
 643 -363 l 1
 504 -363 l 1
 504 565 l 1
 369.333 577 263.333 618.667 186 690 c 0
 100 771.333 57 883.667 57 1027 c 0
 57 1174.33 103 1290 195 1374 c 0
 281.667 1450.67 392.333 1489 527 1489 c 2
EndSplineSet
EndChar
StartChar: ch269
Encoding: 65536 -1 116
Width: 651
Flags: W
HStem: 584 254<220 431>
VStem: 220 211<584 838>
Fore
220 838 m 1
 431 838 l 1
 431 584 l 1
 220 584 l 1
 220 838 l 1
EndSplineSet
EndChar
StartChar: cedilla
Encoding: 184 184 117
Width: 1118
Flags: W
HStem: -395 123<349.125 547.133> -20 20G<475 594>
VStem: 563 140<-259.467 -133.533>
Fore
594 0 m 1
 666.667 -80.6667 703 -152.333 703 -215 c 0
 703 -335 623.667 -395 465 -395 c 0
 404.333 -395 345.667 -387 289 -371 c 1
 289 -240 l 1
 333.667 -261.333 385.333 -272 444 -272 c 0
 523.333 -272 563 -240.667 563 -178 c 0
 563 -138 533.667 -78.6667 475 0 c 1
 594 0 l 1
EndSplineSet
EndChar
StartChar: onesuperior
Encoding: 185 185 118
Width: 1010
Flags: W
HStem: 561 124<268 474 619 827>
VStem: 474 145<685 1374>
Fore
268 685 m 1
 474 685 l 1
 474 1374 l 1
 248 1328 l 1
 248 1459 l 1
 480 1503 l 1
 619 1503 l 1
 619 685 l 1
 827 685 l 1
 827 561 l 1
 268 561 l 1
 268 685 l 1
EndSplineSet
EndChar
StartChar: ordmasculine
Encoding: 186 186 119
Width: 1010
Flags: W
HStem: 549 138<388.267 599.3> 1378 135<386.533 599.733>
VStem: 86 164<909.533 1154.8> 735 163<905.2 1154.8>
Fore
494 1513 m 0
 623 1513 723 1468 794 1378 c 0
 863.333 1290.67 898 1174.67 898 1030 c 0
 898 884 863.333 768.333 794 683 c 0
 722.667 593.667 622.667 549 494 549 c 0
 363.333 549 262.333 593.667 191 683 c 0
 121 767.667 86 883.333 86 1030 c 0
 86 1176 121 1292 191 1378 c 0
 262 1468 363 1513 494 1513 c 0
494 1378 m 0
 411.333 1378 348.333 1341.33 305 1268 c 0
 268.333 1205.33 250 1126 250 1030 c 0
 250 937.333 268.667 859.333 306 796 c 0
 350 723.333 412.667 687 494 687 c 0
 575 687 637 723 680 795 c 0
 716.667 855.667 735 934 735 1030 c 0
 735 1126 717 1205.33 681 1268 c 0
 637.667 1341.33 575.333 1378 494 1378 c 0
EndSplineSet
EndChar
StartChar: guillemotright
Encoding: 187 187 120
Width: 1174
Flags: W
HStem: 161 952<131 131>
VStem: 131 947<679 915>
Fore
131 915 m 1
 131 1113 l 1
 623 679 l 1
 623 595 l 1
 131 161 l 1
 131 359 l 1
 447 637 l 1
 131 915 l 1
586 915 m 1
 586 1113 l 1
 1078 679 l 1
 1078 595 l 1
 586 161 l 1
 586 359 l 1
 902 637 l 1
 586 915 l 1
EndSplineSet
EndChar
StartChar: onequarter
Encoding: 188 188 121
Width: 2048
Flags: W
HStem: 241 109<1219 1528 1672 1807> 561 124<190 396 541 749>
VStem: 396 145<685 1374> 1528 144<55 241 350 769>
Fore
190 685 m 1
 396 685 l 1
 396 1374 l 1
 170 1328 l 1
 170 1459 l 1
 402 1503 l 1
 541 1503 l 1
 541 685 l 1
 749 685 l 1
 749 561 l 1
 190 561 l 1
 190 685 l 1
1114 362 m 1
 1506 890 l 1
 1672 890 l 1
 1672 350 l 1
 1807 350 l 1
 1807 241 l 1
 1672 241 l 1
 1672 55 l 1
 1528 55 l 1
 1528 241 l 1
 1114 241 l 1
 1114 362 l 1
1528 350 m 1
 1528 769 l 1
 1219 350 l 1
 1528 350 l 1
1343 1510 m 1
 1503 1510 l 1
 571 -39 l 1
 411 -39 l 1
 1343 1510 l 1
EndSplineSet
Ligature: 0 0 'frac' one slash four
Ligature: 0 0 'frac' one fraction four
LCarets: 0 65535 '    ' 2 0 0
EndChar
StartChar: onehalf
Encoding: 189 189 122
Width: 2048
Flags: W
HStem: 6 128<1521 1990> 561 124<190 396 541 749> 838 122<1520.8 1687.97>
VStem: 396 145<685 1374> 1816 168<587.2 744.933>
Fore
1428 1564 m 1
 1588 1564 l 1
 656 15 l 1
 496 15 l 1
 1428 1564 l 1
190 685 m 1
 396 685 l 1
 396 1374 l 1
 170 1328 l 1
 170 1459 l 1
 402 1503 l 1
 541 1503 l 1
 541 685 l 1
 749 685 l 1
 749 561 l 1
 190 561 l 1
 190 685 l 1
1521 134 m 1
 1990 134 l 1
 1990 6 l 1
 1328 6 l 1
 1328 129 l 1
 1435 227 l 2
 1689 458.333 1816 607 1816 673 c 0
 1816 728.333 1794 770.667 1750 800 c 0
 1711.33 825.333 1663.67 838 1607 838 c 0
 1531.67 838 1441 812 1335 760 c 1
 1335 897 l 1
 1447.67 939 1546 960 1630 960 c 0
 1726 960 1806 940 1870 900 c 0
 1946 852 1984 782.333 1984 691 c 0
 1984 588.333 1861.67 430.667 1617 218 c 2
 1521 134 l 1
EndSplineSet
Ligature: 0 0 'frac' one slash two
Ligature: 0 0 'frac' one fraction two
LCarets: 0 65535 '    ' 2 0 0
EndChar
StartChar: threequarters
Encoding: 190 190 123
Width: 2048
Flags: W
HStem: 240 109<1247 1556 1700 1835> 551 121<290.904 598.733> 1005 120<310 583.2> 1394 121<316.942 552.1>
VStem: 610 159<1143.13 1376.27> 631 160<694.133 982.733> 1556 144<54 240 349 768>
Fore
588 1070 m 1xfa
 723.333 1042 791 964.667 791 838 c 0
 791 646.667 662.333 551 405 551 c 0
 327.667 551 239 566.333 139 597 c 1
 139 731 l 1
 210.333 691.667 293.667 672 389 672 c 0
 550.333 672 631 727.333 631 838 c 0xf6
 631 949.333 554.333 1005 401 1005 c 2
 310 1005 l 1
 310 1125 l 1
 409 1125 l 2
 543 1125 610 1170.33 610 1261 c 0
 610 1349.67 541.667 1394 405 1394 c 0
 348.333 1394 270 1378.67 170 1348 c 1
 170 1476 l 1
 275.333 1502 365 1515 439 1515 c 0
 526 1515 598.889 1497.81 658 1464 c 0
 731.862 1421.76 769 1358.33 769 1273 c 0
 769 1165.67 708.667 1098 588 1070 c 1xfa
1414 1515 m 1
 1574 1515 l 1
 642 -34 l 1
 482 -34 l 1
 1414 1515 l 1
1142 361 m 1
 1534 889 l 1
 1700 889 l 1
 1700 349 l 1
 1835 349 l 1
 1835 240 l 1
 1700 240 l 1
 1700 54 l 1
 1556 54 l 1
 1556 240 l 1
 1142 240 l 1
 1142 361 l 1
1556 349 m 1
 1556 768 l 1
 1247 349 l 1
 1556 349 l 1
EndSplineSet
Ligature: 0 0 'frac' three slash four
Ligature: 0 0 'frac' three fraction four
LCarets: 0 65535 '    ' 2 0 0
EndChar
StartChar: questiondown
Encoding: 191 191 124
Width: 971
Flags: W
HStem: -29 164<411.6 636.067> 1239 254<408 610>
VStem: 57 203<249.933 412> 414 190<833.03 1092 1239 1493>
Fore
414 969 m 2
 414 1092 l 1
 604 1092 l 1
 604 936 l 2
 604 864 592.667 805.333 570 760 c 0
 549.333 718 512.333 670.667 459 618 c 2
 369 530 l 2
 296.333 459.333 260 394 260 334 c 0
 260 269.333 284.667 219 334 183 c 0
 376.667 151 432 135 500 135 c 0
 604.667 135 722.667 180.667 854 272 c 1
 854 84 l 1
 728.667 8.66667 599 -29 465 -29 c 0
 347 -29 251.667 0 179 58 c 0
 97.6667 121.333 57 210 57 324 c 0
 57 418.667 111 518.333 219 623 c 2
 307 709 l 2
 332 734 350 753 361 766 c 0
 381 790.667 394.333 813.333 401 834 c 0
 409.667 858 414 903 414 969 c 2
610 1493 m 1
 610 1239 l 1
 408 1239 l 1
 408 1493 l 1
 610 1493 l 1
EndSplineSet
KernsSLIFO: 43 31 0 0
EndChar
StartChar: Agrave
Encoding: 192 192 125
Width: 1229
Flags: W
HStem: 0 21G<-10 190 1029 1238> 416 169<380 839>
Fore
290 1961 m 1
 477 1961 l 1
 673 1697 l 1
 520 1697 l 1
 290 1961 l 1
839 585 m 1
 614 1294 l 1
 380 585 l 1
 839 585 l 1
-10 0 m 1
 500 1493 l 1
 729 1493 l 1
 1238 0 l 1
 1029 0 l 1
 894 416 l 1
 325 416 l 1
 190 0 l 1
 -10 0 l 1
EndSplineSet
EndChar
StartChar: Aring
Encoding: 197 197 130
Width: 1229
Flags: W
HStem: 0 21G<-10 185 1044 1236> 399 175<365 862> 1851 128<549.324 667.479>
VStem: 322 129<1634.69 1751.91> 769 129<1635.29 1749.95>
Fore
769 1693 m 0
 769 1735.67 753.333 1772.67 722 1804 c 0
 690.667 1835.33 653 1851 609 1851 c 0
 563.667 1851 526 1835.67 496 1805 c 0
 466 1775 451 1737.67 451 1693 c 0
 451 1649 466.333 1611.67 497 1581 c 0
 528.333 1551 565.667 1536 609 1536 c 0
 653.667 1536 691.333 1551 722 1581 c 0
 753.333 1612.33 769 1649.67 769 1693 c 0
862 574 m 1
 609 1347 l 1
 365 574 l 1
 862 574 l 1
-10 0 m 1
 451 1454 l 1
 365 1512 322 1591.67 322 1693 c 0
 322 1774 349 1842 403 1897 c 0
 457.667 1951.67 526.333 1979 609 1979 c 0
 691 1979 759.667 1951.33 815 1896 c 0
 870.333 1840.67 898 1773 898 1693 c 0
 898 1592.33 855 1512.67 769 1454 c 1
 1236 0 l 1
 1044 0 l 1
 921 399 l 1
 308 399 l 1
 185 0 l 1
 -10 0 l 1
EndSplineSet
EndChar
StartChar: AE
Encoding: 198 198 131
Width: 1870
Flags: W
HStem: 0 170<1076 1800> 383 168<391 890> 711 170<1076 1752> 1323 170<1076 1782> 1335 158<718 890>
VStem: 890 186<170 383 551 711 881 1323>
Fore
890 1335 m 1xec
 718 1335 l 1
 391 551 l 1
 890 551 l 1
 890 1335 l 1xec
580 1493 m 1
 1782 1493 l 1
 1782 1323 l 1
 1076 1323 l 1xf4
 1076 881 l 1
 1752 881 l 1
 1752 711 l 1
 1076 711 l 1
 1076 170 l 1
 1800 170 l 1
 1800 0 l 1
 890 0 l 1
 890 383 l 1
 323 383 l 1
 164 0 l 1
 -39 0 l 1
 580 1493 l 1
EndSplineSet
EndChar
StartChar: Ccedilla
Encoding: 199 199 132
Width: 1231
Flags: W
HStem: -389 123<594.3 792.133> -40 20G<711 739>
VStem: 66 206<186.459 1147.2> 808 140<-253.467 -135.333>
Fore
711 -20 m 2
 272.07 0.10374 66 316.507 66 750 c 0
 66 1158.11 238.829 1345.83 377.5 1427 c 0
 526.794 1514.39 790.903 1560.67 989.5 1489 c 0
 1053.09 1466.05 1075.2 1458.31 1196 1397 c 1
 1196 1158 l 1
 981.577 1337.82 802.285 1363.53 711 1353 c 0
 411 1315.67 264.667 1114.67 272 750 c 0
 272 295.506 509.995 174.646 711 151 c 0
 849.667 135 1011.33 199.333 1196 344 c 1
 1196 108 l 1
 1092.67 44.6667 979 4.66667 855 -12 c 1
 917 -86.6667 948 -152.333 948 -209 c 0
 948 -329 868.667 -389 710 -389 c 0
 650 -389 591.333 -381 534 -365 c 1
 534 -234 l 1
 578.667 -255.333 630.333 -266 689 -266 c 0
 768.333 -266 808 -234.667 808 -172 c 0
 808 -136.667 785 -86 739 -20 c 1
 711 -20 l 2
EndSplineSet
KernsSLIFO: 238 -47 0 0 237 -47 0 0 214 -25 0 0 14 -47 0 0
EndChar
StartChar: Egrave
Encoding: 200 200 133
Width: 1149
Flags: W
HStem: 0 176<350 1083> 729 176<350 1033> 1313 176<350 1083>
VStem: 152 198<176 729 905 1313>
Fore
368 1980 m 1
 555 1980 l 1
 751 1716 l 1
 598 1716 l 1
 368 1980 l 1
152 0 m 1
 152 1489 l 1
 1083 1489 l 1
 1083 1313 l 1
 350 1313 l 1
 350 905 l 1
 1033 905 l 1
 1033 729 l 1
 350 729 l 1
 350 176 l 1
 1083 176 l 1
 1083 0 l 1
 152 0 l 1
EndSplineSet
EndChar
StartChar: Igrave
Encoding: 204 204 137
Width: 764
Flags: W
HStem: 0 152<92 280 478 670> 1337 152<92 280 478 670>
VStem: 280 198<152 1337>
Fore
112 1899 m 1
 299 1899 l 1
 497 1635 l 1
 342 1635 l 1
 112 1899 l 1
92 1489 m 1
 670 1489 l 1
 670 1337 l 1
 478 1337 l 1
 478 152 l 1
 670 152 l 1
 670 0 l 1
 92 0 l 1
 92 152 l 1
 280 152 l 1
 280 1337 l 1
 92 1337 l 1
 92 1489 l 1
EndSplineSet
EndChar
StartChar: Icircumflex
Encoding: 206 206 139
Width: 764
Flags: W
HStem: 0 152<126 314 512 704> 1337 152<126 314 512 704>
VStem: 314 198<152 1337>
Fore
126 1489 m 1
 704 1489 l 1
 704 1337 l 1
 512 1337 l 1
 512 152 l 1
 704 152 l 1
 704 0 l 1
 126 0 l 1
 126 152 l 1
 314 152 l 1
 314 1337 l 1
 126 1337 l 1
 126 1489 l 1
299 2053 m 1
 515 2053 l 1
 745 1669 l 1
 585 1669 l 1
 403 1926 l 1
 203 1669 l 1
 43 1669 l 1
 299 2053 l 1
EndSplineSet
EndChar
StartChar: Idieresis
Encoding: 207 207 140
Width: 764
Flags: W
HStem: 0 152<122 310 508 700> 1337 152<122 310 508 700> 1677 203<76 279 489 692>
VStem: 76 203<1677 1880> 310 198<152 1337> 489 203<1677 1880>
Fore
76 1677 m 1xf0
 76 1880 l 1
 279 1880 l 1
 279 1677 l 1
 76 1677 l 1xf0
489 1677 m 1xf4
 489 1880 l 1
 692 1880 l 1
 692 1677 l 1
 489 1677 l 1xf4
122 1489 m 1
 700 1489 l 1
 700 1337 l 1
 508 1337 l 1
 508 152 l 1
 700 152 l 1
 700 0 l 1
 122 0 l 1
 122 152 l 1
 310 152 l 1
 310 1337 l 1xf8
 122 1337 l 1
 122 1489 l 1
EndSplineSet
EndChar
StartChar: Eth
Encoding: 208 208 141
Width: 1430
Flags: W
HStem: 0 166<385 854.533> 739 144<25 188 391 711> 1327 166<385 854.1>
VStem: 188 203<166 739 883 1327> 1181 186<482.133 1005.6>
Fore
188 883 m 1
 182 1493 l 1
 598 1493 l 2
 838 1493 1016.33 1438.67 1133 1330 c 0
 1289 1206 1367 1010.33 1367 743 c 0
 1367 475 1289.33 282 1134 164 c 0
 1016.67 54.6667 838 -3.46945e-18 598 0 c 2
 182 0 l 1
 188 739 l 1
 25 740 l 1
 25 884 l 1
 188 883 l 1
624 1327 m 2
 385 1327 l 1
 391 883 l 1
 711 883 l 1
 711 739 l 1
 391 739 l 1
 385 166 l 1
 624 166 l 2
 801.333 166 944.333 210.333 1053 299 c 1
 1138.33 394.333 1181 542.333 1181 743 c 0
 1181 945 1138.33 1092.67 1053 1186 c 0
 944 1280 801 1327 624 1327 c 2
EndSplineSet
EndChar
StartChar: Ograve
Encoding: 210 210 143
Width: 1450
Flags: W
HStem: 1345 170<486.673 862.285>
VStem: 66 204<367.578 1031.53>
Fore
385 1957 m 1
 572 1957 l 1
 768 1693 l 1
 615 1693 l 1
 385 1957 l 1
906.5 1494 m 0
 1451.58 1355.63 1448.32 631.789 1292.5 316 c 0
 1075.34 -124.11 553.765 -78.9474 334.5 89 c 0
 230.093 168.971 66 342.532 66 724 c 0
 66 1078.75 170.663 1495.69 701 1515 c 0
 772.333 1517.67 840.833 1510.67 906.5 1494 c 0
913 182.5 m 0
 1271.58 352.711 1198.7 964.267 1077.5 1157 c 0
 992.412 1292.3 869.686 1340.99 715 1345 c 0
 539.364 1346.67 256.189 1253.57 270 727 c 0
 276.572 431.27 376.208 133.931 742 143 c 0
 803.333 144.333 860.333 157.5 913 182.5 c 0
EndSplineSet
EndChar
StartChar: Odieresis
Encoding: 214 214 147
Width: 1450
Flags: W
HStem: -29 172<251.12 967.16> 1345 170<483.6 1161.79> 1682 203<407 610 820 1023>
VStem: 66 204<359.084 1409.94> 407 203<1682 1885> 820 203<1682 1885> 1175 206<112.364 1185.08>
Fore
820 1682 m 1
 820 1885 l 1
 1023 1885 l 1
 1023 1682 l 1
 820 1682 l 1
407 1682 m 1
 407 1885 l 1
 610 1885 l 1
 610 1682 l 1
 407 1682 l 1
66 724 m 0
 66 1411.11 447.044 1515.04 701 1515 c 0
 1122.31 1514.94 1381 1228.66 1381 723 c 0
 1381 129.637 1005.72 -29 722 -29 c 0
 197.2 -29 66 411.013 66 724 c 0
742 143 m 0
 915.2 143 1175 258.126 1175 744 c 0
 1175 1083.29 1058.68 1345 715 1345 c 0
 537 1345 270 1252.34 270 727 c 0
 270 443.987 364.4 143 742 143 c 0
EndSplineSet
EndChar
StartChar: multiply
Encoding: 215 215 148
Width: 1491
Flags: W
Fore
1184 1192 m 1
 1296 1079 l 1
 865 652 l 1
 1296 226 l 1
 1184 113 l 1
 753 541 l 1
 320 113 l 1
 209 226 l 1
 639 652 l 1
 209 1079 l 1
 320 1192 l 1
 753 764 l 1
 1184 1192 l 1
EndSplineSet
EndChar
StartChar: Oslash
Encoding: 216 216 149
Width: 1450
Flags: W
HStem: -34 165<573.867 927.467> 1355 165<531.4 885>
VStem: 78 201<540.067 963.867> 1178 201<520.133 938.733>
Fore
1105 1111 m 1
 430 262 l 1
 510 174.667 609.667 131 729 131 c 0
 881.667 131 997.667 194.667 1077 322 c 0
 1144.33 431.333 1178 571.333 1178 742 c 0
 1178 893.333 1153.67 1016.33 1105 1111 c 1
352 373 m 1
 1028 1224 l 1
 948.667 1311.33 849 1355 729 1355 c 0
 577 1355 461 1291 381 1163 c 0
 313 1053 279 912.667 279 742 c 0
 279 586.667 303.333 463.667 352 373 c 1
66 13 m 1
 226 215 l 1
 127.333 351.667 78 527.333 78 742 c 0
 78 971.333 132.333 1155.33 241 1294 c 0
 357 1444.67 519.667 1520 729 1520 c 0
 893.667 1520 1031.33 1469 1142 1367 c 1
 1294 1559 l 1
 1390 1470 l 1
 1230 1271 l 1
 1329.33 1129.67 1379 953.333 1379 742 c 0
 1379 515 1325 332 1217 193 c 0
 1099.67 41.6667 937 -34 729 -34 c 0
 567.667 -34 429.667 16.3333 315 117 c 1
 163 -75 l 1
 66 13 l 1
EndSplineSet
KernsSLIFO: 248 -29 0 0 59 -18 0 0 58 -18 0 0 57 -10 0 0 53 -47 0 0 15 -29 0 0 13 -29 0 0
EndChar
StartChar: Ugrave
Encoding: 217 217 150
Width: 1343
Flags: W
HStem: -29 164<523.867 886.133>
VStem: 166 198<1119.99 1489> 166 191<418.199 1379.68> 1042 201<417.44 1489>
Fore
166 561 m 2xb0
 166 1489 l 1
 364 1489 l 1xd0
 357 595 l 2
 363 434.333 380.333 323.333 409 262 c 1
 467 177.333 565.667 135 705 135 c 0
 844.333 135 943 177.333 1001 262 c 1
 1028.33 336.667 1041.54 444.001 1042 584 c 2
 1045 1489 l 1
 1243 1489 l 1
 1243 560 l 2
 1265 167.333 1085.67 -29 705 -29 c 0
 323.667 -29 144 167.667 166 561 c 2xb0
486 1919 m 1
 673 1919 l 1
 869 1655 l 1
 716 1655 l 1
 486 1919 l 1
EndSplineSet
EndChar
StartChar: Thorn
Encoding: 222 222 155
Width: 1157
Flags: W
HStem: -4 21G<152 346> 334 166<346 707.133> 1059 166<346 591>
VStem: 152 194<-4 334 500 1059 1225 1489> 875 205<662.133 1021.8>
Fore
152 -4 m 1
 152 1489 l 1
 346 1489 l 1
 346 1225 l 1
 591 1225 l 2
 917 1225 1080 1076.67 1080 780 c 0
 1080 482.667 917 334 591 334 c 2
 346 334 l 1
 346 -4 l 1
 152 -4 l 1
591 1059 m 2
 346 1059 l 1
 346 500 l 1
 591 500 l 2
 680.333 500 750 524 800 572 c 0
 850 620 875 689.333 875 780 c 0
 875 966 780.333 1059 591 1059 c 2
EndSplineSet
EndChar
StartChar: germandbls
Encoding: 223 223 156
Width: 1122
Flags: W
HStem: -29 153<570.733 860.2> 1400 152<387.6 736.467>
VStem: 135 172<0 1271.33> 490 167<800.133 974.133> 889 173<148.933 378.336>
Fore
135 0 m 1
 135 1134 l 2
 135 1271.33 174 1376.67 252 1450 c 0
 325.333 1518 426 1552 554 1552 c 0
 813.333 1552 945 1400.33 949 1097 c 1
 754.333 1086.33 657 1013.67 657 879 c 0
 657 818.333 694.333 761.667 769 709 c 2
 822 673 l 2
 904 614 960 567 990 532 c 0
 1038 475 1062 406 1062 325 c 0
 1062 89 928.667 -29 662 -29 c 0
 584 -29 500.333 -12.6667 411 20 c 1
 411 184 l 1
 507 144 594.333 124 673 124 c 0
 817 124 889 186.333 889 311 c 0
 889 359.667 875 401.333 847 436 c 0
 828.333 457.333 793.333 484.667 742 518 c 2
 658 573 l 2
 546 646 490 741 490 858 c 0
 490 947.333 518.667 1021.67 576 1081 c 0
 627.333 1132.33 696 1167 782 1185 c 1
 770.667 1328.33 693.667 1400 551 1400 c 0
 388.333 1400 307 1310 307 1130 c 2
 307 0 l 1
 135 0 l 1
EndSplineSet
EndChar
StartChar: agrave
Encoding: 224 224 157
Width: 1075
Flags: W
HStem: -27 154<364.467 586.333> 565 144<463.341 767> 993 156<342.4 588.733>
VStem: 57 171<253.333 466.533> 767 171<0 172 416 565 709 815.667>
Fore
361 1638 m 1
 558 1638 l 1
 840 1264 l 1
 687 1264 l 1
 361 1638 l 1
767 565 m 1
 596 565 l 2
 484.667 565 403.667 555.333 353 536 c 0
 269.667 502.667 228 437.333 228 340 c 0
 228 273.333 248.333 221 289 183 c 0
 330.333 145.667 384.667 127 452 127 c 0
 555.333 127 635.667 168.667 693 252 c 0
 742.333 325.333 767 416 767 524 c 2
 767 565 l 1
938 641 m 2
 938 0 l 1
 767 0 l 1
 767 172 l 1
 690.333 39.3333 570 -27 406 -27 c 0
 297.333 -27 212 5 150 69 c 0
 88 133 57 219.333 57 328 c 0
 57 582 213.333 709 526 709 c 2
 767 709 l 1
 767 727 l 2
 767 815.667 739 883 683 929 c 0
 632.333 971.667 561.333 993 470 993 c 0
 350.667 993 238.333 962.333 133 901 c 1
 133 1071 l 1
 257.667 1123 376 1149 488 1149 c 0
 788 1149 938 979.667 938 641 c 2
EndSplineSet
EndChar
StartChar: aacute
Encoding: 225 225 158
Width: 1075
Flags: W
HStem: -27 154<364.467 586.333> 565 144<463.341 767> 993 156<342.4 588.733>
VStem: 57 171<253.333 466.533> 767 171<0 172 416 565 709 815.667>
Fore
361 1262 m 1
 641 1638 l 1
 840 1638 l 1
 514 1262 l 1
 361 1262 l 1
767 565 m 1
 596 565 l 2
 484.667 565 403.667 555.333 353 536 c 0
 269.667 502.667 228 437.333 228 340 c 0
 228 273.333 248.333 221 289 183 c 0
 330.333 145.667 384.667 127 452 127 c 0
 555.333 127 635.667 168.667 693 252 c 0
 742.333 325.333 767 416 767 524 c 2
 767 565 l 1
938 641 m 2
 938 0 l 1
 767 0 l 1
 767 172 l 1
 690.333 39.3333 570 -27 406 -27 c 0
 297.333 -27 212 5 150 69 c 0
 88 133 57 219.333 57 328 c 0
 57 582 213.333 709 526 709 c 2
 767 709 l 1
 767 727 l 2
 767 815.667 739 883 683 929 c 0
 632.333 971.667 561.333 993 470 993 c 0
 350.667 993 238.333 962.333 133 901 c 1
 133 1071 l 1
 257.667 1123 376 1149 488 1149 c 0
 788 1149 938 979.667 938 641 c 2
EndSplineSet
EndChar
StartChar: acircumflex
Encoding: 226 226 159
Width: 1075
Flags: W
HStem: -27 154<364.467 586.333> 565 144<463.341 767> 993 156<342.4 588.733>
VStem: 57 171<253.333 466.533> 767 171<0 172 416 565 709 815.667>
Fore
176 1268 m 1
 421 1644 l 1
 569 1644 l 1
 814 1268 l 1
 675 1268 l 1
 495 1513 l 1
 315 1268 l 1
 176 1268 l 1
767 565 m 1
 596 565 l 2
 484.667 565 403.667 555.333 353 536 c 0
 269.667 502.667 228 437.333 228 340 c 0
 228 273.333 248.333 221 289 183 c 0
 330.333 145.667 384.667 127 452 127 c 0
 555.333 127 635.667 168.667 693 252 c 0
 742.333 325.333 767 416 767 524 c 2
 767 565 l 1
938 641 m 2
 938 0 l 1
 767 0 l 1
 767 172 l 1
 690.333 39.3333 570 -27 406 -27 c 0
 297.333 -27 212 5 150 69 c 0
 88 133 57 219.333 57 328 c 0
 57 582 213.333 709 526 709 c 2
 767 709 l 1
 767 727 l 2
 767 815.667 739 883 683 929 c 0
 632.333 971.667 561.333 993 470 993 c 0
 350.667 993 238.333 962.333 133 901 c 1
 133 1071 l 1
 257.667 1123 376 1149 488 1149 c 0
 788 1149 938 979.667 938 641 c 2
EndSplineSet
EndChar
StartChar: adieresis
Encoding: 228 228 161
Width: 1075
Flags: W
HStem: -27 154<364.467 586.333> 565 144<423.543 767> 993 156<342.4 588.733> 1351 202<215 418 606 809>
VStem: 57 171<253.333 466.533> 215 203<1351 1553> 606 203<1351 1553> 767 171<0 172 416 565>
Fore
938 641 m 2xf9
 938 0 l 1
 767 0 l 1
 767 172 l 1
 690.333 39.3333 570 -27 406 -27 c 0
 297.333 -27 212 5 150 69 c 0
 88 133 57 219.333 57 328 c 0
 57 582 213.333 709 526 709 c 2
 767 709 l 1
 767 727 l 2
 767 815.667 739 883 683 929 c 0
 632.333 971.667 561.333 993 470 993 c 0
 350.667 993 238.333 962.333 133 901 c 1
 133 1071 l 1
 257.667 1123 376 1149 488 1149 c 0
 788 1149 938 979.667 938 641 c 2xf9
767 565 m 1
 596 565 l 2
 484.667 565 403.667 555.333 353 536 c 0
 269.667 502.667 228 437.333 228 340 c 0
 228 273.333 248.333 221 289 183 c 0
 330.333 145.667 384.667 127 452 127 c 0
 555.333 127 635.667 168.667 693 252 c 0
 742.333 325.333 767 416 767 524 c 2
 767 565 l 1
215 1351 m 1xf4
 215 1553 l 1
 418 1553 l 1
 418 1351 l 1
 215 1351 l 1xf4
606 1351 m 1xf2
 606 1553 l 1
 809 1553 l 1
 809 1351 l 1
 606 1351 l 1xf2
EndSplineSet
EndChar
StartChar: ae
Encoding: 230 230 163
Width: 1802
Flags: W
HStem: -29 154<390 622.7> -18 154<1020.93 1491.53> 527 143<930 1585> 563 144<493.698 819> 991 156<365.3 624.067> 1002 156<1148.53 1406.8>
VStem: 57 184<248.733 464.533> 1585 185<617 798.4>
Fore
819 563 m 1x93
 636 563 l 2
 516.667 563 429.667 553.333 375 534 c 0
 285.667 500.667 241 435.333 241 338 c 0
 241 269.333 264.346 216.015 311 178 c 0
 354.345 142.681 411 125 481 125 c 0
 590 125 675 165 736 245 c 0
 791.333 318.333 819 410.667 819 522 c 2
 819 563 l 1x93
888 970 m 1
 971.333 1095.33 1102 1158 1280 1158 c 0
 1438.67 1158 1561.33 1106.67 1648 1004 c 0
 1729.33 906.667 1770 777.667 1770 617 c 2
 1770 527 l 1
 924 527 l 1
 940.667 266.333 1073.67 136 1323 136 c 0
 1459.67 136 1594.33 171.333 1727 242 c 1
 1727 68 l 1
 1588.33 10.6667 1450.33 -18 1313 -18 c 0x67
 1088.33 -18 946.667 58.3333 888 211 c 1
 791 51 647 -29 456 -29 c 0
 337.333 -29 242.333 -0.333333 171 57 c 0
 95 119 57 208.667 57 326 c 0
 57 580 225 707 561 707 c 2
 819 707 l 1
 819 725 l 2
 819 815.667 787.52 883.801 725 930 c 0
 670.204 970.492 595.667 991 501 991 c 0
 373 991 252.333 960.333 139 899 c 1
 139 1069 l 1
 274 1121 401 1147 520 1147 c 0x9b
 717.333 1147 840 1088 888 970 c 1
930 670 m 1
 1585 671 l 1
 1584.33 769 1558.12 847.483 1507 907 c 0
 1452.77 970.138 1378 1002 1282 1002 c 0
 1179.33 1002 1097.33 972.832 1036 914.5 c 0
 974.668 856.166 939.333 774.667 930 670 c 1
EndSplineSet
EndChar
StartChar: ccedilla
Encoding: 231 231 164
Width: 944
Flags: W
HStem: -395 123<500.3 698.133> -22 156<435.2 657.901>
VStem: 82 194<337.3 751.133> 714 140<-259.467 -137>
Fore
932 1053 m 1
 932 896 l 1
 826.667 953.333 721.667 982 617 982 c 0
 490.333 982 406.333 951.333 365 890 c 0
 305.667 814.667 276 712.333 276 583 c 0
 261 440 283 331 342 256 c 1
 387.333 174.667 473 134 599 134 c 0
 706.333 134 808.333 174.333 905 255 c 1
 914 50 l 1
 863.333 25.3333 808.333 7 749 -5 c 1
 819 -85 854 -155 854 -215 c 0
 854 -335 774.667 -395 616 -395 c 0
 556 -395 497.333 -387 440 -371 c 1
 440 -240 l 1
 484.667 -261.333 536.333 -272 595 -272 c 0
 674.333 -272 714 -240.667 714 -178 c 0
 714 -141.333 689.667 -88.6667 641 -20 c 1
 613 -21.3333 592.333 -22 579 -22 c 0
 404.333 -22 278 32.3333 200 141 c 0
 106 245.667 66.6667 393 82 583 c 0
 82 763 134.667 902.667 240 1002 c 0
 327.333 1081.33 455 1127 623 1139 c 1
 729.667 1127.67 832.667 1099 932 1053 c 1
EndSplineSet
KernsSLIFO: 238 -18 0 0 237 -18 0 0 14 -18 0 0
EndChar
StartChar: egrave
Encoding: 232 232 165
Width: 1077
Flags: W
HStem: -41 157<380.5 780.467> 507 144<246 866> 985 157<448.133 698.6>
VStem: 866 174<598 775.933>
Fore
204 1642 m 1
 401 1642 l 1
 683 1268 l 1
 530 1268 l 1
 204 1642 l 1
1040 598 m 2
 1040 507 l 1
 240 507 l 1
 256 246.333 382 116 618 116 c 0
 749 116 876 151 999 221 c 1
 999 46 l 1
 871 -12 740.667 -41 608 -41 c 0
 433 -41 297 13 200 121 c 0
 106 224.333 59 364 59 540 c 0
 59 715.333 100.667 856.667 184 964 c 0
 276 1082.67 407.333 1142 578 1142 c 0
 730.667 1142 848 1088 930 980 c 0
 1003.33 882.667 1040 755.333 1040 598 c 2
246 651 m 1
 866 652 l 1
 864.667 747.333 841 825 795 885 c 0
 743 951.667 671 985 579 985 c 0
 478.333 985 399 954.333 341 893 c 0
 286.333 835.667 254.667 755 246 651 c 1
EndSplineSet
EndChar
StartChar: eacute
Encoding: 233 233 166
Width: 1077
Flags: W
HStem: -41 157<380.5 780.467> 507 144<246 866> 985 157<448.133 698.6>
VStem: 866 174<598 775.933>
Fore
469 1262 m 1
 749 1638 l 1
 948 1638 l 1
 622 1262 l 1
 469 1262 l 1
1040 598 m 2
 1040 507 l 1
 240 507 l 1
 256 246.333 382 116 618 116 c 0
 749 116 876 151 999 221 c 1
 999 46 l 1
 871 -12 740.667 -41 608 -41 c 0
 433 -41 297 13 200 121 c 0
 106 224.333 59 364 59 540 c 0
 59 715.333 100.667 856.667 184 964 c 0
 276 1082.67 407.333 1142 578 1142 c 0
 730.667 1142 848 1088 930 980 c 0
 1003.33 882.667 1040 755.333 1040 598 c 2
246 651 m 1
 866 652 l 1
 864.667 747.333 841 825 795 885 c 0
 743 951.667 671 985 579 985 c 0
 478.333 985 399 954.333 341 893 c 0
 286.333 835.667 254.667 755 246 651 c 1
EndSplineSet
EndChar
StartChar: ecircumflex
Encoding: 234 234 167
Width: 1077
Flags: W
HStem: -41 157<380.5 780.467> 507 144<246 866> 985 157<448.133 698.6>
VStem: 866 174<598 775.933>
Fore
243 1260 m 1
 488 1636 l 1
 636 1636 l 1
 881 1260 l 1
 742 1260 l 1
 562 1505 l 1
 382 1260 l 1
 243 1260 l 1
1040 598 m 2
 1040 507 l 1
 240 507 l 1
 256 246.333 382 116 618 116 c 0
 749 116 876 151 999 221 c 1
 999 46 l 1
 871 -12 740.667 -41 608 -41 c 0
 433 -41 297 13 200 121 c 0
 106 224.333 59 364 59 540 c 0
 59 715.333 100.667 856.667 184 964 c 0
 276 1082.67 407.333 1142 578 1142 c 0
 730.667 1142 848 1088 930 980 c 0
 1003.33 882.667 1040 755.333 1040 598 c 2
246 651 m 1
 866 652 l 1
 864.667 747.333 841 825 795 885 c 0
 743 951.667 671 985 579 985 c 0
 478.333 985 399 954.333 341 893 c 0
 286.333 835.667 254.667 755 246 651 c 1
EndSplineSet
EndChar
StartChar: edieresis
Encoding: 235 235 168
Width: 1077
Flags: W
HStem: -41 157<380.5 780.467> 507 144<246 866> 985 157<448.133 698.6> 1360 202<250 453 641 844>
VStem: 250 203<1360 1562> 641 203<1360 1562> 866 174<598 775.933>
Fore
641 1360 m 1
 641 1562 l 1
 844 1562 l 1
 844 1360 l 1
 641 1360 l 1
250 1360 m 1
 250 1562 l 1
 453 1562 l 1
 453 1360 l 1
 250 1360 l 1
1040 598 m 2
 1040 507 l 1
 240 507 l 1
 256 246.333 382 116 618 116 c 0
 749 116 876 151 999 221 c 1
 999 46 l 1
 871 -12 740.667 -41 608 -41 c 0
 433 -41 297 13 200 121 c 0
 106 224.333 59 364 59 540 c 0
 59 715.333 100.667 856.667 184 964 c 0
 276 1082.67 407.333 1142 578 1142 c 0
 730.667 1142 848 1088 930 980 c 0
 1003.33 882.667 1040 755.333 1040 598 c 2
246 651 m 1
 866 652 l 1
 864.667 747.333 841 825 795 885 c 0
 743 951.667 671 985 579 985 c 0
 478.333 985 399 954.333 341 893 c 0
 286.333 835.667 254.667 755 246 651 c 1
EndSplineSet
EndChar
StartChar: igrave
Encoding: 236 236 169
Width: 469
Flags: W
HStem: 0 21G<156 340> 1100 20G<156 340>
VStem: 156 184<0 1120>
Fore
-158 1642 m 1
 39 1642 l 1
 321 1268 l 1
 168 1268 l 1
 -158 1642 l 1
156 0 m 1
 156 1120 l 1
 340 1120 l 1
 340 0 l 1
 156 0 l 1
EndSplineSet
EndChar
StartChar: iacute
Encoding: 237 237 170
Width: 469
Flags: W
HStem: 0 21G<121 305> 1100 20G<121 305>
VStem: 121 184<0 1120>
Fore
132 1256 m 1
 412 1632 l 1
 611 1632 l 1
 285 1256 l 1
 132 1256 l 1
121 0 m 1
 121 1120 l 1
 305 1120 l 1
 305 0 l 1
 121 0 l 1
EndSplineSet
KernsSLIFO: 240 20 0 0
EndChar
StartChar: icircumflex
Encoding: 238 238 171
Width: 469
Flags: W
HStem: 1105 20G<183 367>
VStem: 183 184<5 1125>
Fore
-53 1297 m 1
 192 1673 l 1
 340 1673 l 1
 585 1297 l 1
 446 1297 l 1
 266 1542 l 1
 86 1297 l 1
 -53 1297 l 1
183 5 m 1
 183 1125 l 1
 367 1125 l 1
 367 5 l 1
 183 5 l 1
EndSplineSet
KernsSLIFO: 77 10 0 0
EndChar
StartChar: idieresis
Encoding: 239 239 172
Width: 469
Flags: W
HStem: 0 21G<165 349> 1100 20G<165 349> 1304 202<-39 164 316 519>
VStem: -39 203<1304 1506> 165 184<0 1120> 316 203<1304 1506>
Fore
165 0 m 1xf8
 165 1120 l 1
 349 1120 l 1
 349 0 l 1
 165 0 l 1xf8
-39 1304 m 1
 -39 1506 l 1
 164 1506 l 1
 164 1304 l 1
 -39 1304 l 1
316 1304 m 1xf4
 316 1506 l 1
 519 1506 l 1
 519 1304 l 1
 316 1304 l 1xf4
EndSplineSet
KernsSLIFO: 267 14 0 0 266 14 0 0 77 10 0 0 71 14 0 0
EndChar
StartChar: eth
Encoding: 240 240 173
Width: 1118
Flags: W
HStem: -29 156<429.733 710.533> 948 150<448.3 657.086>
VStem: 57 194<388.8 697.333> 890 195<388.8 746.3>
Fore
782 915 m 1
 716.667 937 657 948 603 948 c 0
 484 948 394 908 333 828 c 0
 278.333 757.333 251 660.333 251 537 c 0
 251 423 275 329.333 323 256 c 0
 379.667 170 462.333 127 571 127 c 0
 678.333 127 760.333 170.333 817 257 c 0
 865.667 329.667 890 423 890 537 c 0
 890 698 854 824 782 915 c 1
681 1327 m 1
 845 1141 l 2
 1005 960.333 1085 759 1085 537 c 0
 1085 372 1041 238 953 135 c 0
 859.667 25.6667 732.333 -29 571 -29 c 0
 409 -29 281.667 26 189 136 c 0
 101 238.667 57 372.333 57 537 c 0
 57 697.667 99 829.333 183 932 c 0
 273 1042.67 396.667 1098 554 1098 c 0
 575.333 1098 612.667 1094.67 666 1088 c 1
 507 1268 l 1
 188 1161 l 1
 155 1260 l 1
 436 1352 l 1
 255 1556 l 1
 483 1556 l 1
 610 1411 l 1
 943 1522 l 1
 976 1425 l 1
 681 1327 l 1
EndSplineSet
EndChar
StartChar: ograve
Encoding: 242 242 175
Width: 1112
Flags: W
HStem: -29 156<424.533 714> 991 156<427.133 714>
VStem: 57 194<403.867 713.267> 890 195<405.6 712.4>
Fore
449 1638 m 1
 646 1638 l 1
 928 1264 l 1
 775 1264 l 1
 449 1638 l 1
571 991 m 0
 460.333 991 377 944.667 321 852 c 0
 274.333 775.333 251 677.667 251 559 c 0
 251 439.667 274 342 320 266 c 0
 374.667 173.333 458.333 127 571 127 c 0
 681 127 764 173.667 820 267 c 0
 866.667 343.667 890 441 890 559 c 0
 890 677 866.667 774.333 820 851 c 0
 764 944.333 681 991 571 991 c 0
571 1147 m 0
 741 1147 871 1090 961 976 c 0
 1043.67 873.333 1085 734.333 1085 559 c 0
 1085 383.667 1043.67 244.667 961 142 c 0
 871 28 741 -29 571 -29 c 0
 401 -29 271 28 181 142 c 0
 98.3333 244.667 57 383.667 57 559 c 0
 57 734.333 98.3333 873.333 181 976 c 0
 271 1090 401 1147 571 1147 c 0
EndSplineSet
EndChar
StartChar: oacute
Encoding: 243 243 176
Width: 1112
Flags: W
HStem: -29 156<424.533 714> 991 156<427.133 714>
VStem: 57 194<403.867 713.267> 890 195<405.6 712.4>
Fore
449 1262 m 1
 729 1638 l 1
 928 1638 l 1
 602 1262 l 1
 449 1262 l 1
571 991 m 0
 460.333 991 377 944.667 321 852 c 0
 274.333 775.333 251 677.667 251 559 c 0
 251 439.667 274 342 320 266 c 0
 374.667 173.333 458.333 127 571 127 c 0
 681 127 764 173.667 820 267 c 0
 866.667 343.667 890 441 890 559 c 0
 890 677 866.667 774.333 820 851 c 0
 764 944.333 681 991 571 991 c 0
571 1147 m 0
 741 1147 871 1090 961 976 c 0
 1043.67 873.333 1085 734.333 1085 559 c 0
 1085 383.667 1043.67 244.667 961 142 c 0
 871 28 741 -29 571 -29 c 0
 401 -29 271 28 181 142 c 0
 98.3333 244.667 57 383.667 57 559 c 0
 57 734.333 98.3333 873.333 181 976 c 0
 271 1090 401 1147 571 1147 c 0
EndSplineSet
EndChar
StartChar: ocircumflex
Encoding: 244 244 177
Width: 1112
Flags: W
HStem: -29 156<424.533 714> 991 156<427.133 714>
VStem: 57 194<403.867 713.267> 890 195<405.6 712.4>
Fore
284 1258 m 1
 529 1634 l 1
 677 1634 l 1
 922 1258 l 1
 783 1258 l 1
 603 1503 l 1
 423 1258 l 1
 284 1258 l 1
571 991 m 0
 460.333 991 377 944.667 321 852 c 0
 274.333 775.333 251 677.667 251 559 c 0
 251 439.667 274 342 320 266 c 0
 374.667 173.333 458.333 127 571 127 c 0
 681 127 764 173.667 820 267 c 0
 866.667 343.667 890 441 890 559 c 0
 890 677 866.667 774.333 820 851 c 0
 764 944.333 681 991 571 991 c 0
571 1147 m 0
 741 1147 871 1090 961 976 c 0
 1043.67 873.333 1085 734.333 1085 559 c 0
 1085 383.667 1043.67 244.667 961 142 c 0
 871 28 741 -29 571 -29 c 0
 401 -29 271 28 181 142 c 0
 98.3333 244.667 57 383.667 57 559 c 0
 57 734.333 98.3333 873.333 181 976 c 0
 271 1090 401 1147 571 1147 c 0
EndSplineSet
EndChar
StartChar: odieresis
Encoding: 246 246 179
Width: 1112
Flags: W
HStem: -29 156<424.533 714> 991 156<427.133 714> 1355 201<289 492 680 883>
VStem: 57 194<403.867 713.267> 289 203<1355 1556> 680 203<1355 1556> 890 195<405.6 712.4>
Fore
680 1355 m 5
 680 1556 l 5
 883 1556 l 5
 883 1355 l 5
 680 1355 l 5
289 1355 m 5
 289 1556 l 5
 492 1556 l 5
 492 1355 l 5
 289 1355 l 5
571 991 m 0
 460.333 991 377 944.667 321 852 c 0
 274.333 775.333 251 677.667 251 559 c 0
 251 439.667 274 342 320 266 c 0
 374.667 173.333 458.333 127 571 127 c 0
 681 127 764 173.667 820 267 c 0
 866.667 343.667 890 441 890 559 c 0
 890 677 866.667 774.333 820 851 c 0
 764 944.333 681 991 571 991 c 0
571 1147 m 0
 741 1147 871 1090 961 976 c 0
 1043.67 873.333 1085 734.333 1085 559 c 0
 1085 383.667 1043.67 244.667 961 142 c 0
 871 28 741 -29 571 -29 c 0
 401 -29 271 28 181 142 c 0
 98.3333 244.667 57 383.667 57 559 c 0
 57 734.333 98.3333 873.333 181 976 c 0
 271 1090 401 1147 571 1147 c 0
EndSplineSet
EndChar
StartChar: divide
Encoding: 247 247 180
Width: 1491
Flags: W
HStem: 25 245<617 863> 572 160<158 1333> 1039 246<617 863>
VStem: 617 246<25 270 1039 1285>
Fore
158 572 m 1
 158 732 l 1
 1333 732 l 1
 1333 572 l 1
 158 572 l 1
617 25 m 1
 617 270 l 1
 863 270 l 1
 863 25 l 1
 617 25 l 1
617 1039 m 1
 617 1285 l 1
 863 1285 l 1
 863 1039 l 1
 617 1039 l 1
EndSplineSet
EndChar
StartChar: oslash
Encoding: 248 248 181
Width: 1112
Flags: W
HStem: -30 156<483.333 708.667> 990 156<446.933 685.334>
VStem: 82 194<413.365 705.2> 880 195<404.6 694.256>
Fore
839 800 m 1
 387 208 l 1
 439.667 153.333 509.333 126 596 126 c 0
 682.667 126 754 172.667 810 266 c 0
 856.667 342.667 880 440 880 558 c 0
 880 658.667 866.333 739.333 839 800 c 1
315 316 m 1
 768 908 l 1
 716.667 971.333 659.333 998.667 596 990 c 0
 481.333 990 396.667 941.667 342 845 c 0
 298 768.333 276 668 276 544 c 0
 276 452 289 376 315 316 c 1
41 -17 m 1
 190 165 l 1
 118 268 82 399 82 558 c 0
 82 732.667 123.333 871.667 206 975 c 0
 296 1089 426 1146 596 1146 c 0
 696.667 1146 791.333 1111.67 880 1043 c 1
 1019 1211 l 1
 1114 1132 l 1
 968 953 l 1
 1039.33 849.667 1075 718 1075 558 c 0
 1075 383.333 1033.67 244.333 951 141 c 0
 861 27 742.667 -30 596 -30 c 0
 467.333 -30 360.667 4.33333 276 73 c 1
 137 -95 l 1
 41 -17 l 1
EndSplineSet
KernsSLIFO: 248 -18 0 0 90 -12 0 0 89 -18 0 0 87 -12 0 0 15 -18 0 0 13 -29 0 0
EndChar
StartChar: ugrave
Encoding: 249 249 182
Width: 1143
Flags: W
HStem: -29 160<344.067 693.333> 1100 20G<127 311 881 1065>
VStem: 127 184<173.4 1120> 881 184<0 172 347.2 1120>
Fore
467 1638 m 1
 664 1638 l 1
 946 1264 l 1
 793 1264 l 1
 467 1638 l 1
127 442 m 2
 127 1120 l 1
 311 1120 l 1
 311 449 l 2
 311 237 393.667 131 559 131 c 0
 662.333 131 742.667 164.667 800 232 c 0
 854 294.667 881 379 881 485 c 2
 881 1120 l 1
 1065 1120 l 1
 1065 0 l 1
 881 0 l 1
 881 172 l 1
 793 38 672.667 -29 520 -29 c 0
 258 -29 127 128 127 442 c 2
EndSplineSet
EndChar
StartChar: uacute
Encoding: 250 250 183
Width: 1143
Flags: W
HStem: -29 160<344.067 693.333> 1100 20G<127 311 881 1065>
VStem: 127 184<173.4 1120> 881 184<0 172 347.2 1120>
Fore
747 1638 m 1
 946 1638 l 1
 620 1262 l 1
 467 1262 l 1
 747 1638 l 1
127 442 m 2
 127 1120 l 1
 311 1120 l 1
 311 449 l 2
 311 237 393.667 131 559 131 c 0
 662.333 131 742.667 164.667 800 232 c 0
 854 294.667 881 379 881 485 c 2
 881 1120 l 1
 1065 1120 l 1
 1065 0 l 1
 881 0 l 1
 881 172 l 1
 793 38 672.667 -29 520 -29 c 0
 258 -29 127 128 127 442 c 2
EndSplineSet
EndChar
StartChar: ucircumflex
Encoding: 251 251 184
Width: 1143
Flags: W
HStem: -29 160<344.067 693.333> 1100 20G<127 311 881 1065>
VStem: 127 184<173.4 1120> 881 184<0 172 347.2 1120>
Fore
633 1638 m 1
 781 1638 l 1
 1026 1262 l 1
 887 1262 l 1
 707 1507 l 1
 527 1262 l 1
 388 1262 l 1
 633 1638 l 1
127 442 m 2
 127 1120 l 1
 311 1120 l 1
 311 449 l 2
 311 237 393.667 131 559 131 c 0
 662.333 131 742.667 164.667 800 232 c 0
 854 294.667 881 379 881 485 c 2
 881 1120 l 1
 1065 1120 l 1
 1065 0 l 1
 881 0 l 1
 881 172 l 1
 793 38 672.667 -29 520 -29 c 0
 258 -29 127 128 127 442 c 2
EndSplineSet
EndChar
StartChar: udieresis
Encoding: 252 252 185
Width: 1143
Flags: W
HStem: -29 160<344.067 693.333> 1100 20G<127 311 881 1065> 1350 202<410 613 801 1004>
VStem: 127 184<173.4 1120> 410 203<1350 1552> 801 203<1350 1552> 881 184<0 172 347.2 1120>
Fore
127 442 m 2xfa
 127 1120 l 1
 311 1120 l 1
 311 449 l 2
 311 237 393.667 131 559 131 c 0
 662.333 131 742.469 164.836 800 232 c 0
 853.815 294.826 881 379 881 485 c 2
 881 1120 l 1
 1065 1120 l 1
 1065 0 l 1
 881 0 l 1
 881 172 l 1
 793 38 672.667 -29 520 -29 c 0
 258 -29 127 128 127 442 c 2xfa
410 1552 m 1
 613 1552 l 1
 613 1350 l 1
 410 1350 l 1
 410 1552 l 1
801 1552 m 1xfc
 801 1350 l 1
 1004 1350 l 1
 1004 1552 l 1
 801 1552 l 1xfc
EndSplineSet
EndChar
StartChar: yacute
Encoding: 253 253 186
Width: 1020
Flags: W
HStem: -426 154<107 293.867> 1100 20G<6 201 901 1096>
Fore
734 1638 m 1
 933 1638 l 1
 607 1262 l 1
 454 1262 l 1
 734 1638 l 1
604 -104 m 2
 560 -214.667 519.667 -291 483 -333 c 0
 427.667 -395 351.333 -426 254 -426 c 2
 107 -426 l 1
 107 -272 l 1
 215 -272 l 2
 275.667 -272 322.333 -251.667 355 -211 c 0
 373 -189 396.667 -140.667 426 -66 c 2
 459 18 l 1
 6 1120 l 1
 201 1120 l 1
 551 244 l 1
 901 1120 l 1
 1096 1120 l 1
 604 -104 l 2
EndSplineSet
EndChar
StartChar: thorn
Encoding: 254 254 187
Width: 1133
Flags: W
HStem: -426 21G<135 320> -30 154<426 712> 992 154<526.402 712>
VStem: 135 185<-426 132 397.638 714.668 1466.6 1556> 882 191<403.733 712.267>
Fore
320 132 m 1
 320 -426 l 1
 135 -426 l 1
 135 1556 l 1
 320 1556 l 1
 320 950 l 1
 352.667 1080.67 450.667 1146 614 1146 c 0
 764.667 1146 881.667 1083.33 965 958 c 0
 1037 848.667 1073 715.333 1073 558 c 0
 1073 400.667 1037 267.333 965 158 c 0
 881.667 32.6667 764.667 -30 614 -30 c 0
 451 -30 353 24 320 132 c 1
882 558 m 0
 882 676.667 860 774 816 850 c 0
 761.333 944.667 679 992 569 992 c 1
 473 974 405.333 926 366 848 c 0
 335.333 774.667 320 678.333 320 559 c 0
 320 441.667 333.667 343 361 263 c 0
 389.667 170.333 459 124 569 124 c 0
 679 124 761.333 171.333 816 266 c 0
 860 342 882 439.333 882 558 c 0
EndSplineSet
EndChar
StartChar: ydieresis
Encoding: 255 255 188
Width: 1020
Flags: W
HStem: -426 154<107 293.867> 1100 20G<6 201 901 1096> 1350 202<397 600 788 991>
VStem: 397 203<1350 1552> 788 203<1350 1552>
Fore
788 1552 m 1
 991 1552 l 1
 991 1350 l 1
 788 1350 l 1
 788 1552 l 1
397 1552 m 1
 600 1552 l 1
 600 1350 l 1
 397 1350 l 1
 397 1552 l 1
604 -104 m 2
 560 -214.667 519.667 -291 483 -333 c 0
 427.667 -395 351.333 -426 254 -426 c 2
 107 -426 l 1
 107 -272 l 1
 215 -272 l 2
 275.667 -272 322.333 -251.667 355 -211 c 0
 373 -189 396.667 -140.667 426 -66 c 2
 459 18 l 1
 6 1120 l 1
 201 1120 l 1
 551 244 l 1
 901 1120 l 1
 1096 1120 l 1
 604 -104 l 2
EndSplineSet
EndChar
StartChar: Aogonek
Encoding: 260 260 189
Width: 1229
Flags: W
HStem: -351 123<1077.53 1244.05> 0 21G<-10 190 1121 1238> 418 169<380 839>
VStem: 924 139<-215.733 -94.4>
Fore
-10 0 m 1
 500 1495 l 1
 729 1495 l 1
 1238 0 l 1
 1121 0 l 1
 1082.33 -58.6667 1063 -104 1063 -136 c 0
 1063 -197.333 1099.33 -228 1172 -228 c 0
 1214.67 -228 1256.33 -218 1297 -198 c 1
 1297 -331 l 1
 1245 -344.333 1199.67 -351 1161 -351 c 0
 1003 -351 924 -291 924 -171 c 0
 924 -112 956 -45 1020 30 c 1
 894 418 l 1
 325 418 l 1
 190 0 l 1
 -10 0 l 1
839 587 m 1
 614 1296 l 1
 380 587 l 1
 839 587 l 1
EndSplineSet
EndChar
StartChar: aogonek
Encoding: 261 261 190
Width: 1075
Flags: W
HStem: -371 123<822.533 988.415> -27 154<340.094 618.333> 563 157<432.754 759> 993 156<382.267 739.427>
VStem: 57 171<142.797 543.872> 669 139<-235.733 -117.333> 759 187<0 151 161.827 563>
Fore
491 127 m 0xfa
 595.209 127 759 244.944 759 522 c 2
 759 563 l 1
 588 563 l 2
 383.121 566.358 228 495.901 228 336 c 0
 228 187.382 374.918 127 491 127 c 0xfa
445 -27 m 0
 140.28 -33.0341 57 142.866 57 324 c 0
 57 578 228 710 570 720 c 2
 759 720 l 1
 824.735 908.814 686.251 993 509 993 c 0
 389.667 993 277.333 962.333 172 901 c 1
 172 1071 l 1
 297.333 1123 415.667 1149 527 1149 c 0
 806.333 1147.67 946 977.667 946 639 c 2
 946 0 l 1xfa
 878 0 l 1
 831.333 -66.6667 808 -118.667 808 -156 c 0
 808 -217.333 844.333 -248 917 -248 c 0
 959 -248 1000.67 -238 1042 -218 c 1
 1042 -351 l 1
 990 -364.333 944.667 -371 906 -371 c 0
 748 -371 669 -311 669 -191 c 0xfc
 669 -134.333 759 -91.2361 759 3 c 2
 759 151 l 1
 678.333 31 578.333 -28.3333 445 -27 c 0
EndSplineSet
EndChar
StartChar: cacute
Encoding: 263 263 192
Width: 944
Flags: W
HStem: 0 157<303.136 764.267> 1021 156<306.017 766.933>
VStem: 59 194<245.405 932.739>
Fore
766 1638 m 1
 965 1638 l 1
 639 1262 l 1
 486 1262 l 1
 766 1638 l 1
59 589 m 0
 59 957.436 267.3 1177 622 1177 c 0
 737.333 1177 845 1153.67 945 1107 c 1
 945 935 l 1
 840.333 992.333 735.333 1021 630 1021 c 0
 380.783 1021 253 853.415 253 589 c 0
 253 324.696 378.566 157 630 157 c 0
 735.333 157 840.333 185.667 945 243 c 1
 945 73 l 1
 840.333 24.3333 728.667 -1.73472e-18 610 0 c 0
 267.207 0 59 225.546 59 589 c 0
EndSplineSet
EndChar
StartChar: Ccaron
Encoding: 268 268 193
Width: 1231
Flags: W
HStem: -29 166<342.085 1022.93> 1354 166<341.83 1026.4>
VStem: 66 213<255.415 1237.81>
Fore
631 1638 m 1
 420 1904 l 1
 559 1904 l 1
 725 1726 l 1
 891 1904 l 1
 1030 1904 l 1
 819 1638 l 1
 631 1638 l 1
66 745 m 0
 66 1226.22 334.951 1520 795 1520 c 0
 973 1520 1131.33 1472.67 1270 1378 c 1
 1270 1165 l 1
 1135.33 1291 981 1354 807 1354 c 0
 449.177 1354 279 1124.08 279 745 c 0
 279 368.396 449.373 137 807 137 c 0
 981 137 1135.33 200 1270 326 c 1
 1270 115 l 1
 1128.67 19 970.333 -29 795 -29 c 0
 333.459 -29 66 263.497 66 745 c 0
EndSplineSet
EndChar
StartChar: dcaron
Encoding: 271 271 195
Width: 1407
Flags: W
HStem: -24 154<409.667 659.333> 998 154<410.1 659.333>
VStem: 59 190<404.733 713.267> 806 184<5 173 244.471 882.669 955 1561>
Fore
806 955 m 1
 806 1561 l 1
 990 1561 l 1
 990 5 l 1
 806 5 l 1
 806 173 l 1
 730 41.6667 610.333 -24 447 -24 c 0
 343.667 -27.3333 250.333 33.6667 167 159 c 0
 95 267.667 59 401 59 559 c 0
 59 717 95 850.333 167 959 c 0
 250.333 1084.33 343.667 1148.67 447 1152 c 0
 610.333 1152 730 1086.33 806 955 c 1
806 564 m 0
 806 809.13 706.503 998 492 998 c 0
 429 995 370 946 315 851 c 0
 271 775 249 677.667 249 559 c 0
 249 440.333 271 343 315 267 c 0
 369.667 172.333 428.667 126.667 492 130 c 0
 706.055 130 806 318.209 806 564 c 0
1092 1057 m 1
 1286 1566 l 1
 1469 1566 l 1
 1243 1057 l 1
 1092 1057 l 1
EndSplineSet
EndChar
StartChar: Eogonek
Encoding: 280 280 196
Width: 1149
Flags: W
HStem: -356 123<803.533 970.054> 0 176<350 725 849 1083> 729 176<350 1033> 1313 176<350 1083>
VStem: 152 198<176 729 905 1313> 650 139<-220.733 -108.4>
Fore
152 0 m 1
 152 1489 l 1
 1083 1489 l 1
 1083 1313 l 1
 350 1313 l 1
 350 905 l 1
 1033 905 l 1
 1033 729 l 1
 350 729 l 1
 350 176 l 1
 1083 176 l 1
 1083 0 l 1
 849 0 l 1
 809 -60 789 -107 789 -141 c 0
 789 -202.333 825.333 -233 898 -233 c 0
 940.667 -233 982.333 -223 1023 -203 c 1
 1023 -336 l 1
 971 -349.333 925.667 -356 887 -356 c 0
 729 -356 650 -296 650 -176 c 0
 650 -124 675 -65.3333 725 0 c 1
 152 0 l 1
EndSplineSet
EndChar
StartChar: eogonek
Encoding: 281 281 197
Width: 1077
Flags: W
HStem: -387 123<682.533 848.414> -31 157<376.933 618> 517 144<246 866> 995 157<448.133 698.6>
VStem: 529 139<-251.733 -138.533> 866 174<608 785.933>
Fore
1040 608 m 2
 1040 517 l 1
 240 517 l 1
 256 256.333 382 126 618 126 c 0
 749 126 876 161 999 231 c 1
 999 56 l 1
 911 16 822.667 -10 734 -22 c 1
 690 -87 668 -137 668 -172 c 0
 668 -233.333 704.333 -264 777 -264 c 0
 819 -264 860.667 -254 902 -234 c 1
 902 -367 l 1
 850 -380.333 804.667 -387 766 -387 c 0
 608 -387 529 -327 529 -207 c 0
 529 -154.333 554 -95.6667 604 -31 c 1
 429.333 -29.6667 294.667 24.3333 200 131 c 0
 106 234.333 59 374 59 550 c 0
 59 725.333 100.667 866.667 184 974 c 0
 276 1092.67 407.333 1152 578 1152 c 0
 730.667 1152 848 1098 930 990 c 0
 1003.33 892.667 1040 765.333 1040 608 c 2
246 661 m 1
 866 662 l 1
 864.667 757.333 841 835 795 895 c 0
 743 961.667 671 995 579 995 c 0
 478.333 995 399 964.333 341 903 c 0
 286.333 846.333 254.667 765.667 246 661 c 1
EndSplineSet
EndChar
StartChar: Gbreve
Encoding: 286 286 198
Width: 1366
Flags: W
HStem: -29 166<501.6 1011.73> 614 166<840 1170> 1354 166<499 1067.53> 1659 131<684.4 971.7>
VStem: 66 213<433 1059.6> 1170 200<213 614>
Fore
517 1901 m 1
 635 1901 l 1
 653 1827 718 1790 830 1790 c 0
 939 1790 1004 1827 1025 1901 c 1
 1143 1901 l 1
 1129.67 1739.67 1025.33 1659 830 1659 c 0
 634.667 1659 530.333 1739.67 517 1901 c 1
1170 213 m 1
 1170 614 l 1
 840 614 l 1
 840 780 l 1
 1370 780 l 1
 1370 139 l 1
 1212 27 1025.67 -29 811 -29 c 0
 573 -29 388.333 40.6667 257 180 c 0
 129.667 316.667 66 505 66 745 c 0
 66 987 129.333 1175.67 256 1311 c 0
 386 1450.33 571 1520 811 1520 c 0
 1008.33 1520 1181.67 1472.67 1331 1378 c 1
 1331 1163 l 1
 1180.33 1290.33 1012.67 1354 828 1354 c 0
 462 1354 279 1151 279 745 c 0
 279 339.667 462 137 828 137 c 0
 969.333 137 1083.33 162.333 1170 213 c 1
EndSplineSet
EndChar
StartChar: gbreve
Encoding: 287 287 199
Width: 1133
Flags: W
HStem: -412 150<337.653 757.867> 12 154<428.102 635.867> 1005 154<415.733 571.319> 1321 137<419.867 686.8>
VStem: 59 190<418.733 726.4> 806 184<-211.333 209 432.467 740.133 962 1132>
Fore
236 1608 m 1
 354 1608 l 1
 369 1508 434 1458 549 1458 c 0
 662 1458 727 1508 744 1608 c 1
 862 1608 l 1
 862 1510 836.333 1437.67 785 1391 c 0
 733.667 1344.33 655 1321 549 1321 c 0
 449.667 1321 372.667 1345.33 318 1394 c 0
 263.333 1442.67 236 1514 236 1608 c 1
990 1132 m 1
 990 151 l 2
 990 -224.333 818 -412 474 -412 c 0
 369.333 -412 276 -397 194 -367 c 1
 194 -188 l 1
 299.333 -245.333 383 -270 445 -262 c 0
 685.667 -262 806 -135.333 806 118 c 2
 806 209 l 1
 730.667 77.6667 611 12 447 12 c 0
 337.667 12 244.333 68 167 180 c 0
 95 285 59 416 59 573 c 0
 59 731 95 862.333 167 967 c 0
 254.883 1093.87 348.217 1157.87 447 1159 c 0
 534.333 1160 607 1146 665 1117 c 0
 723 1088 770 1036.33 806 962 c 1
 806 1132 l 1
 990 1132 l 1
806 585 m 0
 806 704.333 784 800 740 872 c 0
 690 960.667 607.333 1005 492 1005 c 0
 433.333 1005 374.333 956.333 315 859 c 0
 271 786.333 249 691 249 573 c 0
 249 454.333 271 359 315 287 c 0
 369 198.333 428 158 492 166 c 0
 602.667 166 685 210.333 739 299 c 0
 783.667 372.333 806 467.667 806 585 c 0
EndSplineSet
EndChar
StartChar: Hbar
Encoding: 294 294 200
Width: 1382
Flags: W
HStem: 0 21G<196 394 1079 1277> 730 176<394 1079> 1107 142<12 196 394 1079 1277 1441>
VStem: 196 198<0 730 906 1107 1249 1489> 1079 198<0 730 906 1107 1249 1489>
Fore
1441 1249 m 1
 1441 1107 l 1
 1277 1107 l 1
 1277 0 l 1
 1079 0 l 1
 1079 730 l 1
 394 730 l 1
 394 0 l 1
 196 0 l 1
 196 1107 l 1
 12 1107 l 1
 12 1249 l 1
 196 1249 l 1
 196 1489 l 1
 394 1489 l 1
 394 1249 l 1
 1079 1249 l 1
 1079 1489 l 1
 1277 1489 l 1
 1277 1249 l 1
 1441 1249 l 1
394 906 m 1
 1079 906 l 1
 1079 1107 l 1
 394 1107 l 1
 394 906 l 1
EndSplineSet
EndChar
StartChar: hbar
Encoding: 295 295 201
Width: 1143
Flags: W
HStem: 0 21G<171 356 862 1046> 987 160<542.667 837.333> 1258 144<7 171 356 667>
VStem: 171 185<0 769.933 946 1258 1402 1556> 862 184<0 944.733>
Fore
7 1258 m 1
 7 1402 l 1
 171 1402 l 1
 171 1556 l 1
 356 1556 l 1
 356 1402 l 1
 667 1402 l 1
 667 1258 l 1
 356 1258 l 1
 356 946 l 1
 442.667 1080 563.333 1147 718 1147 c 0
 936.667 1147 1046 990 1046 676 c 2
 1046 0 l 1
 862 0 l 1
 862 670 l 2
 862 881.333 800.333 987 677 987 c 0
 573.667 987 493.333 953.333 436 886 c 0
 382.667 822.667 356 738.333 356 633 c 2
 356 0 l 1
 171 0 l 1
 171 1258 l 1
 7 1258 l 1
EndSplineSet
EndChar
StartChar: Itilde
Encoding: 296 296 202
Width: 764
Flags: W
HStem: 0 152<78 266 464 656> 1337 152<78 266 464 656> 1676 160<488.467 615.867> 1807 162<136 259.957>
VStem: 266 198<152 1337>
Fore
741 1992 m 1xe8
 741 1818 l 1
 667 1723.33 594.667 1676 524 1676 c 0xe8
 482 1676 433.333 1695.33 378 1734 c 2
 376 1734.67 368.667 1739 356 1747 c 0
 294.667 1787 247.333 1807 214 1807 c 0
 150 1807 82 1755.33 10 1652 c 1
 10 1824 l 1
 84.6667 1920.67 157 1969 227 1969 c 0xd8
 267.667 1969 316.667 1949.33 374 1910 c 0
 445.518 1860.94 499.667 1836 537 1836 c 0
 598 1836 666 1888 741 1992 c 1xe8
78 1489 m 1
 656 1489 l 1
 656 1337 l 1
 464 1337 l 1
 464 152 l 1
 656 152 l 1
 656 0 l 1
 78 0 l 1
 78 152 l 1
 266 152 l 1
 266 1337 l 1
 78 1337 l 1
 78 1489 l 1
EndSplineSet
EndChar
StartChar: itilde
Encoding: 297 297 203
Width: 469
Flags: W
HStem: 0 21G<130 318> 1102 20G<130 318> 1341 141<319.614 419.067> 1457 142<46.6667 144.464>
VStem: 130 188<0 1122>
Fore
517 1619 m 1xe8
 517 1466 l 1
 459 1382.67 402.667 1341 348 1341 c 0xe8
 316 1341 278 1358 234 1392 c 2
 232 1392.67 226.333 1396.67 217 1404 c 0
 169.667 1439.33 132.667 1457 106 1457 c 0
 56 1457 3 1411.33 -53 1320 c 1
 -53 1471 l 1
 6.33333 1556.33 62.6667 1599 116 1599 c 0xd8
 148 1599 186.333 1581.67 231 1547 c 0
 286.518 1503.91 328.667 1482 358 1482 c 0
 406 1482 459 1527.67 517 1619 c 1xe8
130 0 m 1
 130 1122 l 1
 318 1122 l 1
 318 0 l 1
 130 0 l 1
EndSplineSet
EndChar
StartChar: Imacron
Encoding: 298 298 204
Width: 764
Flags: W
HStem: 0 152<92 280 478 670> 1337 152<92 280 478 670> 1698 154<55 709>
VStem: 280 198<152 1337>
Fore
92 1489 m 1
 670 1489 l 1
 670 1337 l 1
 478 1337 l 1
 478 152 l 1
 670 152 l 1
 670 0 l 1
 92 0 l 1
 92 152 l 1
 280 152 l 1
 280 1337 l 1
 92 1337 l 1
 92 1489 l 1
55 1698 m 1
 55 1852 l 1
 709 1852 l 1
 709 1698 l 1
 55 1698 l 1
EndSplineSet
EndChar
StartChar: imacron
Encoding: 299 299 205
Width: 469
Flags: W
HStem: 0 21G<139 327> 1335 154<-33 500>
VStem: 139 188<0 1117>
Fore
139 0 m 1
 139 1117 l 1
 327 1117 l 1
 327 0 l 1
 139 0 l 1
-33 1335 m 1
 -33 1489 l 1
 500 1489 l 1
 500 1335 l 1
 -33 1335 l 1
EndSplineSet
EndChar
StartChar: Ibreve
Encoding: 300 300 206
Width: 764
Flags: W
HStem: 0 152<112 300 498 690> 1337 152<112 300 498 690> 1623 137<247.5 543.9>
VStem: 300 198<152 1337>
Fore
112 1489 m 1
 690 1489 l 1
 690 1337 l 1
 498 1337 l 1
 498 152 l 1
 690 152 l 1
 690 0 l 1
 112 0 l 1
 112 152 l 1
 300 152 l 1
 300 1337 l 1
 112 1337 l 1
 112 1489 l 1
84 1910 m 1
 202 1910 l 1
 217 1810 282 1760 397 1760 c 0
 510 1760 575 1810 592 1910 c 1
 710 1910 l 1
 696.667 1718.67 592.333 1623 397 1623 c 0
 201.667 1623 97.3333 1718.67 84 1910 c 1
EndSplineSet
EndChar
StartChar: ibreve
Encoding: 301 301 207
Width: 469
Flags: W
HStem: 0 21G<168 356> 1257 137<118.5 414.9>
VStem: 168 188<0 1117>
Fore
168 0 m 1
 168 1117 l 1
 356 1117 l 1
 356 0 l 1
 168 0 l 1
-45 1544 m 1
 73 1544 l 1
 88 1444 153 1394 268 1394 c 0
 381 1394 446 1444 463 1544 c 1
 581 1544 l 1
 567.667 1352.67 463.333 1257 268 1257 c 0
 72.6667 1257 -31.6667 1352.67 -45 1544 c 1
EndSplineSet
EndChar
StartChar: Idot
Encoding: 304 304 208
Width: 764
Flags: W
HStem: 0 21G<92 294> 1671 205<96 300>
VStem: 96 204<0 1493 1671 1876>
Fore
96 1876 m 1
 300 1876 l 1
 300 1671 l 1
 96 1671 l 1
 96 1876 l 1
92 1493 m 1
 294 1493 l 1
 294 0 l 1
 92 0 l 1
 92 1493 l 1
EndSplineSet
EndChar
StartChar: dotlessi
Encoding: 305 305 209
Width: 469
Flags: W
HStem: 0 21G<139 323> 1100 20G<139 323>
VStem: 139 184<0 1120>
Fore
139 1120 m 1
 323 1120 l 1
 323 0 l 1
 139 0 l 1
 139 1120 l 1
EndSplineSet
EndChar
StartChar: Lcaron
Encoding: 317 317 210
Width: 1020
Flags: W
HStem: 0 170<350 1015>
VStem: 152 198<170 1493>
Fore
152 0 m 1
 152 1493 l 1
 350 1493 l 1
 350 170 l 1
 1015 170 l 1
 1015 0 l 1
 152 0 l 1
567 1066 m 1
 765 1556 l 1
 951 1556 l 1
 721 1066 l 1
 567 1066 l 1
EndSplineSet
EndChar
StartChar: lcaron
Encoding: 318 318 211
Width: 469
Flags: W
HStem: 0 21G<139 323>
VStem: 139 184<0 1556>
Fore
139 0 m 5
 139 1556 l 5
 323 1556 l 5
 323 0 l 5
 139 0 l 5
438 1061 m 1
 628 1556 l 1
 805 1556 l 1
 585 1061 l 1
 438 1061 l 1
EndSplineSet
EndChar
StartChar: Lslash
Encoding: 321 321 212
Width: 1238
Flags: W
HStem: -4 170<395 1055>
VStem: 192 203<166 567 873 1489>
Fore
192 1489 m 1
 395 1489 l 1
 395 873 l 1
 708 1092 l 1
 788 981 l 1
 395 707 l 1
 395 166 l 1
 1055 170 l 1
 1055 0 l 1
 192 -4 l 1
 192 567 l 1
 44 461 l 1
 -33 571 l 1
 192 729 l 1
 192 1489 l 1
EndSplineSet
EndChar
StartChar: lslash
Encoding: 322 322 213
Width: 561
Flags: W
HStem: 0 21G<222 406>
VStem: 222 184<0 666 954 1556>
Fore
222 1556 m 1
 406 1556 l 1
 406 954 l 1
 531 1044 l 1
 607 938 l 1
 406 797 l 1
 406 0 l 1
 222 0 l 1
 222 666 l 1
 99 578 l 1
 25 684 l 1
 222 825 l 1
 222 1556 l 1
EndSplineSet
EndChar
StartChar: OE
Encoding: 338 338 214
Width: 2001
Flags: W
HStem: 0 171<610.867 996 1193 1934> 716 171<1193 1886> 1332 171<661 996 1193 1916>
VStem: 66 208<491.667 995.2> 996 197<171 716 887 1332>
Fore
1916 1503 m 1
 1916 1332 l 1
 1193 1332 l 1
 1193 887 l 1
 1886 887 l 1
 1886 716 l 1
 1193 716 l 1
 1193 171 l 1
 1934 171 l 1
 1934 0 l 1
 895 0 l 2
 643 0 448.667 52.6667 312 158 c 0
 148 285 66 480 66 743 c 0
 66 1005.67 148.333 1200 313 1326 c 0
 467 1444 661 1503 895 1503 c 2
 1916 1503 l 1
996 1332 m 1
 870 1332 l 2
 672 1332 523.167 1282.33 423.5 1183 c 0
 323.833 1083.67 274 937 274 743 c 0
 274 549.667 323.5 406 422.5 312 c 0
 521.5 218 670.667 171 870 171 c 2
 996 171 l 1
 996 1332 l 1
EndSplineSet
EndChar
StartChar: oe
Encoding: 339 339 215
Width: 1862
Flags: W
HStem: -18 156<408.333 683.067 1261.13 1579.6> 528 143<1043 1667> 1002 156<410.933 683.067 1249 1496.87>
VStem: 57 186<415.733 724.267> 851 192<417.467 528 670 722.533> 1667 177<616 794.933>
Fore
1667 671 m 1
 1667 766.333 1642.33 845 1593 907 c 0
 1541 970.333 1469.67 1002 1379 1002 c 0
 1279 1002 1198 972.333 1136 913 c 0
 1074 853.667 1043 772.667 1043 670 c 1
 1667 671 l 1
1844 616 m 2
 1844 528 l 1
 1037 528 l 1
 1037 400 1070.33 303 1137 237 c 0
 1203.67 171 1297.33 138 1418 138 c 0
 1548.67 138 1677.33 172.667 1804 242 c 1
 1804 68 l 1
 1672 10.6667 1540 -18 1408 -18 c 0
 1204.67 -18 1051 55 947 201 c 1
 858.333 55 725 -18 547 -18 c 0
 385 -18 261 39 175 153 c 0
 96.3333 256.333 57 395.333 57 570 c 0
 57 744.667 96.3333 883.667 175 987 c 0
 261 1101 385 1158 547 1158 c 0
 727.667 1158 860 1085 944 939 c 1
 1046 1085 1190.33 1158 1377 1158 c 0
 1528 1158 1645 1107 1728 1005 c 0
 1805.33 907.667 1844 778 1844 616 c 2
547 1002 m 0
 442.333 1002 363 955.667 309 863 c 0
 265 786.333 243 688.667 243 570 c 0
 243 451.333 264.667 353.667 308 277 c 0
 360.667 184.333 440.333 138 547 138 c 0
 651.667 138 730.667 184.667 784 278 c 0
 828.667 355.333 851 452.667 851 570 c 0
 851 687.333 828.667 784.667 784 862 c 0
 730.667 955.333 651.667 1002 547 1002 c 0
EndSplineSet
EndChar
StartChar: Scedilla
Encoding: 350 350 216
Width: 1141
Flags: W
HStem: -395 123<488.3 686.133> -17 164<338.667 651.949> 1369 163<435.993 753.733>
VStem: 89 206<1023.33 1289.2> 702 140<-259.467 -133.533> 886 211<181.933 591>
Fore
1039 1444 m 1
 1039 1247 l 1
 865.667 1327 732.333 1367.67 639 1369 c 0
 409.667 1369 295 1287 295 1123 c 0
 295 1046.33 325 990 385 954 c 0
 420.333 932 485.333 911.333 580 892 c 2
 656 866 l 2
 796.667 837.333 901.333 792.667 970 732 c 0
 1054.67 659.333 1097 556.667 1097 424 c 0
 1097 187.333 974 46 728 0 c 1
 733 0 l 1
 805.667 -80.6667 842 -152.333 842 -215 c 0
 842 -335 762.667 -395 604 -395 c 0
 544 -395 485.333 -387 428 -371 c 1
 428 -240 l 1
 472.667 -261.333 524.333 -272 583 -272 c 0
 662.333 -272 702 -240.667 702 -178 c 0
 702 -140 676 -85 624 -13 c 1
 595.333 -15.6667 562.333 -17 525 -17 c 0
 381.667 -17 232.667 22.3333 78 101 c 1
 78 309 l 1
 226 201 375 147 525 147 c 0
 765.667 147 886 234.333 886 409 c 0
 886 549 789.667 637.333 597 674 c 2
 474 698 l 2
 338 724.667 251.667 763 215 813 c 1
 131 880.333 89 976.667 89 1102 c 0
 89 1246 142.333 1355.33 249 1430 c 1
 312 1489 419 1523 570 1532 c 0
 711.333 1532 867.667 1502.67 1039 1444 c 1
EndSplineSet
EndChar
StartChar: scedilla
Encoding: 351 351 217
Width: 913
Flags: W
HStem: -395 123<372.3 570.133> -41 154<298.856 551.348> 981 154<342.2 643.267>
VStem: 76 178<740.8 952.933> 586 140<-259.467 -137.867> 696 189<143.6 347.133>
Fore
825 1075 m 1xf4
 825 901 l 1
 719.667 954.333 607.667 981 489 981 c 0
 332.333 980.333 254 923.667 254 811 c 0
 254 757 283.333 715.667 342 687 c 1
 342.667 675 382.364 660.475 461 643 c 2
 524 629 l 2
 641.317 602.93 725.2 570.492 776 532 c 0
 848.477 477.083 885 399 885 297 c 0xf4
 885 179 834.489 90.9707 734 32 c 0
 704.615 14.7556 669.667 -0.666667 629 -14 c 1
 693.667 -88.6667 726 -155.667 726 -215 c 0
 726 -335 646.667 -395 488 -395 c 0
 428 -395 369.333 -387 312 -371 c 1
 312 -240 l 1
 356.667 -261.333 408.333 -272 467 -272 c 0
 546.333 -272 586 -240.667 586 -178 c 0xf8
 586 -143.333 565 -95.6667 523 -35 c 1
 491 -39 457.333 -41 422 -41 c 0
 328.667 -42.3333 210.667 -19.6667 68 27 c 1
 68 217 l 1
 202 146.333 321.333 111.667 426 113 c 0
 606 113 696 169.667 696 283 c 0
 696 332.333 679.333 370.667 646 398 c 0
 616.667 421.333 542.667 447 424 475 c 2
 360 490 l 2
 280.667 512.667 217.333 543.667 170 583 c 0
 107.333 633.667 76 707 76 803 c 0
 76 918.333 120.667 1004.67 210 1062 c 0
 285.333 1109.33 371 1133.67 467 1135 c 0
 605 1135 724.333 1115 825 1075 c 1xf4
EndSplineSet
EndChar
StartChar: Scaron
Encoding: 352 352 218
Width: 1141
Flags: W
HStem: -29 164<373.267 869.867> 1356 164<407.867 784>
VStem: 78 203<1010.33 1281.2> 918 211<169.933 579>
Fore
668 1638 m 1
 480 1638 l 1
 269 1904 l 1
 408 1904 l 1
 574 1726 l 1
 740 1904 l 1
 879 1904 l 1
 668 1638 l 1
1039 1444 m 1
 1039 1247 l 1
 887.667 1319.67 749.667 1356 625 1356 c 0
 395.667 1356 281 1274 281 1110 c 0
 281 1033.33 311 977 371 941 c 0
 407.667 918.333 472.667 897.667 566 879 c 2
 688 854 l 2
 829.333 824.667 934 780 1002 720 c 0
 1086.67 647.333 1129 544.667 1129 412 c 0
 1129 118 938.333 -29 557 -29 c 0
 415.667 -29 258 2.66667 84 66 c 1
 84 274 l 1
 248.667 181.333 406.333 135 557 135 c 0
 797.667 135 918 222.333 918 397 c 0
 918 537 821.667 625.333 629 662 c 2
 506 686 l 2
 368.667 713.333 268 753 204 805 c 0
 120 872.333 78 968.667 78 1094 c 0
 78 1238 131.333 1347.33 238 1422 c 0
 331.333 1487.33 452.667 1520 602 1520 c 0
 742 1520 887.667 1494.67 1039 1444 c 1
EndSplineSet
EndChar
StartChar: Zcaron
Encoding: 381 381 222
Width: 1145
Flags: W
HStem: 0 170<311 1278> 1323 170<82 1003>
Fore
704 1635 m 1
 493 1901 l 1
 632 1901 l 1
 798 1723 l 1
 964 1901 l 1
 1103 1901 l 1
 892 1635 l 1
 704 1635 l 1
82 1493 m 1
 1255 1493 l 1
 1255 1339 l 1
 311 170 l 1
 1278 170 l 1
 1278 0 l 1
 59 0 l 1
 59 154 l 1
 1003 1323 l 1
 82 1323 l 1
 82 1493 l 1
EndSplineSet
EndChar
StartChar: florin
Encoding: 402 402 224
Width: 1118
Flags: W
HStem: -185 124<56.2 218.267> 798 124<246 472 673 934> 1413 124<794.533 1009.92>
Fore
1088 1506 m 1
 1088 1363 l 1
 1042.67 1396.33 993.667 1413 941 1413 c 0
 828.333 1413 757 1339.33 727 1192 c 2
 673 922 l 1
 934 922 l 1
 934 798 l 1
 645 798 l 1
 530 246 l 2
 500 104.667 464 4.33333 422 -55 c 0
 360 -141.667 265 -185 137 -185 c 0
 68.3333 -185 6.33333 -172.667 -49 -148 c 1
 -49 -3 l 1
 13.6667 -41.6667 73 -61 129 -61 c 0
 197.667 -61 250 -32 286 26 c 0
 310.667 64 331 123 347 203 c 2
 472 798 l 1
 246 798 l 1
 246 922 l 1
 500 922 l 1
 557 1209 l 2
 601 1427.67 717.667 1537 907 1537 c 0
 972.333 1537 1032.67 1526.67 1088 1506 c 1
EndSplineSet
EndChar
StartChar: circumflex
Encoding: 710 710 225
Width: 1118
Flags: W
HStem: 1296 384<473 919>
VStem: 217 702<1296 1296>
Fore
473 1680 m 1
 689 1680 l 1
 919 1296 l 1
 759 1296 l 1
 577 1553 l 1
 377 1296 l 1
 217 1296 l 1
 473 1680 l 1
EndSplineSet
EndChar
StartChar: caron
Encoding: 711 711 226
Width: 1118
Flags: W
HStem: 1262 376<213 458>
VStem: 213 638<1638 1638>
Fore
458 1262 m 1
 213 1638 l 1
 352 1638 l 1
 532 1393 l 1
 712 1638 l 1
 851 1638 l 1
 606 1262 l 1
 458 1262 l 1
EndSplineSet
EndChar
StartChar: breve
Encoding: 728 728 227
Width: 1118
Flags: W
HStem: 1321 137<392.5 688.9>
VStem: 229 626<1493.38 1608 1608 1608>
Fore
229 1608 m 1
 347 1608 l 1
 362 1508 427 1458 542 1458 c 0
 655 1458 720 1508 737 1608 c 1
 855 1608 l 1
 841.667 1416.67 737.333 1321 542 1321 c 0
 346.667 1321 242.333 1416.67 229 1608 c 1
EndSplineSet
EndChar
StartChar: dotaccent
Encoding: 729 729 228
Width: 1118
Flags: W
HStem: 1348 204<453 657>
VStem: 453 204<1348 1552>
Fore
453 1552 m 1
 657 1552 l 1
 657 1348 l 1
 453 1348 l 1
 453 1552 l 1
EndSplineSet
EndChar
StartChar: ring
Encoding: 730 730 229
Width: 1118
Flags: W
HStem: 1152 123<467.855 584.442> 1578 123<467.855 584.442>
VStem: 254 122<1366.86 1486.35> 680 122<1370.55 1482.68>
Fore
680 1427 m 0
 680 1469 665.333 1504.67 636 1534 c 0
 606.667 1563.33 570.667 1578 528 1578 c 0
 484 1578 447.667 1563.67 419 1535 c 0
 390.333 1506.33 376 1470.33 376 1427 c 0
 376 1383 390.333 1346.67 419 1318 c 0
 447.667 1289.33 484 1275 528 1275 c 0
 570.667 1275 606.667 1289.67 636 1319 c 0
 665.333 1348.33 680 1384.33 680 1427 c 0
802 1427 m 0
 802 1349 776 1283.33 724 1230 c 0
 672 1178 606.667 1152 528 1152 c 0
 449.333 1152 384 1178 332 1230 c 0
 280 1283.33 254 1349 254 1427 c 0
 254 1505.67 280 1571 332 1623 c 0
 384 1675 449.333 1701 528 1701 c 0
 606.667 1701 672 1675 724 1623 c 0
 776 1571 802 1505.67 802 1427 c 0
EndSplineSet
EndChar
StartChar: ogonek
Encoding: 731 731 230
Width: 1118
Flags: W
HStem: -395 123<495.533 662.054> -20 20G<450 569>
VStem: 342 139<-259.733 -134.4>
Fore
450 0 m 1
 569 0 l 1
 510.333 -78.6667 481 -138.667 481 -180 c 0
 481 -241.333 517.333 -272 590 -272 c 0
 632.667 -272 674.333 -262 715 -242 c 1
 715 -375 l 1
 663 -388.333 617.667 -395 579 -395 c 0
 421 -395 342 -335 342 -215 c 0
 342 -153 378 -81.3333 450 0 c 1
EndSplineSet
EndChar
StartChar: tilde
Encoding: 732 732 231
Width: 1118
Flags: W
HStem: 1342 147<681.088 820.667> 1462 148<298.333 437.653>
Fore
957 1631 m 1x80
 957 1472 l 1
 876.333 1385.33 797.667 1342 721 1342 c 0x80
 676.333 1342 623.333 1359.67 562 1395 c 2
 558 1396 550 1400 538 1407 c 0
 472.667 1443.67 421.333 1462 384 1462 c 0
 314 1462 240 1414.67 162 1320 c 1
 162 1477 l 1
 242.667 1565.67 321.333 1610 398 1610 c 0x40
 442.667 1610 496 1592 558 1556 c 0
 634.734 1511.44 693.667 1489 735 1489 c 0
 802.333 1489 876.333 1536.33 957 1631 c 1x80
EndSplineSet
EndChar
StartChar: hungarumlaut
Encoding: 733 733 232
Width: 1118
Flags: W
HStem: 1302 376<656 861>
VStem: 250 789<1302 1678>
Fore
861 1678 m 1
 656 1302 l 1
 791 1302 l 1
 1039 1678 l 1
 861 1678 l 1
440 1678 m 1
 250 1302 l 1
 387 1302 l 1
 610 1678 l 1
 440 1678 l 1
EndSplineSet
EndChar
StartChar: increment
Encoding: 8710 8710 233
Width: 1268
Flags: W
HStem: 0 178<262 1098>
Fore
680 1262 m 1
 262 178 l 1
 1098 178 l 1
 680 1262 l 1
569 1473 m 1
 793 1473 l 1
 1372 0 l 1
 -10 0 l 1
 569 1473 l 1
EndSplineSet
EndChar
StartChar: Omega
Encoding: 8486 8486 234
Width: 1438
Flags: W
HStem: 0 178<43 362 1132 1452> 1339 172<551.133 945.467>
VStem: 59 207<634.8 1008.33> 1227 208<636.533 1010.07>
Fore
1452 178 m 1
 1452 0 l 1
 852 0 l 1
 852 178 l 1
 971.333 243.333 1063.33 330.667 1128 440 c 0
 1194 551 1227 674 1227 809 c 0
 1227 963.667 1186.33 1089.33 1105 1186 c 0
 1019 1288 899.667 1339 747 1339 c 0
 596.333 1339 477.333 1287.33 390 1184 c 0
 307.333 1087.33 266 962.333 266 809 c 0
 266 675 299 552.333 365 441 c 0
 431.667 330.333 524.333 242.667 643 178 c 1
 643 0 l 1
 43 0 l 1
 43 178 l 1
 362 178 l 1
 160 356 59 563 59 799 c 0
 59 1010.33 120.333 1181.33 243 1312 c 0
 369 1444.67 537 1511 747 1511 c 0
 954.333 1511 1121.33 1445.67 1248 1315 c 0
 1372.67 1186.33 1435 1017.67 1435 809 c 0
 1435 676.333 1409.67 559.333 1359 458 c 0
 1311.67 363.333 1236 270 1132 178 c 1
 1452 178 l 1
EndSplineSet
EndChar
StartChar: mu
Encoding: 181 181 235
Width: 1163
Flags: W
HStem: -426 21G<135 319> -27 160<445.933 723.4> 1100 20G<135 319>
VStem: 135 184<-426 127 326.667 1120> 840 184<177.8 1122>
Fore
319 -426 m 1
 135 -426 l 1
 135 1120 l 1
 319 1120 l 1
 319 424 l 2
 319 326.667 337.667 253.667 375 205 c 0
 412.333 156.333 468.333 132.333 543 133 c 0
 741 133 840 245 840 469 c 2
 840 1122 l 1
 1024 1122 l 1
 1024 260 l 2
 1024 182 1048 143 1096 143 c 0
 1104 143 1127 150.667 1165 166 c 1
 1165 18 l 1
 1112.33 -12 1062.67 -27 1016 -27 c 0
 925.333 -27 870 25.6667 850 131 c 1
 782.667 25.6667 685 -27 557 -27 c 0
 455 -27.6667 375.667 23.6667 319 127 c 1
 319 -426 l 1
EndSplineSet
EndChar
StartChar: pi
Encoding: 960 960 236
Width: 1153
Flags: W
HStem: -16 147<1021.6 1155.38> 913 158<363 459 639 965 1143 1325>
VStem: 135 160<780 915.209> 830 178<145.267 289.581>
Fore
1325 913 m 1
 1143 913 l 1
 1038 426 l 2
 1018 332.667 1008 270 1008 238 c 0
 1008 166.667 1042 131 1110 131 c 0
 1130 131 1163.33 134.333 1210 141 c 1
 1180 0 l 1
 1141.33 -10.6667 1104.33 -16 1069 -16 c 0
 909.667 -16 830 51.3333 830 186 c 0
 830 249.333 848.333 366.333 885 537 c 2
 965 913 l 1
 639 913 l 1
 445 0 l 1
 264 0 l 1
 459 913 l 1
 418 913 l 2
 346.667 913 305.667 868.667 295 780 c 1
 135 780 l 1
 153.667 888 187 963.333 235 1006 c 0
 284.333 1049.33 363 1071 471 1071 c 2
 1360 1071 l 1
 1325 913 l 1
EndSplineSet
EndChar
StartChar: endash
Encoding: 8211 8211 237
Width: 1118
Flags: W
HStem: 572 160<-4 1121>
Fore
-4 732 m 1
 1121 732 l 1
 1121 572 l 1
 -4 572 l 1
 -4 732 l 1
EndSplineSet
KernsSLIFO: 163 -18 0 0 131 -47 0 0 91 -39 0 0 90 -39 0 0 89 -47 0 0 88 -18 0 0 87 -39 0 0 66 -18 0 0 59 -10 0 0 58 -131 0 0 57 -76 0 0 56 -47 0 0 55 -47 0 0 53 -143 0 0 52 -18 0 0 43 -94 0 0 42 -29 0 0 34 -47 0 0
EndChar
StartChar: emdash
Encoding: 8212 8212 238
Width: 1862
Flags: W
HStem: 572 161<-4 1869>
Fore
-4 733 m 1
 1869 733 l 1
 1869 572 l 1
 -4 572 l 1
 -4 733 l 1
EndSplineSet
KernsSLIFO: 163 -18 0 0 131 -47 0 0 91 -39 0 0 90 -39 0 0 89 -47 0 0 88 -18 0 0 87 -39 0 0 66 -18 0 0 59 -10 0 0 58 -131 0 0 57 -76 0 0 56 -47 0 0 55 -47 0 0 53 -143 0 0 52 -18 0 0 43 -94 0 0 42 -29 0 0 34 -47 0 0
EndChar
StartChar: quoteleft
Encoding: 8216 8216 239
Width: 432
Flags: W
VStem: -60 246<1371 1550>
Fore
183 1551 m 1
 186 1372 l 1
 284 997 l 1
 134 996 l 1
 -60 1371 l 1
 -63 1550 l 1
 183 1551 l 1
EndSplineSet
KernsSLIFO: 242 41 0 0 131 -94 0 0 34 -94 0 0
EndChar
StartChar: quoteright
Encoding: 8217 8217 240
Width: 432
Flags: W
VStem: 193 251<1378 1556>
Fore
193 1556 m 1
 444 1556 l 1
 444 1378 l 1
 249 1002 l 1
 96 1002 l 1
 193 1378 l 1
 193 1556 l 1
EndSplineSet
KernsSLIFO: 248 -201 0 0 243 41 0 0 242 180 0 0 239 180 0 0 172 160 0 0 171 160 0 0 169 80 0 0 131 -94 0 0 85 39 0 0 84 -68 0 0 77 41 0 0 74 41 0 0 73 41 0 0 58 104 0 0 56 55 0 0 55 94 0 0 53 104 0 0 52 20 0 0 34 -94 0 0 26 20 0 0 25 20 0 0 24 41 0 0 22 10 0 0 21 -70 0 0 20 20 0 0 19 20 0 0 15 -201 0 0 13 -201 0 0
EndChar
StartChar: quotesinglbase
Encoding: 8218 8218 241
Width: 432
Flags: W
VStem: 70 211<82 254>
Fore
70 82 m 1
 70 254 l 1
 281 254 l 1
 281 82 l 1
 117 -238 l 1
 -12 -238 l 1
 70 82 l 1
EndSplineSet
KernsSLIFO: 58 -201 0 0 56 -94 0 0 55 -201 0 0 53 -201 0 0
EndChar
StartChar: quotedblleft
Encoding: 8220 8220 242
Width: 821
Flags: W
VStem: -63 209<1363 1550> 344 210<1363 1550>
Fore
146 1550 m 1
 146 1363 l 1
 228 1019 l 1
 100 1019 l 1
 -63 1363 l 1
 -63 1550 l 1
 146 1550 l 1
554 1550 m 1
 554 1363 l 1
 635 1019 l 1
 507 1019 l 1
 344 1363 l 1
 344 1550 l 1
 554 1550 l 1
EndSplineSet
KernsSLIFO: 239 41 0 0 131 -94 0 0 34 -94 0 0
EndChar
StartChar: quotedblright
Encoding: 8221 8221 243
Width: 821
Flags: W
VStem: 188 210<1362 1556> 596 211<1362 1556>
Fore
188 1556 m 1
 188 1362 l 1
 106 998 l 1
 234 998 l 1
 398 1362 l 1
 398 1556 l 1
 188 1556 l 1
596 1556 m 1
 596 1362 l 1
 515 998 l 1
 644 998 l 1
 807 1362 l 1
 807 1556 l 1
 596 1556 l 1
EndSplineSet
KernsSLIFO: 248 -201 0 0 240 41 0 0 131 -94 0 0 85 39 0 0 84 -68 0 0 58 104 0 0 56 55 0 0 55 94 0 0 53 104 0 0 34 -94 0 0 15 -201 0 0 13 -201 0 0
EndChar
StartChar: quotedblbase
Encoding: 8222 8222 244
Width: 813
Flags: W
VStem: 74 211<82 254> 484 211<82 254>
Fore
484 82 m 1
 484 254 l 1
 695 254 l 1
 695 82 l 1
 531 -238 l 1
 402 -238 l 1
 484 82 l 1
74 82 m 1
 74 254 l 1
 285 254 l 1
 285 82 l 1
 121 -238 l 1
 -8 -238 l 1
 74 82 l 1
EndSplineSet
KernsSLIFO: 58 -201 0 0 56 -94 0 0 55 -201 0 0 53 -201 0 0
EndChar
StartChar: dagger
Encoding: 8224 8224 245
Width: 1118
Flags: W
HStem: 1034 123<135 500 676 1041>
VStem: 500 176<133 1034 1157 1496>
Fore
500 1157 m 1
 500 1496 l 1
 676 1496 l 1
 676 1157 l 1
 1041 1157 l 1
 1041 1034 l 1
 676 1034 l 1
 676 133 l 1
 500 133 l 1
 500 1034 l 1
 135 1034 l 1
 135 1157 l 1
 500 1157 l 1
EndSplineSet
EndChar
StartChar: daggerdbl
Encoding: 8225 8225 246
Width: 1118
Flags: W
HStem: 478 130<135 502 678 1045> 1068 129<135 502 678 1045>
VStem: 502 176<121 478 608 1068 1197 1553>
Fore
1045 608 m 1
 1045 478 l 1
 678 478 l 1
 678 121 l 1
 502 121 l 1
 502 478 l 1
 135 478 l 1
 135 608 l 1
 502 608 l 1
 502 1068 l 1
 135 1068 l 1
 135 1197 l 1
 502 1197 l 1
 502 1553 l 1
 678 1553 l 1
 678 1197 l 1
 1045 1197 l 1
 1045 1068 l 1
 678 1068 l 1
 678 608 l 1
 1045 608 l 1
EndSplineSet
EndChar
StartChar: bullet
Encoding: 8226 8226 247
Width: 932
Flags: W
Fore
115 658 m 0
 115 758.667 147.333 841.333 212 906 c 0
 277.333 971.333 359 1004 457 1004 c 0
 553.667 1004 633.333 971 696 905 c 0
 760 840.333 792 758 792 658 c 0
 792 557.333 760 474 696 408 c 0
 632 342 551.333 309 454 309 c 0
 356 309 275 342 211 408 c 0
 147 474 115 557.333 115 658 c 0
EndSplineSet
EndChar
StartChar: ellipsis
Encoding: 8230 8230 248
Width: 1673
Flags: W
HStem: 0 254<176 389 739 951 1292 1505>
VStem: 176 213<0 254> 739 212<0 254> 1292 213<0 254>
CounterMasks: 1 00
Fore
739 0 m 1
 739 254 l 1
 951 254 l 1
 951 0 l 1
 739 0 l 1
1292 0 m 1
 1292 254 l 1
 1505 254 l 1
 1505 0 l 1
 1292 0 l 1
176 0 m 1
 176 254 l 1
 389 254 l 1
 389 0 l 1
 176 0 l 1
EndSplineSet
KernsSLIFO: 243 -201 0 0 240 -201 0 0
EndChar
StartChar: perthousand
Encoding: 8240 8240 249
Width: 2849
Flags: W
HStem: -29 126<1454.13 1636.13 2300 2480.27> 644 143<373.133 556> 703 165<1455.13 1636.7 2297.12 2479.13> 1379 126<374.3 555.867>
VStem: 106 166<984.561 1223.45> 659 168<982.94 1205.32> 1183 169<264.593 486.24> 1741 168<274.767 469.611> 2028 167<261.593 495.758> 2586 168<271.767 462.467>
Fore
1547 703 m 0xbfc0
 1476.33 703 1424 662 1390 580 c 0
 1364 515.333 1351.33 446 1352 372 c 0
 1351.33 299.333 1364.33 238.667 1391 190 c 0
 1423.67 128 1475.33 97 1546 97 c 0
 1615.33 95.6667 1667 126.667 1701 190 c 0
 1726.33 237.333 1739.67 297.667 1741 371 c 0
 1740.33 442.333 1726.48 510.926 1700 577 c 0
 1666.77 659.907 1616 702 1547 703 c 0xbfc0
1547 868 m 0
 1666.33 866.667 1758 813.667 1822 709 c 0
 1879 613 1908 500 1909 370 c 0
 1907.67 254 1878 161 1820 91 c 0
 1755.33 10.3333 1663.67 -29 1545 -29 c 0
 1425 -29 1332.67 11.3333 1268 92 c 0
 1210.67 164 1183 257.665 1183 373 c 0
 1183 503.667 1212.61 616.158 1271 711 c 0
 1335.31 815.474 1427 868 1547 868 c 0
464 1379 m 0
 395 1379 343 1348 308 1286 c 0
 282 1238 270 1177.33 272 1104 c 0
 272 1020 285 950.333 311 895 c 0
 343 823 394.333 787 465 787 c 0xdfc0
 535 785.667 586.667 821.333 620 894 c 0
 646 948.667 659 1018.33 659 1103 c 0
 659 1174.33 646.333 1235 619 1285 c 0
 586.333 1346.33 534.667 1377.67 464 1379 c 0
426 -25 m 1
 1415 1501 l 1
 1584 1500 l 1
 595 -26 l 1
 426 -25 l 1
465 1505 m 0
 585 1504.33 677.333 1464 742 1384 c 0
 799.333 1311.33 827 1217.33 827 1102 c 0
 827 968 798.289 860.364 741 779 c 0
 676.951 688.035 585.004 644 465 644 c 0
 345.667 644 254 690.333 190 783 c 0
 134 865 106 972.333 106 1105 c 0
 102.667 1220.33 130.99 1313.4 190 1385 c 0
 255.692 1464.7 347 1505 465 1505 c 0
2389 862 m 0
 2509.67 862 2600.99 808.796 2664 703 c 0xbfc0
 2720.69 607.816 2751 496 2754 367 c 0
 2752.67 250.333 2722.66 157.277 2665 87 c 0
 2599.62 7.314 2508 -33 2389 -33 c 0
 2269.67 -31.6667 2177.67 8.66667 2113 88 c 0
 2055.67 160.667 2027.33 254.667 2028 370 c 0
 2026 500.667 2054.65 612.466 2113 706 c 0
 2178.36 810.775 2270 862 2389 862 c 0
2389 698 m 0
 2318.33 698 2266.07 657.97 2232 576 c 0
 2205.39 511.976 2193 443 2195 369 c 0
 2194.33 296.333 2207.33 235.667 2234 187 c 0
 2268.67 125 2321 93.6667 2391 93 c 0
 2459.67 93 2511.33 124.333 2546 187 c 0
 2571.33 234.333 2584.67 294.667 2586 368 c 0
 2582.67 440.667 2568.33 509 2543 573 c 0
 2509.67 656.333 2458.33 698 2389 698 c 0
EndSplineSet
EndChar
StartChar: guilsinglleft
Encoding: 8249 8249 250
Width: 784
Flags: W
HStem: 169 971<620 620>
VStem: 123 497<612 1140>
Fore
620 1140 m 1
 620 938 l 1
 301 654 l 1
 620 371 l 1
 620 169 l 1
 123 612 l 1
 123 697 l 1
 620 1140 l 1
EndSplineSet
EndChar
StartChar: guilsinglright
Encoding: 8250 8250 251
Width: 784
Flags: W
HStem: 166 951<152 152>
VStem: 152 484<684 1117>
Fore
152 1117 m 1
 636 684 l 1
 636 600 l 1
 152 166 l 1
 152 364 l 1
 463 642 l 1
 152 920 l 1
 152 1117 l 1
EndSplineSet
EndChar
StartChar: Euro
Encoding: 8364 8364 252
Width: 1118
Flags: W
HStem: -22 160<494.934 874.4> 527 123<26 105.5 325 699> 857 123<26 105 325 847> 1367 160<493.933 878.733>
VStem: 105 204<650 857>
CounterMasks: 1 00
Fore
105 703 m 1
 105 805 l 1
 105 857 l 1
 -29 857 l 1
 26 980 l 1
 122 980 l 1
 148 1145.33 209.667 1276.33 307 1373 c 0
 409.667 1475.67 543.333 1527 708 1527 c 0
 839.333 1527 977.667 1479.67 1123 1385 c 1
 1123 1172 l 1
 979.667 1302 844 1367 716 1367 c 0
 499.333 1367 369 1238 325 980 c 1
 902 980 l 1
 847 857 l 1
 309 857 l 1
 309 770 l 0
 309 720.759 309 720.759 309 650 c 1
 755 650 l 1
 699 527 l 1
 325 527 l 1
 370.333 267.667 500.667 138 716 138 c 0
 844 138 979.667 203 1123 333 c 1
 1123 122 l 1
 974.333 26 836 -22 708 -22 c 0
 544.103 -22 410.103 29.3333 306 132 c 0
 209.333 227.333 148 359 122 527 c 1
 -29 527 l 1
 26 650 l 1
 105.5 650 l 1
 105 703 l 1
EndSplineSet
EndChar
StartChar: trademark
Encoding: 8482 8482 253
Width: 1794
Flags: W
HStem: 1372 117<106 335 462 691>
VStem: 335 127<785 1372> 846 123<785 1408> 1509 124<785 1401>
CounterMasks: 1 00
Fore
1084 1489 m 1
 846 1489 l 1
 846 785 l 1
 969 785 l 1
 969 1408 l 1
 1200 948 l 1
 1285 948 l 1
 1509 1401 l 1
 1509 785 l 1
 1633 785 l 1
 1633 1489 l 1
 1406 1489 l 1
 1245 1117 l 1
 1084 1489 l 1
691 1489 m 1
 106 1489 l 1
 106 1372 l 1
 335 1372 l 1
 329 785 l 1
 462 785 l 1
 462 1372 l 1
 691 1372 l 1
 691 1489 l 1
EndSplineSet
EndChar
StartChar: partialdiff
Encoding: 8706 8706 254
Width: 1118
Flags: W
HStem: -35 64<310.467 590.133> 838 84<425.733 682.2> 1378 137<584 781.6>
VStem: 68 209<241.4 461.6> 828 195<857 1080>
Fore
794 707 m 1
 816.667 838.333 828 962.667 828 1080 c 0
 828 1278.67 774.333 1378 667 1378 c 0
 634.333 1378 586.667 1355.67 524 1311 c 0
 461 1267 421 1245 404 1245 c 0
 379.333 1245 357.667 1253.33 339 1270 c 0
 320.333 1286.67 311 1307 311 1331 c 0
 311 1389 344 1436 410 1472 c 0
 463.333 1500.67 521.333 1515 584 1515 c 0
 736 1515 851.667 1441 931 1293 c 0
 992.333 1173.67 1023 1028.33 1023 857 c 0
 1023 643 981.667 452 899 284 c 0
 795 71.3333 649.667 -35 463 -35 c 0
 345.667 -35 250 8 176 94 c 0
 104 176 68 278 68 400 c 0
 68 540 104.333 659.333 177 758 c 0
 258.333 867.333 364.333 922 495 922 c 0
 639 922 738.667 850.333 794 707 c 1
740 561 m 0
 740 745.667 678 838 554 838 c 0
 455.333 838 381 770 331 634 c 0
 295 535.333 277 425 277 303 c 0
 277 120.333 338.333 29 461 29 c 0
 560.333 29 635 96.6667 685 232 c 0
 721.667 328 740 437.667 740 561 c 0
EndSplineSet
EndChar
StartChar: product
Encoding: 8719 8719 255
Width: 1393
Flags: W
HStem: 1291 182<365 1027>
VStem: 156 209<-187 1291> 1027 209<-187 1291>
Fore
156 1473 m 1
 1236 1473 l 1
 1236 -187 l 1
 1027 -187 l 1
 1027 1291 l 1
 365 1291 l 1
 365 -187 l 1
 156 -187 l 1
 156 1473 l 1
EndSplineSet
EndChar
StartChar: summation
Encoding: 8721 8721 256
Width: 1303
Flags: W
HStem: -187 171<384 1226> 1301 172<402 1205>
Fore
152 1473 m 1
 1205 1473 l 1
 1205 1301 l 1
 402 1301 l 1
 964 663 l 1
 384 -16 l 1
 1226 -16 l 1
 1226 -187 l 1
 127 -187 l 1
 127 -55 l 1
 734 658 l 1
 152 1316 l 1
 152 1473 l 1
EndSplineSet
EndChar
StartChar: minus
Encoding: 8722 8722 257
Width: 1491
Flags: W
HStem: 572 170<182 1308>
Fore
182 742 m 1
 1308 742 l 1
 1308 572 l 1
 182 572 l 1
 182 742 l 1
EndSplineSet
EndChar
StartChar: radical
Encoding: 8730 8730 258
Width: 1491
Flags: W
HStem: 1678 109<1427 1564>
Fore
1338 1787 m 1
 1564 1787 l 1
 1564 1678 l 1
 1427 1678 l 1
 719 -143 l 1
 641 -143 l 1
 260 858 l 1
 112 807 l 1
 82 898 l 1
 419 1009 l 1
 724 205 l 1
 1338 1787 l 1
EndSplineSet
EndChar
StartChar: infinity
Encoding: 8734 8734 259
Width: 1862
Flags: W
HStem: 153 187<368.267 645.6> 159 196<1157.4 1459> 937 200<384.133 689.2> 954 189<1260.93 1476.73>
VStem: 111 97<528.533 753> 1637 97<543.6 765.467>
Fore
935 484 m 1x5c
 819 263.333 681.667 153 523 153 c 0
 396.333 153 294.16 205.453 216 310 c 0
 146.143 403.44 111 514.667 111 644 c 0
 111 775.333 140.667 886.667 200 978 c 0
 271 1084 370 1137 497 1137 c 0xac
 652.333 1137 789 1026 907 804 c 1
 1020 1030 1158 1143 1321 1143 c 0
 1447 1143 1549.18 1089.89 1628 984 c 0
 1698.54 889.234 1734 777.667 1734 649 c 0
 1734 517 1704 406 1644 316 c 0
 1574 211.333 1475 159 1347 159 c 0
 1198.33 159 1061 267.333 935 484 c 1x5c
844 715 m 1
 760 863 646 937 502 937 c 0
 411.333 937 339.667 909 287 853 c 0
 234.333 798.333 208 726 208 636 c 0
 208 553.333 231.527 484.496 278 429 c 0
 327.54 369.841 392.667 340 474 340 c 0
 606 340 729.333 465 844 715 c 1
1001 579 m 1
 1086.33 429.667 1200 355 1342 355 c 0
 1432 355 1503.14 383.508 1556 440 c 0
 1609.81 497.511 1637 570 1637 658 c 0
 1637 740.667 1613.47 809.503 1567 865 c 0
 1517.46 924.158 1452.33 954 1371 954 c 0x5c
 1286.33 954 1209 910 1139 822 c 0
 1098 770 1052 689 1001 579 c 1
EndSplineSet
EndChar
StartChar: integral
Encoding: 8747 8747 260
Width: 1118
Flags: W
HStem: -371 109<254 430.733> 1444 106<694 865>
VStem: 458 198<216.067 734.932>
Fore
338 -262 m 0
 409.333 -262 449.333 -32.6667 458 426 c 2
 461 591 l 2
 466.333 845 484.667 1037.33 516 1168 c 0
 578 1422.67 694.333 1550 865 1550 c 0
 915 1550 956.333 1537.67 989 1513 c 0
 1026.33 1485.67 1045 1448.33 1045 1401 c 0
 1045 1323 1005.33 1284 926 1284 c 0
 869.333 1284 832.667 1308.33 816 1357 c 2
 806 1407 l 2
 801.333 1431.67 794.333 1444 785 1444 c 0
 715 1444 674.667 1237.67 664 825 c 2
 656 522 l 2
 650 286.667 629.667 105.667 595 -21 c 0
 531.667 -254.333 418 -371 254 -371 c 0
 204.667 -371 163.333 -359 130 -335 c 0
 92.6667 -307.667 74 -270.333 74 -223 c 0
 74 -143.667 117 -104 203 -104 c 0
 246 -104 278 -123 299 -161 c 1
 301.667 -168.333 306.333 -188 313 -220 c 0
 319 -248 327.333 -262 338 -262 c 0
EndSplineSet
EndChar
StartChar: notequal
Encoding: 8800 8800 261
Width: 1491
Flags: W
HStem: 359 169<193 450 749 1295> 766 167<193 737 1035 1295>
Fore
193 933 m 1
 857 933 l 1
 1077 1245 l 1
 1184 1144 l 1
 1035 933 l 1
 1295 933 l 1
 1295 766 l 1
 917 766 l 1
 749 528 l 1
 1295 528 l 1
 1295 359 l 1
 630 359 l 1
 408 49 l 1
 300 150 l 1
 450 359 l 1
 193 359 l 1
 193 528 l 1
 570 528 l 1
 737 766 l 1
 193 766 l 1
 193 933 l 1
EndSplineSet
EndChar
StartChar: lessequal
Encoding: 8804 8804 262
Width: 1491
Flags: W
HStem: 0 169<201 1278>
Fore
1278 1012 m 1
 471 736 l 1
 1278 463 l 1
 1278 286 l 1
 201 652 l 1
 201 822 l 1
 1278 1187 l 1
 1278 1012 l 1
201 169 m 1
 1278 169 l 1
 1278 0 l 1
 201 0 l 1
 201 169 l 1
EndSplineSet
EndChar
StartChar: greaterequal
Encoding: 8805 8805 263
Width: 1491
Flags: W
HStem: 0 169<215 1287>
Fore
215 1012 m 1
 215 1187 l 1
 1287 822 l 1
 1287 652 l 1
 215 286 l 1
 215 463 l 1
 1019 736 l 1
 215 1012 l 1
1287 169 m 1
 1287 0 l 1
 215 0 l 1
 215 169 l 1
 1287 169 l 1
EndSplineSet
EndChar
StartChar: approxequal
Encoding: 8776 8776 264
Width: 1491
Flags: W
HStem: 312 162<905.199 1095.2> 444 162<380.8 568.8> 693 162<917.6 1097.8> 825 163<379.933 568.8>
Fore
1286 1012 m 1x20
 1286 838 l 1
 1174.67 741.333 1066 693 960 693 c 0x20
 897 693 824 712 741 750 c 0
 633.339 799.29 552 825 496 825 c 0
 399 825 297 773 190 669 c 1
 190 843 l 1
 302.667 939.667 411.333 988 516 988 c 0x10
 573.333 988 646.667 968.667 736 930 c 2
 742 927 l 2
 852.667 879 932 855 980 855 c 0
 1073.33 855 1175.33 907.333 1286 1012 c 1x20
1286 631 m 1
 1286 456 l 1
 1172.67 360 1064 312 960 312 c 0x80
 897 312 824 331 741 369 c 0
 633.339 418.29 552 444 496 444 c 0
 398.667 444 296.667 391.667 190 287 c 1
 190 462 l 1
 303.333 558 412 606 516 606 c 0x40
 580 606 653.333 587 736 549 c 2
 767 534 l 2
 852 494 923 474 980 474 c 0x80
 1073.33 474 1175.33 526.333 1286 631 c 1
EndSplineSet
EndChar
StartChar: lozenge
Encoding: 9674 9674 265
Width: 1491
Flags: W
Fore
743 1426 m 1
 263 602 l 1
 743 -231 l 1
 1224 602 l 1
 743 1426 l 1
743 1672 m 1
 1367 602 l 1
 743 -477 l 1
 119 602 l 1
 743 1672 l 1
EndSplineSet
EndChar
StartChar: fi
Encoding: 64257 64257 266
Width: 1092
Flags: W
HStem: 0 21G<205 390 895 1080> 977 143<29 205 390 895> 1321 235<895 1080> 1403 153<500 742>
VStem: 205 185<0 977 1120 1288.75> 895 185<0 977 1321 1556>
Fore
895 1556 m 1xec
 895 1321 l 1
 1080 1321 l 1
 1080 1556 l 1
 895 1556 l 1xec
1080 1120 m 1
 1080 0 l 1
 895 0 l 1
 895 977 l 1
 390 977 l 1
 390 0 l 1
 205 0 l 1
 205 977 l 1
 29 977 l 1
 29 1120 l 1
 205 1120 l 1
 205 1198 l 2
 205 1436.67 322.333 1556 557 1556 c 2
 742 1556 l 1
 742 1403 l 1
 566 1403 l 2xdc
 500 1403 454 1389 428 1361 c 0
 402.667 1333.67 390 1286.33 390 1219 c 2
 390 1120 l 1
 1080 1120 l 1
EndSplineSet
KernsSLIFO: 77 4 0 0
LCarets: 0 65535 '    ' 1 0
Ligature: 0 0 'liga' f i
EndChar
StartChar: fl
Encoding: 64258 64258 267
Width: 1085
Flags: W
HStem: 0 21G<205 390 895 1080> 977 143<29 205 390 693> 1403 153<480.2 895>
VStem: 205 185<0 977 1120 1309.68> 895 185<0 1403>
Fore
568 1556 m 2
 1080 1556 l 1
 1080 0 l 1
 895 0 l 1
 895 1403 l 1
 566 1403 l 2
 500 1403 454 1389 428 1361 c 0
 402.667 1333.67 390 1286.33 390 1219 c 2
 390 1120 l 1
 693 1120 l 1
 693 977 l 1
 390 977 l 1
 390 0 l 1
 205 0 l 1
 205 977 l 1
 29 977 l 1
 29 1120 l 1
 205 1120 l 1
 205 1198 l 2
 205 1322 234.333 1412.67 293 1470 c 0
 351.667 1527.33 443.333 1556 568 1556 c 2
EndSplineSet
KernsSLIFO: 74 4 0 0
LCarets: 0 65535 '    ' 1 0
Ligature: 0 0 'liga' f l
EndChar
StartChar: oneeighth
Encoding: 8539 8539 268
Width: 2048
Flags: W
HStem: -29 93<1557.4 1708.4> 450 105<1546 1703.19> 570 106<194 407 579 828> 863 93<1542.71 1698.9>
VStem: 407 172<676 1387> 1805.08 142.922<643.922 774.667>
CounterMasks: 1 00
Fore
1340 1489 m 1
 1479 1489 l 1
 671 -14 l 1
 533 -14 l 1
 1340 1489 l 1
194 570 m 1
 194 676 l 1
 407 676 l 1
 407 1387 l 1
 170 1342 l 1
 170 1456 l 1
 405 1501 l 1
 579 1501 l 1
 579 676 l 1
 828 677 l 1
 828 571 l 1
 194 570 l 1
1624 -29 m 0
 1518 -29 1435.83 -5.83333 1377.5 40.5 c 0
 1319.17 86.8333 1284 144.333 1272 213 c 0
 1262 278.333 1273.5 335 1306.5 383 c 0
 1339.5 431 1390.33 469 1459 497 c 1
 1404.33 521.667 1363.17 551.167 1335.5 585.5 c 0
 1307.83 619.833 1294.67 663.333 1296 716 c 0
 1300 786.667 1331.33 844.333 1390 889 c 0
 1448.67 933.667 1526.33 956 1623 956 c 0
 1662.33 956 1700.17 951.667 1736.5 943 c 0
 1772.83 934.333 1807.17 921.167 1839.5 903.5 c 0
 1871.83 885.833 1897.83 860.833 1917.5 828.5 c 0
 1937.17 796.167 1947.33 758.667 1948 716 c 0
 1950.67 626 1895.67 551.667 1783 493 c 1
 1855.67 460.333 1908.83 420.333 1942.5 373 c 0
 1976.17 325.667 1986 272.333 1972 213 c 0
 1956 138.333 1916.83 79.3333 1854.5 36 c 0
 1792.17 -7.33333 1715.33 -29 1624 -29 c 0
1442 716 m 0
 1446 612.667 1506.67 559 1624 555 c 0
 1680.67 553.667 1725.33 566.667 1758 594 c 0
 1790.67 621.333 1806.33 661.333 1805 714 c 0
 1804.33 760.667 1788 797 1756 823 c 0
 1724 849 1679.33 862.333 1622 863 c 0
 1565.33 863 1520.5 850.5 1487.5 825.5 c 0
 1454.5 800.5 1439.33 764 1442 716 c 0
1421 215 m 0
 1427 171 1449.5 135.167 1488.5 107.5 c 0
 1527.5 79.8333 1573 65.3333 1625 64 c 0
 1680.33 62.6667 1724.67 75.3333 1758 102 c 0
 1791.33 128.667 1813.33 165.667 1824 213 c 0
 1836.67 271 1822.5 324 1781.5 372 c 0
 1740.5 420 1688 446 1624 450 c 0
 1564 452.667 1512.83 429.667 1470.5 381 c 0
 1428.17 332.333 1411.67 277 1421 215 c 0
EndSplineSet
LCarets: 0 65535 '    ' 2 0 0
Ligature: 0 0 'frac' one slash eight
Ligature: 0 0 'frac' one fraction eight
EndChar
StartChar: fiveeighths
Encoding: 8541 8541 269
Width: 2048
Flags: W
HStem: -23 91<1514.67 1705.93> 859 93<1495.26 1659.86> 1040.72 86.7823<395.676 538.664> 1386 110<323 779>
VStem: 181 142<1134 1386> 635.651 151.349<743.818 908.278> 1770.07 147.926<643.324 771.8>
Fore
1354 1489 m 1
 1492 1489 l 1
 686 0 l 1
 548 0 l 1
 1354 1489 l 1
779 1496 m 1
 779 1386 l 1
 323 1386 l 1
 323 1134 l 1
 360.333 1137.33 398.167 1138 436.5 1136 c 0
 474.833 1134 512 1131.17 548 1127.5 c 0
 584 1123.83 617.333 1115 648 1101 c 0
 678.667 1087 705 1069.5 727 1048.5 c 0
 749 1027.5 765.5 998.667 776.5 962 c 0
 787.5 925.333 791 882.333 787 833 c 0
 783.667 779 772.667 732.667 754 694 c 0
 735.333 655.333 710 625.333 678 604 c 0
 646 582.667 610.333 566.833 571 556.5 c 0
 531.667 546.167 487.5 542 438.5 544 c 0
 389.5 546 340.667 551.167 292 559.5 c 0
 243.333 567.833 191.667 579.667 137 595 c 1
 137 727 l 1
 230.333 685 312.667 659.5 384 650.5 c 0
 455.333 641.5 513.5 651 558.5 679 c 0
 603.5 707 629 754.333 635 821 c 0
 639 867 633.5 906 618.5 938 c 0
 603.5 970 582 993.833 554 1009.5 c 0
 526 1025.17 491.667 1035.33 451 1040 c 0
 410.333 1044.67 368 1044.67 324 1040 c 0
 280 1035.33 232.667 1026.67 182 1014 c 1
 180.667 1054 180.333 1134.5 181 1255.5 c 0
 181.667 1376.5 182 1456.67 182 1496 c 1
 779 1496 l 1
1582 -23 m 0
 1472.67 -23 1387.83 -0.333333 1327.5 45 c 0
 1267.17 90.3333 1231.33 147.333 1220 216 c 0
 1208 280 1219.17 335.833 1253.5 383.5 c 0
 1287.83 431.167 1341 469 1413 497 c 1
 1297.67 543 1241.33 615 1244 713 c 0
 1248 783 1280.33 840.333 1341 885 c 0
 1401.67 929.667 1482 952 1582 952 c 0
 1622.67 952 1661.67 947.667 1699 939 c 0
 1736.33 930.333 1771.67 917.167 1805 899.5 c 0
 1838.33 881.833 1865.17 857 1885.5 825 c 0
 1905.83 793 1916.67 755.667 1918 713 c 0
 1920.67 627.667 1864 554.333 1748 493 c 1
 1822 461.667 1876.33 422.333 1911 375 c 0
 1945.67 327.667 1956.33 274.667 1943 216 c 0
 1925.67 141.333 1885 82.8333 1821 40.5 c 0
 1757 -1.83333 1677.33 -23 1582 -23 c 0
1395 714 m 0
 1395 669.333 1410 632.333 1440 603 c 0
 1470 573.667 1517.67 557.667 1583 555 c 0
 1640.33 552.333 1686.17 565 1720.5 593 c 0
 1754.83 621 1771.33 660.667 1770 712 c 0
 1769.33 758 1752.33 793.833 1719 819.5 c 0
 1685.67 845.167 1639.67 858.333 1581 859 c 0
 1521.67 859 1475.17 846.667 1441.5 822 c 0
 1407.83 797.333 1392.33 761.333 1395 714 c 0
1373 218 m 0
 1379 174.667 1402.33 139.167 1443 111.5 c 0
 1483.67 83.8333 1530.67 69.3333 1584 68 c 0
 1694 65.3333 1762.67 114.667 1790 216 c 0
 1803.33 273.333 1788.67 326 1746 374 c 0
 1703.33 422 1649 447.333 1583 450 c 0
 1521 454 1468.17 431.667 1424.5 383 c 0
 1380.83 334.333 1363.67 279.333 1373 218 c 0
EndSplineSet
LCarets: 0 65535 '    ' 2 0 0
Ligature: 0 0 'frac' five slash eight
Ligature: 0 0 'frac' five fraction eight
EndChar
StartChar: threeeighths
Encoding: 8540 8540 270
Width: 2048
Flags: W
HStem: -28 91<1478.67 1643.24> 546 107<252.123 504.2> 847 92<1458.52 1625.44> 1016 105<261 473.659> 1418 108<281.065 512.2>
VStem: 591 135<1140.6 1389.33> 614 136<704.667 917.867> 1205 152<577.333 765.918> 1736 150<633.115 759.933>
Fore
1335 211 m 0xf980
 1341 168.333 1364.67 133.333 1406 106 c 0
 1447.33 78.6668 1494.67 64.3333 1548 63 c 0
 1605.33 60.3333 1651.5 72.3333 1686.5 99 c 0
 1721.5 125.667 1744.67 162.333 1756 209 c 0
 1770.67 265.667 1756.33 317.833 1713 365.5 c 0
 1669.67 413.167 1614.33 438.333 1547 441 c 0
 1484.33 445 1431 423 1387 375 c 0
 1343 327 1325.67 272.333 1335 211 c 0xf980
1357 703 m 0
 1361 602.333 1424.35 550.121 1547 545 c 0
 1605.68 542.55 1652.17 555 1686.5 583 c 0
 1720.83 611 1737.33 650.333 1736 701 c 0
 1735.33 746.333 1718.33 781.833 1685 807.5 c 0
 1651.67 833.167 1605 846.333 1545 847 c 0
 1485 847 1438.33 834.833 1405 810.5 c 0
 1371.67 786.167 1355.67 750.333 1357 703 c 0
1547 -28 m 0
 1436.33 -28 1350.83 -5.66667 1290.5 39 c 0
 1230.17 83.6667 1193.33 140.333 1180 209 c 0
 1168 272.333 1179.5 327.833 1214.5 375.5 c 0
 1249.5 423.167 1303 460.667 1375 488 c 1
 1259 534.667 1202.33 606.333 1205 703 c 0
 1209 771.667 1241.67 828.167 1303 872.5 c 0
 1364.33 916.833 1445.33 939 1546 939 c 0
 1586.67 939 1626 934.667 1664 926 c 0
 1702 917.333 1737.83 904.333 1771.5 887 c 0
 1805.17 869.667 1832.33 845.167 1853 813.5 c 0
 1873.67 781.833 1884.67 745 1886 703 c 0
 1888.67 617.667 1831.33 544.667 1714 484 c 1
 1788.67 452.667 1843.67 413.5 1879 366.5 c 0
 1914.33 319.5 1924.86 267.033 1911 209 c 0
 1893.49 135.709 1852.67 77.8333 1788 35.5 c 0
 1723.33 -6.83332 1643 -28 1547 -28 c 0
542 1073 m 1
 606.667 1059.67 657.315 1032.65 694 992 c 0
 731.314 950.65 750 899.667 750 839 c 0
 750 735.667 709.916 659.469 630 610 c 0
 561.261 567.45 470 546 356 546 c 0
 273.333 546 201 559.667 139 587 c 1
 139 711 l 1
 214.333 669 285.333 649.667 352 653 c 0
 526.667 653 614 715 614 839 c 0xfb80
 614 900 590 946 542 977 c 0
 500.667 1003 446 1016 378 1016 c 2
 261 1016 l 1
 261 1121 l 1
 384 1121 l 2
 522 1121 591 1170 591 1268 c 0
 591 1368 520 1418 378 1418 c 0
 304 1418 234.333 1400.67 169 1366 c 1
 169 1480 l 1
 236.333 1510.67 310 1526 390 1526 c 0
 484 1526 560.667 1507.33 620 1470 c 0
 690.667 1427.33 726 1364.33 726 1281 c 0xfd80
 726 1171 664.667 1101.67 542 1073 c 1
1322 1489 m 1
 1460 1489 l 1
 654 -5 l 1
 516 -5 l 1
 1322 1489 l 1
EndSplineSet
LCarets: 0 65535 '    ' 2 0 0
Ligature: 0 0 'frac' three slash eight
Ligature: 0 0 'frac' three fraction eight
EndChar
StartChar: Abreve
Encoding: 258 258 272
Width: 1229
Flags: W
HStem: -8 21G<-10 190 1029 1238> 408 169<380 839> 1630 137<476.5 772.9>
Fore
839 577 m 1
 614 1286 l 1
 380 577 l 1
 839 577 l 1
-10 -8 m 1
 500 1485 l 1
 729 1485 l 1
 1238 -8 l 1
 1029 -8 l 1
 894 408 l 1
 325 408 l 1
 190 -8 l 1
 -10 -8 l 1
313 1917 m 5
 431 1917 l 5
 446 1817 511 1767 626 1767 c 4
 739 1767 804 1817 821 1917 c 5
 939 1917 l 5
 925.667 1725.67 821.333 1630 626 1630 c 4
 430.667 1630 326.333 1725.67 313 1917 c 5
EndSplineSet
EndChar
StartChar: Amacron
Encoding: 256 256 273
Width: 1229
Flags: W
HStem: 0 21G<-10 190 1029 1238> 417 169<380 839> 1698 154<248 999>
Fore
248 1852 m 1
 999 1852 l 1
 999 1698 l 1
 245 1698 l 1
 248 1852 l 1
839 586 m 1
 614 1295 l 1
 380 586 l 1
 839 586 l 1
-10 0 m 1
 500 1494 l 1
 729 1494 l 1
 1238 0 l 1
 1029 0 l 1
 894 417 l 1
 325 417 l 1
 190 0 l 1
 -10 0 l 1
EndSplineSet
EndChar
StartChar: Ccircumflex
Encoding: 264 264 274
Width: 1231
Flags: W
HStem: 1349 165.887<547.937 801.731>
VStem: 66 206<598.366 907.8>
Fore
1196 1154 m 1
 1113.33 1223.33 1029.17 1275.17 943.5 1309.5 c 0
 857.833 1343.83 780.333 1357 711 1349 c 0
 411 1311.67 264.667 1110.67 272 746 c 0
 272 744.667 272.049 742.914 272.147 740.742 c 0
 272.716 716.914 273.333 697.667 274 683 c 0
 274.667 668.333 276.833 645.167 280.5 613.5 c 0
 284.167 581.833 288.5 554.833 293.5 532.5 c 0
 298.5 510.167 306.333 482.833 317 450.5 c 0
 327.667 418.167 340.167 390.333 354.5 367 c 0
 368.833 343.667 387.333 318.667 410 292 c 0
 432.667 265.333 457.833 243 485.5 225 c 0
 513.167 207 546.333 190.833 585 176.5 c 0
 623.667 162.167 665.667 152.333 711 147 c 0
 849.667 131 1011.33 195.333 1196 340 c 1
 1196 104 l 1
 1120 57.3333 1039.5 23.6667 954.5 3 c 0
 869.5 -17.6667 788.333 -26.6667 711 -24 c 0
 623.667 -20 544.5 -4.33333 473.5 23 c 0
 402.5 50.3333 341.833 87 291.5 133 c 0
 241.167 179 199 233.833 165 297.5 c 0
 131 361.167 106 430.333 90 505 c 0
 74 579.667 66 660 66 746 c 0
 66 770 66.5 792.667 67.5 814 c 0
 68.5 835.333 71.1667 865.167 75.5 903.5 c 0
 79.8333 941.833 85.8333 977.167 93.5 1009.5 c 0
 101.167 1041.83 112.833 1078.67 128.5 1120 c 0
 144.167 1161.33 162.667 1198.83 184 1232.5 c 0
 205.333 1266.17 232.667 1300.33 266 1335 c 0
 299.333 1369.67 336.5 1399.17 377.5 1423.5 c 0
 418.5 1447.83 467.833 1468.67 525.5 1486 c 0
 583.167 1503.33 645.667 1514.33 713 1519 c 0
 763 1522.33 810.5 1521.17 855.5 1515.5 c 0
 900.5 1509.83 945.167 1499 989.5 1483 c 0
 1033.83 1467 1068.17 1453.67 1092.5 1443 c 0
 1116.83 1432.33 1151.33 1415.67 1196 1393 c 1
 1196 1154 l 1
619 2057 m 1
 835 2057 l 1
 1065 1673 l 1
 905 1673 l 1
 723 1930 l 1
 523 1673 l 1
 363 1673 l 1
 619 2057 l 1
EndSplineSet
EndChar
StartChar: Cdotaccent
Encoding: 266 266 275
Width: 1231
Flags: W
HStem: 1674 204<605 809>
VStem: 75 206<599.366 908.8> 605 204<1674 1878>
Fore
1205 1155 m 1
 1122.33 1224.33 1038.17 1276.17 952.5 1310.5 c 0
 866.833 1344.83 789.333 1358 720 1350 c 0
 420 1312.67 273.667 1111.67 281 747 c 0
 281 745.667 281.049 743.914 281.147 741.742 c 0
 281.716 717.914 282.333 698.667 283 684 c 0
 283.667 669.333 285.833 646.167 289.5 614.5 c 0
 293.167 582.833 297.5 555.833 302.5 533.5 c 0
 307.5 511.167 315.333 483.833 326 451.5 c 0
 336.667 419.167 349.167 391.333 363.5 368 c 0
 377.833 344.667 396.333 319.667 419 293 c 0
 441.667 266.333 466.833 244 494.5 226 c 0
 522.167 208 555.333 191.833 594 177.5 c 0
 632.667 163.167 674.667 153.333 720 148 c 0
 858.667 132 1020.33 196.333 1205 341 c 1
 1205 105 l 1
 1129 58.3333 1048.5 24.6667 963.5 4 c 0
 878.5 -16.6667 797.333 -25.6667 720 -23 c 0
 632.667 -19 553.5 -3.33333 482.5 24 c 0
 411.5 51.3333 350.833 88 300.5 134 c 0
 250.167 180 208 234.833 174 298.5 c 0
 140 362.167 115 431.333 99 506 c 0
 83 580.667 75 661 75 747 c 0
 75 771 75.5 793.667 76.5 815 c 0
 77.5 836.333 80.1667 866.167 84.5 904.5 c 0
 88.8333 942.833 94.8333 978.167 102.5 1010.5 c 0
 110.167 1042.83 121.833 1079.67 137.5 1121 c 0
 153.167 1162.33 171.667 1199.83 193 1233.5 c 0
 214.333 1267.17 241.667 1301.33 275 1336 c 0
 308.333 1370.67 345.5 1400.5 386.5 1425.5 c 0
 427.5 1450.5 476.833 1471.67 534.5 1489 c 0
 592.167 1506.33 654.667 1516.67 722 1520 c 0
 776.891 1522.72 824.391 1521.55 864.5 1516.5 c 0
 909.5 1510.83 954.167 1500 998.5 1484 c 0
 1042.83 1468 1077.17 1454.67 1101.5 1444 c 0
 1125.83 1433.33 1160.33 1416.67 1205 1394 c 1
 1205 1155 l 1
605 1878 m 1
 809 1878 l 1
 809 1674 l 1
 605 1674 l 1
 605 1878 l 1
EndSplineSet
EndChar
StartChar: Dcaron
Encoding: 270 270 276
Width: 1389
Flags: W
HStem: 0 163<350 716.667> 1326 166<350 780.067>
VStem: 152 198<163 1326> 1110 213<485.7 1009.6>
Fore
514 1326 m 2
 350 1326 l 1
 350 163 l 1
 514 165 l 2
 716.667 165 866.333 211 963 303 c 0
 1061 398 1110 546 1110 747 c 0
 1110 949 1061 1096.67 963 1190 c 0
 868.333 1280.67 718.667 1326 514 1326 c 2
152 0 m 1
 152 1492 l 1
 483 1492 l 2
 758 1492 963 1438 1098 1330 c 0
 1248 1208.67 1323 1014.33 1323 747 c 0
 1323 478.333 1248 283.667 1098 163 c 0
 961.333 54.3333 756.333 3.46945e-18 483 0 c 2
 152 0 l 1
561 1669 m 1
 316 2045 l 1
 455 2045 l 1
 635 1800 l 1
 815 2045 l 1
 954 2045 l 1
 709 1669 l 1
 561 1669 l 1
EndSplineSet
EndChar
StartChar: Dslash
Encoding: 272 272 277
Width: 1389
Flags: W
HStem: 0 164<379 805.6> 733 150<24 181 379 717> 1325 164<379 809.067>
VStem: 181 198<162 733 883 1325> 1139 213<484.7 1009.47>
Fore
181 0 m 1
 181 733 l 1
 24 733 l 1
 24 883 l 1
 181 883 l 1
 181 1489 l 1
 512 1489 l 2
 788.667 1489 993.667 1435.67 1127 1329 c 0
 1277 1208.33 1352 1014 1352 746 c 0
 1352 478 1277 283.333 1127 162 c 0
 991 54 786 0 512 0 c 2
 181 0 l 1
543 1325 m 2
 379 1325 l 1
 379 883 l 1
 717 883 l 1
 717 733 l 1
 379 733 l 1
 379 162 l 1
 543 164 l 2
 745 164 894.667 210 992 302 c 0
 1090 397 1139 545 1139 746 c 0
 1139 948.667 1090 1096.33 992 1189 c 0
 897.333 1279.67 747.667 1325 543 1325 c 2
EndSplineSet
EndChar
StartChar: Edotaccent
Encoding: 278 278 280
Width: 1149
Flags: W
HStem: 0 176<350 1083> 729 176<350 1033> 1313 176<350 1083> 1661 254<540 751>
VStem: 152 198<176 729 905 1313> 540 211<1661 1915>
Fore
152 0 m 1
 152 1489 l 1
 1083 1489 l 1
 1083 1313 l 1
 350 1313 l 1
 350 905 l 1
 1033 905 l 1
 1033 729 l 1
 350 729 l 1
 350 176 l 1
 1083 176 l 1
 1083 0 l 1
 152 0 l 1
540 1915 m 1
 751 1915 l 1
 751 1661 l 1
 540 1661 l 1
 540 1915 l 1
EndSplineSet
EndChar
StartChar: Emacron
Encoding: 274 274 281
Width: 1149
Flags: W
HStem: 0 176<350 1083> 729 176<350 1033> 1313 176<350 1083> 1694 158<245 992>
VStem: 152 198<176 729 905 1313>
Fore
152 0 m 1
 152 1489 l 1
 1083 1489 l 1
 1083 1313 l 1
 350 1313 l 1
 350 905 l 1
 1033 905 l 1
 1033 729 l 1
 350 729 l 1
 350 176 l 1
 1083 176 l 1
 1083 0 l 1
 152 0 l 1
245 1852 m 1
 992 1852 l 1
 992 1694 l 1
 245 1694 l 1
 245 1852 l 1
EndSplineSet
EndChar
StartChar: Gcedilla
Encoding: 290 290 282
Width: 1366
Flags: W
HStem: -386 123<636.65 835.133> -34 176<659.533 793> 575 175<694.104 1132.9>
VStem: 78 206<598.1 906.673> 851 140<-250.467 -138.4> 1084 194<134.721 615.039>
Fore
1278 1146 m 1
 1102 1279.33 938 1345.67 786 1345 c 0
 712 1345 645 1333.33 585 1310 c 0
 525 1286.67 471.5 1250.5 424.5 1201.5 c 0
 377.5 1152.5 341.667 1086 317 1002 c 0
 292.333 918 281.333 819.333 284 706 c 0
 285.333 650 292.167 595.333 304.5 542 c 0
 316.833 488.667 336.167 437 362.5 387 c 0
 388.833 337 420.5 293.5 457.5 256.5 c 0
 494.5 219.5 540.5 190.5 595.5 169.5 c 0
 650.5 148.5 711 139.333 777 142 c 0
 887.667 146.667 990 162.667 1084 190 c 1
 1081.33 232.667 1081.33 297 1084 383 c 0
 1086.67 469 1086.67 533 1084 575 c 1
 1047.33 577 990.5 577 913.5 575 c 0
 836.5 573 779.667 573 743 575 c 1
 743.667 593 743.333 622.333 742 663 c 0
 740.667 703.667 740.667 733 742 751 c 1
 800.667 751.667 889.667 751.333 1009 750 c 0
 1128.33 748.667 1217.33 748.333 1276 749 c 1
 1276.67 676.333 1277 568 1277 424 c 0
 1277 280 1277.33 171.667 1278 99 c 1
 1134.67 31.6667 1012.33 -9.66667 911 -25 c 1
 964.333 -93.6667 991 -154 991 -206 c 0
 991 -326 911.667 -386 753 -386 c 0
 692.333 -386 633.667 -378 577 -362 c 1
 577 -231 l 1
 621 -252.333 672.667 -263 732 -263 c 0
 811.333 -263 851 -231.667 851 -169 c 0
 851 -136.333 831.667 -91.3333 793 -34 c 1
 690.333 -32.6667 597 -17.3333 513 12 c 0
 429 41.3333 355 85.3333 291 144 c 0
 227 202.667 176.5 279.167 139.5 373.5 c 0
 102.5 467.833 82 577.333 78 702 c 0
 62 1216.67 290 1488 762 1516 c 0
 951.333 1527.33 1121.67 1483.67 1273 1385 c 1
 1273.67 1358.33 1274.5 1318.5 1275.5 1265.5 c 0
 1276.5 1212.5 1277.33 1172.67 1278 1146 c 1
EndSplineSet
EndChar
StartChar: Gdotaccent
Encoding: 288 288 284
Width: 1366
Flags: W
HStem: -34 176<650.789 910.133> 575 175<684.994 1123.75> 1676 254<616 827>
VStem: 69 206<592.274 906.673> 616 211<1676 1930> 1075 194<134.721 614.43>
Fore
1269 1146 m 1
 1097 1278.67 933 1345 777 1345 c 0
 703 1345 636 1333.33 576 1310 c 0
 516 1286.67 462.5 1250.5 415.5 1201.5 c 0
 368.5 1152.5 332.667 1086 308 1002 c 0
 283.333 918 272.333 819.333 275 706 c 0
 275.667 650.667 282.167 596.167 294.5 542.5 c 0
 306.833 488.833 326.167 437 352.5 387 c 0
 378.833 337 410.667 293.333 448 256 c 0
 485.333 218.667 531.667 189.5 587 168.5 c 0
 642.333 147.5 702.667 138.667 768 142 c 0
 877.333 146.667 979.667 162.667 1075 190 c 1
 1072.33 232.667 1072.33 297 1075 383 c 0
 1077.67 469 1077.67 533 1075 575 c 1
 1038.33 577 981.667 577 905 575 c 0
 828.333 573 771.333 573 734 575 c 1
 735.333 593 735.333 622.333 734 663 c 0
 732.667 703.667 732.333 733 733 751 c 1
 792.333 751.667 881.333 751.333 1000 750 c 0
 1118.67 748.667 1207.67 748.333 1267 749 c 1
 1267.67 675.667 1268 567.333 1268 424 c 0
 1268 280.667 1268.33 172.333 1269 99 c 1
 1176.33 55.6667 1092.67 22.6667 1018 0 c 0
 943.333 -22.6667 867.667 -34 791 -34 c 0
 687.667 -34 593.5 -19.3333 508.5 10 c 0
 423.5 39.3333 348.667 83.3333 284 142 c 0
 219.333 200.667 168.333 277.5 131 372.5 c 0
 93.6667 467.5 73 577.333 69 702 c 0
 53 1215.33 281 1486.67 753 1516 c 0
 943 1527.33 1113.33 1483.67 1264 1385 c 1
 1265.33 1358.33 1266.33 1318.5 1267 1265.5 c 0
 1267.67 1212.5 1268.33 1172.67 1269 1146 c 1
616 1930 m 1
 827 1930 l 1
 827 1676 l 1
 616 1676 l 1
 616 1930 l 1
EndSplineSet
EndChar
StartChar: Tcedilla
Encoding: 354 354 294
Width: 1196
Flags: W
HStem: -366 123<497.125 695.133> -20 20G<498 644> 1313 176<0 305.971 892.643 1198>
VStem: 498 203<29 1323> 711 140<-230.467 -104.533>
Fore
0 1313 m 1
 0 1489 l 1
 1198 1489 l 1
 1198 1313 l 1
 701 1323 l 1
 701 29 l 1
 742 29 l 1
 814.667 -51.6667 851 -123.333 851 -186 c 0
 851 -306 771.667 -366 613 -366 c 0
 552.333 -366 493.667 -358 437 -342 c 1
 437 -211 l 1
 481.667 -232.333 533.333 -243 592 -243 c 0
 671.333 -243 711 -211.667 711 -149 c 0
 711 -113 688.667 -63.3333 644 0 c 1
 498 0 l 1
 498 1323 l 1
 0 1313 l 1
EndSplineSet
EndChar
StartChar: Uhungarumlaut
Encoding: 368 368 295
Width: 1343
Flags: W
HStem: -29 164<495.867 858.133>
VStem: 138 198<1119.99 1489> 138 191<418.199 1379.68> 1014 201<417.44 1489>
Fore
544 2053 m 1x90
 354 1677 l 1
 491 1677 l 1
 714 2053 l 1
 544 2053 l 1x90
965 2053 m 1
 760 1677 l 1
 895 1677 l 1
 1143 2053 l 1
 965 2053 l 1
138 561 m 2xb0
 138 1489 l 1
 336 1489 l 1xd0
 329 595 l 2
 335 434.333 352.333 323.333 381 262 c 1
 439 177.333 537.667 135 677 135 c 0
 816.333 135 915 177.333 973 262 c 1
 1000.33 336.667 1013.54 444.001 1014 584 c 2
 1017 1489 l 1
 1215 1489 l 1
 1215 560 l 2
 1237 167.333 1057.67 -29 677 -29 c 0
 295.667 -29 116 167.667 138 561 c 2xb0
EndSplineSet
EndChar
StartChar: Uring
Encoding: 366 366 296
Width: 1343
Flags: W
HStem: -31 164<523.867 886.133> 1403 123<646.855 763.442> 1829 123<646.855 763.442>
VStem: 166 198<1119.43 1489> 166 191<416.199 1379.43> 433 122<1617.86 1737.35> 859 122<1621.55 1733.68> 1042 201<415.44 1489>
Fore
981 1678 m 0xe7
 981 1599.33 955 1533.67 903 1481 c 0
 851 1429 785.667 1403 707 1403 c 0
 628.333 1403 563 1429 511 1481 c 0
 459 1533.67 433 1599.33 433 1678 c 0
 433 1756.67 459 1822 511 1874 c 0
 563 1926 628.333 1952 707 1952 c 0
 785.667 1952 851 1926 903 1874 c 0
 955 1822 981 1756.67 981 1678 c 0xe7
859 1678 m 0
 859 1720 844.333 1755.67 815 1785 c 0
 785.667 1814.33 749.667 1829 707 1829 c 0
 663 1829 626.667 1814.67 598 1786 c 0
 569.333 1757.33 555 1721.33 555 1678 c 0
 555 1634 569.333 1597.67 598 1569 c 0
 626.667 1540.33 663 1526 707 1526 c 0
 749.667 1526 785.667 1540.67 815 1570 c 0
 844.333 1599.33 859 1635.33 859 1678 c 0
166 559 m 2xef
 166 1489 l 1
 364 1489 l 1xf7
 357 593 l 2
 363 432.333 380.333 321.333 409 260 c 1
 467 175.333 565.667 133 705 133 c 0
 844.333 133 943 175.333 1001 260 c 1
 1028.33 334.667 1041.54 442.001 1042 582 c 2
 1045 1489 l 1
 1243 1489 l 1
 1243 558 l 2
 1265 165.333 1085.67 -31 705 -31 c 0
 323.667 -31 144 165.667 166 559 c 2xef
EndSplineSet
EndChar
StartChar: abreve
Encoding: 259 259 299
Width: 1075
Flags: W
HStem: -28 154<403.467 585.467> 562 157<445 647.414> 992 156<382.267 627.733> 1247 137<392.5 688.9>
VStem: 57 171<249.2 462.4> 759 187<0 131.657 413 562>
Fore
759 562 m 1
 588 562 l 2
 506.667 563.333 441.333 554.333 392 535 c 0
 282.667 499.667 228 433 228 335 c 0
 228 269 255 217.333 309 180 c 0
 363 144 423.667 126 491 126 c 0
 563.667 125.333 628.333 166.333 685 249 c 0
 734.333 322.333 759 413 759 521 c 2
 759 562 l 1
946 638 m 2
 946 0 l 1
 759 0 l 1
 766 150 l 1
 685.333 30 578.333 -29.3333 445 -28 c 0
 310.333 -30.6667 212 0 150 64 c 0
 88 128 57 214.333 57 323 c 0
 57 577 228 709 570 719 c 2
 759 734 l 1
 759 724 l 1
 790.333 814 778 882 722 928 c 0
 671.333 970.667 600.333 992 509 992 c 0
 389.667 992 277.333 961.333 172 900 c 1
 172 1070 l 1
 297.333 1122 415.667 1148 527 1148 c 0
 806.333 1146.67 946 976.667 946 638 c 2
229 1534 m 5
 347 1534 l 5
 362 1434 427 1384 542 1384 c 4
 655 1384 720 1434 737 1534 c 5
 855 1534 l 5
 841.667 1342.67 737.333 1247 542 1247 c 4
 346.667 1247 242.333 1342.67 229 1534 c 5
EndSplineSet
EndChar
StartChar: amacron
Encoding: 257 257 300
Width: 1075
Flags: W
HStem: -23 154<403.467 585.467> 567 157<445 647.414> 997 156<382.267 627.733> 1340 149<155 893>
VStem: 57 171<253.333 467.4> 759 187<4 136.535 418 567>
Fore
155 1489 m 1
 893 1489 l 1
 893 1340 l 1
 151 1340 l 1
 155 1489 l 1
759 567 m 1
 588 567 l 2
 506.667 568.333 441.333 559.333 392 540 c 0
 282.667 504.667 228 438 228 340 c 0
 228 273.333 255 221.667 309 185 c 0
 363 149 423.667 131 491 131 c 0
 563.667 130.333 628.333 171.333 685 254 c 0
 734.333 327.333 759 418 759 526 c 2
 759 567 l 1
946 643 m 2
 946 4 l 1
 759 4 l 1
 766 155 l 1
 685.333 35 578.333 -24.3333 445 -23 c 0
 310.333 -25.6667 212 5 150 69 c 0
 88 133 57 219.333 57 328 c 0
 57 582 228 714 570 724 c 2
 759 739 l 1
 759 729 l 1
 790.333 819 778 887 722 933 c 0
 671.333 975.667 600.333 997 509 997 c 0
 389.667 997 277.333 966.333 172 905 c 1
 172 1075 l 1
 297.333 1127 415.667 1153 527 1153 c 0
 806.333 1151.67 946 981.667 946 643 c 2
EndSplineSet
EndChar
StartChar: cdotaccent
Encoding: 267 267 302
Width: 956
Flags: W
HStem: -21 156<411.2 711.867> 1309 204<438 642>
VStem: 58 194<338.3 752.133> 438 204<1309 1513>
Fore
908 1054 m 1
 908 897 l 1
 802.667 954.333 697.667 983 593 983 c 0
 466.333 983 382.333 952.333 341 891 c 0
 281.667 815.667 252 713.333 252 584 c 0
 237 441 259 332 318 257 c 1
 363.333 175.667 449 135 575 135 c 0
 682.333 135 784.333 175.333 881 256 c 1
 890 51 l 1
 787.333 3 675.667 -21 555 -21 c 0
 380.333 -21 254 33.3333 176 142 c 0
 82 246.667 42.6667 394 58 584 c 0
 58 764 110.667 903.667 216 1003 c 0
 303.333 1082.33 431 1128 599 1140 c 1
 705.667 1128.67 808.667 1100 908 1054 c 1
438 1513 m 1
 642 1513 l 1
 642 1309 l 1
 438 1309 l 1
 438 1513 l 1
EndSplineSet
EndChar
StartChar: dmacron
Encoding: 273 273 303
Width: 1133
Flags: W
HStem: -24 154<409.667 634.133> 998 154<410.1 634.133> 1280 122<514 806 990 1162>
VStem: 59 190<404.733 713.267> 806 184<5 173 409.733 718.267 955 1280 1402 1561>
Fore
514 1280 m 1
 514 1402 l 1
 806 1402 l 1
 806 1561 l 1
 990 1561 l 1
 990 1402 l 1
 1162 1402 l 1
 1162 1280 l 1
 990 1280 l 1
 990 5 l 1
 806 5 l 1
 806 173 l 1
 730 41.6667 610.333 -24 447 -24 c 0
 343.667 -27.3333 250.333 33.6667 167 159 c 0
 95 267.667 59 401 59 559 c 0
 59 717 95 850.333 167 959 c 0
 250.333 1084.33 343.667 1148.67 447 1152 c 0
 610.333 1152 730 1086.33 806 955 c 1
 806 1280 l 1
 514 1280 l 1
249 559 m 0
 249 440.333 271 343 315 267 c 0
 369.667 172.333 428.667 126.667 492 130 c 0
 601.333 130 683.667 177 739 271 c 0
 783.667 347.667 806 445.333 806 564 c 0
 806 682.667 783.667 780.333 739 857 c 0
 683.667 951 601.333 998 492 998 c 0
 429 995 370 946 315 851 c 0
 271 775 249 677.667 249 559 c 0
EndSplineSet
EndChar
StartChar: ebreve
Encoding: 277 277 304
Width: 1077
Flags: W
HStem: -7 157<469.333 783.467> 558 144<246 866> 1004 157<457.533 691.039> 1253 137<442.5 738.9>
Fore
1040 649 m 2
 1040 558 l 1
 240 558 l 1
 248 426 284.333 325 349 255 c 0
 413.667 185 504.333 150 621 150 c 0
 752 150 879 185 1002 255 c 1
 1002 80 l 1
 874 22 743.667 -7 611 -7 c 0
 436 -7 300 47 203 155 c 0
 107 260.333 59 405.667 59 591 c 0
 59 676.333 69 749.167 89 809.5 c 0
 109 869.833 140.333 927.667 183 983 c 0
 275 1101.67 406.333 1161 577 1161 c 0
 729.667 1161 847 1107 929 999 c 0
 967.667 948.333 995.833 896.333 1013.5 843 c 0
 1031.17 789.667 1040 725 1040 649 c 2
246 702 m 1
 866 703 l 1
 866 785.667 841.667 860 793 926 c 0
 769.667 957.333 741 978.167 707 988.5 c 0
 673 998.833 630 1004 578 1004 c 0
 485.333 1004 409 974 349 914 c 0
 317.667 880.667 293.5 848.5 276.5 817.5 c 0
 259.5 786.5 249.333 748 246 702 c 1
279 1540 m 1
 397 1540 l 1
 412 1440 477 1390 592 1390 c 0
 705 1390 770 1440 787 1540 c 1
 905 1540 l 1
 891.667 1348.67 787.333 1253 592 1253 c 0
 396.667 1253 292.333 1348.67 279 1540 c 1
EndSplineSet
EndChar
StartChar: edotaccent
Encoding: 279 279 306
Width: 1077
Flags: W
HStem: 0 155<458.333 775.933> 563 144<235 855> 1009 157<446.533 680.039> 1300 256<477 688>
VStem: 477 211<1300 1556>
Fore
1029 654 m 2
 1029 563 l 1
 229 563 l 1
 237 431 273.333 330 338 260 c 0
 402.667 190 493.333 155 610 155 c 0
 741 155 868 190 991 260 c 1
 991 85 l 1
 865.667 28.3333 735.333 -1.73472e-18 600 0 c 0
 424 0 288 53.3333 192 160 c 0
 96 265.333 48 410.667 48 596 c 0
 48 681.333 58 754.167 78 814.5 c 0
 98 874.833 129.333 932.667 172 988 c 0
 264 1106.67 395.333 1166 566 1166 c 0
 718.667 1166 836 1112 918 1004 c 0
 956.667 953.333 984.833 901.333 1002.5 848 c 0
 1020.17 794.667 1029 730 1029 654 c 2
235 707 m 1
 855 708 l 1
 855 790.667 830.667 865 782 931 c 0
 758.667 962.333 730 983.167 696 993.5 c 0
 662 1003.83 619 1009 567 1009 c 0
 474.333 1009 398 979 338 919 c 0
 306.667 885.667 282.5 853.5 265.5 822.5 c 0
 248.5 791.5 238.333 753 235 707 c 1
477 1556 m 1
 688 1556 l 1
 688 1300 l 1
 477 1300 l 1
 477 1556 l 1
EndSplineSet
EndChar
StartChar: emacron
Encoding: 275 275 307
Width: 1077
Flags: W
HStem: 0 155<469.333 786.933> 563 144<246 866> 1009 157<457.533 691.039> 1328 161<208 960>
Fore
1040 654 m 2
 1040 563 l 1
 240 563 l 1
 248 431 284.333 330 349 260 c 0
 413.667 190 504.333 155 621 155 c 0
 752 155 879 190 1002 260 c 1
 1002 85 l 1
 876.667 28.3333 746.333 -1.73472e-18 611 0 c 0
 435 0 299 53.3333 203 160 c 0
 107 265.333 59 410.667 59 596 c 0
 59 681.333 69 754.167 89 814.5 c 0
 109 874.833 140.333 932.667 183 988 c 0
 275 1106.67 406.333 1166 577 1166 c 0
 729.667 1166 847 1112 929 1004 c 0
 967.667 953.333 995.833 901.333 1013.5 848 c 0
 1031.17 794.667 1040 730 1040 654 c 2
246 707 m 1
 866 708 l 1
 866 790.667 841.667 865 793 931 c 0
 769.667 962.333 741 983.167 707 993.5 c 0
 673 1003.83 630 1009 578 1009 c 0
 485.333 1009 409 979 349 919 c 0
 317.667 885.667 293.5 853.5 276.5 822.5 c 0
 259.5 791.5 249.333 753 246 707 c 1
208 1489 m 1
 960 1489 l 1
 960 1328 l 1
 208 1328 l 1
 208 1489 l 1
EndSplineSet
EndChar
StartChar: uni2215
Encoding: 8725 8725 308
Width: 782
Flags: W
HStem: -7 21G<-25 207>
VStem: -25 941<-7 1489>
Fore
-25 -7 m 1
 684 1489 l 1
 916 1489 l 1
 207 -7 l 1
 -25 -7 l 1
EndSplineSet
EndChar
StartChar: gcedilla
Encoding: 291 291 309
Width: 1133
Flags: W
HStem: -412 150<337.653 757.867> 12 154<428.102 635.867> 1005 155.41<408.153 635.294>
VStem: 59 190<418.733 726.4> 806 184<-211.333 209 431.6 740.133 962 1132>
Fore
806 585 m 0
 806 704.333 784 800 740 872 c 0
 684.667 969.333 602 1013.67 492 1005 c 0
 428 997 369 948.333 315 859 c 0
 271 786.333 249 691 249 573 c 0
 249 454.333 271 359 315 287 c 0
 369 198.333 428 158 492 166 c 0
 602.667 166 685 210.333 739 299 c 0
 783.667 371.667 806 467 806 585 c 0
990 1132 m 1
 990 151 l 2
 990 -224.333 818 -412 474 -412 c 0
 392 -420 298.667 -405 194 -367 c 1
 194 -188 l 1
 299.333 -245.333 383 -270 445 -262 c 0
 685.667 -262 806 -135.333 806 118 c 2
 806 209 l 1
 730.667 77.6667 611 12 447 12 c 0
 343 4 249.667 60 167 180 c 0
 95 285 59 416 59 573 c 0
 59 731 95 862.333 167 967 c 0
 249.667 1087 343 1151 447 1159 c 0
 610.333 1183 730 1117.33 806 962 c 1
 806 1132 l 1
 990 1132 l 1
696 1302 m 1
 414 1302 l 1
 417 1423 l 1
 640 1676 l 1
 812 1675 l 1
 699 1422 l 1
 696 1302 l 1
EndSplineSet
EndChar
StartChar: gdotaccent
Encoding: 289 289 311
Width: 1133
Flags: W
HStem: -412 150<337.653 757.867> 12 154<428.102 635.867> 1005 155.41<408.153 635.294> 1296 254<449 660>
VStem: 59 190<418.733 726.4> 449 211<1296 1550> 806 184<-211.333 209 431.6 740.133 962 1132>
Fore
806 585 m 0
 806 704.333 784 800 740 872 c 0
 684.667 969.333 602 1013.67 492 1005 c 0
 428 997 369 948.333 315 859 c 0
 271 786.333 249 691 249 573 c 0
 249 454.333 271 359 315 287 c 0
 369 198.333 428 158 492 166 c 0
 602.667 166 685 210.333 739 299 c 0
 783.667 371.667 806 467 806 585 c 0
990 1132 m 1
 990 151 l 2
 990 -224.333 818 -412 474 -412 c 0
 392 -420 298.667 -405 194 -367 c 1
 194 -188 l 1
 299.333 -245.333 383 -270 445 -262 c 0
 685.667 -262 806 -135.333 806 118 c 2
 806 209 l 1
 730.667 77.6667 611 12 447 12 c 0
 343 4 249.667 60 167 180 c 0
 95 285 59 416 59 573 c 0
 59 731 95 862.333 167 967 c 0
 249.667 1087 343 1151 447 1159 c 0
 610.333 1183 730 1117.33 806 962 c 1
 806 1132 l 1
 990 1132 l 1
449 1550 m 1
 660 1550 l 1
 660 1296 l 1
 449 1296 l 1
 449 1550 l 1
EndSplineSet
EndChar
StartChar: uni00AD
Encoding: 173 173 313
Width: 744
Flags: W
HStem: 561 181<90 654>
Fore
90 742 m 1
 654 742 l 1
 654 561 l 1
 90 561 l 1
 90 742 l 1
EndSplineSet
EndChar
StartChar: lacute
Encoding: 314 314 314
Width: 469
Flags: W
HStem: 0 21G<177 361>
VStem: 177 184<0 1556>
Fore
177 0 m 5
 177 1556 l 5
 361 1556 l 5
 361 0 l 5
 177 0 l 5
115 1664 m 1
 352 2039 l 1
 574 2039 l 1
 299 1664 l 1
 115 1664 l 1
EndSplineSet
EndChar
StartChar: uni2219
Encoding: 8729 8729 315
Width: 621
Flags: W
HStem: 540 254<205 416>
VStem: 205 211<540 794>
Fore
205 794 m 1
 416 794 l 1
 416 540 l 1
 205 540 l 1
 205 794 l 1
EndSplineSet
EndChar
StartChar: middot
Encoding: 183 183 316
Width: 621
Flags: W
HStem: 847 254<249 460>
VStem: 249 211<847 1101>
Fore
249 847 m 1
 249 1101 l 1
 460 1101 l 1
 460 847 l 1
 249 847 l 1
EndSplineSet
EndChar
StartChar: rcaron
Encoding: 345 345 321
Width: 737
Flags: W
HStem: 0 21G<114 302> 949 164<534.695 679.003>
VStem: 114 188<0 929.6 945 1117>
Fore
706 1104 m 1
 706 915 l 1
 691.333 937.667 659 949 609 949 c 0
 404.333 971 302 851 302 589 c 2
 302 0 l 1
 114 0 l 1
 114 1117 l 1
 302 1117 l 1
 302 945 l 1
 366.667 1055.67 484.333 1111.67 655 1113 c 0
 676 1113 693 1110 706 1104 c 1
298 1291 m 1
 53 1667 l 1
 192 1667 l 1
 372 1422 l 1
 552 1667 l 1
 691 1667 l 1
 446 1291 l 1
 298 1291 l 1
EndSplineSet
EndChar
StartChar: seveneighths
Encoding: 8542 8542 323
Width: 1118
Flags: W
HStem: -29 91<1468.27 1653.47> 443 104<1455.13 1615.43> 850 93<1449 1611.8> 1386 109<162 676>
VStem: 1205 146<581.067 773.592> 1716 144<635.324 763.8>
CounterMasks: 1 00
Fore
1404 1489 m 1
 624 0 l 1
 459 0 l 1
 1239 1489 l 1
 1404 1489 l 1
162 1386 m 1
 162 1495 l 1
 851 1498 l 1
 851 1444 l 1
 454 560 l 1
 299 560 l 1
 676 1386 l 1
 162 1386 l 1
1533 -29 m 0
 1426.33 -29 1343.83 -6.5 1285.5 38.5 c 0
 1227.17 83.5 1192.33 140.667 1181 210 c 0
 1169 272.667 1180 328.167 1214 376.5 c 0
 1248 424.833 1299.33 462.667 1368 490 c 1
 1254.67 538 1200.33 609.667 1205 705 c 0
 1207.67 774.333 1238.83 831.333 1298.5 876 c 0
 1358.17 920.667 1436.33 943 1533 943 c 0
 1572.33 943 1610.17 938.833 1646.5 930.5 c 0
 1682.83 922.167 1717.17 909.167 1749.5 891.5 c 0
 1781.83 873.833 1808 849 1828 817 c 0
 1848 785 1858.67 747.667 1860 705 c 0
 1860 613.667 1804.67 540.667 1694 486 c 1
 1846 416.667 1909.33 324.333 1884 209 c 0
 1866.67 135 1827 76.8333 1765 34.5 c 0
 1703 -7.83333 1625.67 -29 1533 -29 c 0
1351 706 m 0
 1355 604.667 1416 551.667 1534 547 c 0
 1590 544.333 1634.67 557 1668 585 c 0
 1701.33 613 1717.33 652.667 1716 704 c 0
 1714.67 750 1698 785.833 1666 811.5 c 0
 1634 837.167 1589.33 850 1532 850 c 0
 1474.67 850 1429.5 837.833 1396.5 813.5 c 0
 1363.5 789.167 1348.33 753.333 1351 706 c 0
1330 211 m 0
 1336.67 167.667 1359.67 132.333 1399 105 c 0
 1438.33 77.6667 1483.67 63.3333 1535 62 c 0
 1643.67 59.3333 1710.33 108.333 1735 209 c 0
 1748.33 266.333 1734.5 318.667 1693.5 366 c 0
 1652.5 413.333 1599.33 439 1534 443 c 0
 1473.33 445.667 1421.83 423 1379.5 375 c 0
 1337.17 327 1320.67 272.333 1330 211 c 0
EndSplineSet
LCarets: 0 65535 '    ' 2 0 0
Ligature: 0 0 'frac' seven slash eight
Ligature: 0 0 'frac' seven fraction eight
EndChar
StartChar: tcedilla
Encoding: 355 355 324
Width: 684
Flags: W
HStem: -375 123<256.3 454.133> 0 154<518 719> 977 143<20 155 340 719>
VStem: 155 185<274.336 977 1120 1438> 470 140<-239.467 -123.933>
Fore
155 1438 m 1
 340 1438 l 1
 340 1120 l 1
 719 1120 l 1
 719 977 l 1
 340 977 l 1
 340 369 l 2
 340 284.333 350.667 228.333 372 201 c 0
 397.333 169.667 450 154 530 154 c 2
 719 154 l 1
 719 0 l 1
 530 0 l 1
 518 0 l 1
 579.333 -75.3333 610 -140.333 610 -195 c 0
 610 -315 530.667 -375 372 -375 c 0
 312 -375 253.333 -367 196 -351 c 1
 196 -220 l 1
 240.667 -241.333 292.333 -252 351 -252 c 0
 430.333 -252 470 -220.667 470 -158 c 0
 470 -119.333 442.667 -62.6667 388 12 c 1
 323.333 24 273.333 46.6667 238 80 c 0
 182.667 134 155 230.333 155 369 c 2
 155 977 l 1
 20 977 l 1
 20 1120 l 1
 155 1120 l 1
 155 1438 l 1
EndSplineSet
EndChar
StartChar: afii10017
Encoding: 1040 1040 332
Width: 1229
Flags: W
TeX: 0 0 0 0
HStem: 0 21G<-10 190 1029 1238> 416 169<380 839>
Fore
839 585 m 1
 614 1294 l 1
 380 585 l 1
 839 585 l 1
-10 0 m 1
 500 1493 l 1
 729 1493 l 1
 1238 0 l 1
 1029 0 l 1
 894 416 l 1
 325 416 l 1
 190 0 l 1
 -10 0 l 1
EndSplineSet
EndChar
StartChar: afii10018
Encoding: 1041 1041 333
Width: 1206
Flags: W
TeX: 0 0 0 0
HStem: 0 21G<152 611> 719 158<352 805.481> 1327 166<350 1079.75>
VStem: 152 198<169 719 877 1327>
Fore
350 1327 m 17
 350 877 l 1
 576 877 l 2
 765.247 877 911.624 859.18 990 792 c 0
 1074 720 1161 603.037 1161 418 c 0
 1137.18 223.91 1025.4 -4.64784e-18 611 0 c 2
 152 0 l 1
 152 1493 l 1
 591 1493 l 2
 731 1493 1080 1492.67 1080 1492.67 c 1
 1080 1327.5 l 25
 350 1327 l 17
352 719 m 5
 350 169 l 5
 818.49 143.673 945.074 260.553 956 449 c 0
 966.374 640.903 839.816 680.513 772.5 699.5 c 0
 693.578 721.76 546.345 726.774 352 719 c 5
EndSplineSet
EndChar
StartChar: afii10019
Encoding: 1042 1042 334
Width: 1206
Flags: W
TeX: 0 0 0 0
HStem: 0 21G<152 611> 719 158<352 791.622> 1327 166<350 773>
VStem: 152 198<11.7053 876.295 877 1327>
Fore
576 1327 m 2
 350 1327 l 1
 350 877 l 1
 576 877 l 2
 772 877 886 958.988 886 1124 c 0
 886 1259.8 771.333 1327 576 1327 c 2
1161 418 m 0
 1137.18 223.91 1025.4 -4.64784e-18 611 0 c 2
 152 0 l 1
 152 1493 l 1
 591 1493 l 2
 731 1493 846.667 1471.67 938 1429 c 0
 1048 1373.67 1099 1275 1091 1133 c 0
 1063 949 972.667 839.667 820 805 c 1
 1092.8 805 1161 603.037 1161 418 c 0
352 719 m 1
 354.748 595.321 347.252 292.679 350 169 c 1
 818.49 143.673 945.074 260.553 956 449 c 0
 966.374 640.903 839.816 680.513 772.5 699.5 c 0
 693.578 721.76 546.345 726.774 352 719 c 1
EndSplineSet
EndChar
StartChar: afii10025
Encoding: 1047 1047 335
Width: 1091
Flags: HW
TeX: 0 0 0 0
HStem: -21 170<170.446 682.594> 723 166<162.067 652.257> 1358 170<204.624 654.885>
VStem: 741.982 221.602<188.067 686.806 906.8 1313.27>
Fore
445.41 1528 m 0
 759.635 1528 1035.25 1383.96 1035.25 1128 c 0
 1035.25 955.333 940.433 858 739.777 812 c 1
 940.355 771.85 1033.04 648.589 1033.04 442 c 0
 1033.04 71.5996 688.799 -21 389.183 -21 c 0
 252.473 -21 134.138 1 34.1777 45 c 1
 34.1777 240 l 1
 158.394 174 274.522 143.667 382.567 149 c 0
 668.481 149 811.439 246.667 811.439 442 c 0
 811.439 630.312 655.067 723 425.564 723 c 2
 233.729 723 l 1
 233.729 889 l 1
 434.385 889 l 2
 660.03 889 813.646 953 813.646 1107 c 0
 813.646 1265.67 657.09 1358 425.564 1358 c 0
 304.29 1358 190.366 1330.67 83.79 1276 c 1
 83.79 1456 l 1
 194.775 1504 315.314 1528 445.41 1528 c 0
EndSplineSet
EndChar
StartChar: afii10035
Encoding: 1057 1057 336
Width: 1231
Flags: W
TeX: 0 0 0 0
HStem: 1347.28 168.716<571.697 830.264>
VStem: 66 206<580.825 1140.2>
Fore
1196 101 m 1
 803.549 -139.979 212.118 -67.8848 90 502 c 0
 74 576.667 66 657 66 743 c 0
 66 1215.54 294.645 1486.98 713 1516 c 0
 899.797 1528.44 1029.01 1474.75 1196 1390 c 1
 1196 1151 l 1
 981.577 1330.82 802.285 1356.53 711 1346 c 0
 411 1308.67 264.667 1107.67 272 743 c 0
 272 288.506 509.995 167.646 711 144 c 0
 849.667 128 1011.33 192.333 1196 337 c 1
 1196 101 l 1
EndSplineSet
EndChar
StartChar: afii10047
Encoding: 1069 1069 337
Width: 1228
Flags: HW
TeX: 0 0 0 0
HStem: 1347.28 168.716<736.697 995.264>
VStem: 231 206<580.825 1140.2>
Fore
958.781 905 m 1
 255 905 l 1
 255 729 l 1
 967.5 729.5 l 0
 967.5 275.006 729.005 167.646 528 144 c 0
 389.333 128 227.67 192.333 43 337 c 1
 43 101 l 1
 435.451 -139.979 1026.88 -67.8848 1149 502 c 0
 1165 576.667 1173 657 1173 743 c 0
 1173 1215.54 944.355 1486.98 526 1516 c 0
 339.203 1528.44 209.99 1474.75 43 1390 c 1
 43 1151 l 1
 257.423 1330.82 436.715 1356.53 528 1346 c 0
 780.151 1314.62 923.744 1167.62 958.781 905 c 1
EndSplineSet
EndChar
StartChar: afii10022
Encoding: 1045 1045 338
Width: 1149
Flags: W
TeX: 0 0 0 0
HStem: 0 176<349 1082> 729 176<349 1032> 1313 176<349 1082>
VStem: 151 198<176 729 905 1313>
Fore
151 0 m 1
 151 1489 l 1
 1082 1489 l 1
 1082 1313 l 1
 349 1313 l 1
 349 905 l 5
 1032 905 l 5
 1032 729 l 5
 349 729 l 5
 349 176 l 1
 1082 176 l 1
 1082 0 l 1
 151 0 l 1
EndSplineSet
EndChar
StartChar: afii10030
Encoding: 1052 1052 339
Width: 1579
Flags: W
TeX: 0 0 0 0
HStem: 0 21G<152 337 1230 1428>
VStem: 152 185<0 1283> 1230 198<0 1283>
Fore
152 0 m 1
 152 1489 l 1
 422 1489 l 1
 794 660 l 1
 1153 1489 l 1
 1428 1489 l 1
 1428 0 l 1
 1230 0 l 1
 1230 1283 l 1
 842 410 l 1
 722 410 l 1
 337 1283 l 1
 337 0 l 1
 152 0 l 1
EndSplineSet
EndChar
StartChar: afii10031
Encoding: 1053 1053 340
Width: 1382
Flags: W
TeX: 0 0 0 0
HStem: 0 21G<152 350 1035 1233> 729 176<350 1035>
VStem: 152 198<0 729 905 1489> 1035 198<0 729 905 1489>
Fore
152 0 m 1
 152 1489 l 1
 350 1489 l 1
 350 905 l 1
 1035 905 l 1
 1035 1489 l 1
 1233 1489 l 1
 1233 0 l 1
 1035 0 l 1
 1035 729 l 1
 350 729 l 1
 350 0 l 1
 152 0 l 1
EndSplineSet
EndChar
StartChar: afii10032
Encoding: 1054 1054 341
Width: 1450
Flags: W
TeX: 0 0 0 0
HStem: 1345 170<486.673 862.285>
VStem: 66 204<367.578 1031.53>
Fore
906.5 1494 m 0
 1451.58 1355.63 1448.32 631.789 1292.5 316 c 0
 1075.34 -124.11 553.765 -78.9474 334.5 89 c 0
 230.093 168.971 66 342.532 66 724 c 0
 66 1078.75 170.663 1495.69 701 1515 c 0
 772.333 1517.67 840.833 1510.67 906.5 1494 c 0
913 182.5 m 0
 1271.58 352.711 1198.7 964.267 1077.5 1157 c 0
 992.412 1292.3 869.686 1340.99 715 1345 c 0
 539.364 1346.67 256.189 1253.57 270 727 c 0
 276.572 431.27 376.208 133.931 742 143 c 0
 803.333 144.333 860.333 157.5 913 182.5 c 0
EndSplineSet
EndChar
StartChar: afii10034
Encoding: 1056 1056 342
Width: 1128
Flags: W
TeX: 0 0 0 0
HStem: -10 21G<154 352> 545 169<352 511.754> 1309 170<331.899 652.903>
VStem: 154 198<-10 545 714 1309> 888 205<914.894 1163.98>
Fore
353 1479 m 2
 921.535 1479 1105.8 1362.4 1093 1004 c 0
 1074.59 645.422 755.225 524.84 352 545 c 1
 352 -10 l 1
 154 -10 l 1
 154 1479 l 1
 353 1479 l 2
352 714 m 1
 580.5 714 l 2
 632.922 720.369 763.488 747.177 830.5 821.5 c 0
 877.119 873.204 888 948.404 888 1004 c 0
 888 1127.06 855.126 1199.8 779.5 1251 c 0
 708.858 1298.83 583.343 1310.13 422.142 1308.5 c 0
 390.714 1308.83 367.333 1309 352 1309 c 1
 352 714 l 1
EndSplineSet
EndChar
StartChar: afii10036
Encoding: 1058 1058 343
Width: 1196
Flags: W
TeX: 0 0 0 0
HStem: 0 21G<498 701> 1318 171<3 498 701 1198>
VStem: 498 203<0 1318>
Fore
3 1318 m 1
 0 1489 l 1
 1198 1489 l 1
 1201 1318 l 1
 701 1318 l 1
 701 0 l 1
 498 0 l 1
 498 1318 l 1
 3 1318 l 1
EndSplineSet
EndChar
StartChar: afii10039
Encoding: 1061 1061 344
Width: 1190
Flags: W
TeX: 0 0 0 0
HStem: 0 21G<8 222 954 1181>
Fore
481 745 m 1
 24 1493 l 1
 241 1493 l 1
 604 904 l 1
 985 1493 l 1
 1202 1493 l 1
 714 755 l 1
 1181 0 l 1
 954 0 l 1
 591 596 l 1
 222 0 l 1
 8 0 l 1
 481 745 l 1
EndSplineSet
EndChar
StartChar: afii10049
Encoding: 1071 1071 345
Width: 1252
Flags: HW
TeX: 0 0 0 0
HStem: 0 21G<706 904 -162 55> 592 165<564.249 706> 1319 174<358.867 706>
VStem: 706 198<0 592 757 1319> -28 207<941.4 1166.73>
Fore
645 1319 m 2
 863 1319 l 1
 863 757 l 1
 636 757 l 1
 540 771 466 802.5 414 851.5 c 0
 362 900.5 336 966 336 1048 c 0
 336 1139.33 362.667 1207.33 416 1252 c 0
 469.333 1296.67 545.667 1319 645 1319 c 2
453 680 m 1
 359.667 648.667 275.333 558 200 408 c 2
 -5 0 l 1
 212 0 l 1
 423 361 l 2
 457 415 499 471.667 549 531 c 0
 581 571.667 639.667 592 725 592 c 2
 863 592 l 1
 863 0 l 1
 1061 0 l 1
 1061 1493 l 1
 702 1493 l 2
 510 1493 366.5 1457.83 271.5 1387.5 c 0
 176.5 1317.17 129 1209 129 1063 c 0
 129 947.667 158.67 855 218 785 c 0
 277.333 715 355.667 680 453 680 c 1
EndSplineSet
EndChar
StartChar: afii10028
Encoding: 1050 1050 346
Width: 1204
Flags: W
TeX: 0 0 0 0
HStem: 0 21G<152 350 980 1237>
VStem: 152 198<0 775 824 1489>
Fore
152 0 m 1
 152 1489 l 1
 350 1489 l 1
 350 824 l 1
 960 1489 l 1
 1201 1489 l 1
 586 824 l 1
 1237 0 l 1
 980 0 l 1
 350 775 l 1
 350 0 l 1
 152 0 l 1
EndSplineSet
EndChar
StartChar: afii10026
Encoding: 1048 1048 347
Width: 1372
Flags: W
TeX: 0 0 0 0
HStem: 0 21G<151 373 1031 1216>
VStem: 151 185<310 1489> 1031 185<0 1284>
Fore
1216 0 m 1
 1216 1489 l 1
 935 1489 l 1
 336 310 l 1
 336 1489 l 1
 151 1489 l 1
 151 0 l 1
 373 0 l 1
 1031 1284 l 1
 1031 0 l 1
 1216 0 l 1
EndSplineSet
EndChar
StartChar: afii10037
Encoding: 1059 1059 348
Width: 1178
Flags: W
TeX: 0 0 0 0
HStem: -1 154<120.143 322.043>
Fore
657.126 321 m 2
 609.587 210.333 566.008 134 526.391 92 c 0
 466.607 30 384.132 -1 278.969 -1 c 2
 120.143 -1 l 1
 120.143 153 l 1
 236.832 153 l 2
 302.379 153 352.799 173.333 388.095 214 c 0
 407.542 236 433.113 284.333 464.806 359 c 2
 500.461 443 l 1
 11.0176 1545 l 1
 221.705 1545 l 1
 599.862 669 l 1
 978.02 1545 l 1
 1188.71 1545 l 1
 657.126 321 l 2
EndSplineSet
EndChar
StartChar: afii10020
Encoding: 1043 1043 349
Width: 1039
Flags: W
TeX: 0 0 0 0
HStem: 0 21G<151 349> 1327 166<349 1033>
VStem: 151 198<0 1327>
Fore
349 0 m 1
 151 0 l 1
 151 1493 l 1
 590 1493 l 2
 1033 1493.17 l 5
 1033 1328 l 29
 349 1327 l 17
 349 0 l 1
EndSplineSet
EndChar
StartChar: afii10027
Encoding: 1049 1049 350
Width: 1372
Flags: HW
TeX: 0 0 0 0
HStem: 0 21G<1032 1217 152 374>
VStem: 1032 185<0 1284> 152 185<310 1489>
Fore
313 1917 m 1
 431 1917 l 1
 446 1817 511 1767 626 1767 c 0
 739 1767 804 1817 821 1917 c 1
 939 1917 l 1
 925.667 1725.67 821.333 1630 626 1630 c 0
 430.667 1630 326.333 1725.67 313 1917 c 1
1216 0 m 1
 1216 1489 l 1
 935 1489 l 1
 336 310 l 1
 336 1489 l 1
 151 1489 l 1
 151 0 l 1
 373 0 l 1
 1031 1284 l 1
 1031 0 l 1
 1216 0 l 1
EndSplineSet
EndChar
StartChar: afii10046
Encoding: 1068 1068 351
Width: 1193
Flags: HW
TeX: 0 0 0 0
HStem: 1458 21G<148 346> 755 169<346 505.754> -10 170<325.899 646.903>
VStem: 148 198<924 1479 160 755> 882 205<305.02 554.106>
Fore
350 -10 m 2
 918.535 -10 1102.8 106.6 1090 465 c 0
 1071.59 823.578 752.225 944.16 349 924 c 1
 349 1479 l 1
 151 1479 l 1
 151 -10 l 1
 350 -10 l 2
349 755 m 1
 577.5 755 l 2
 629.922 748.631 760.488 721.823 827.5 647.5 c 0
 874.119 595.796 885 520.596 885 465 c 0
 885 341.939 852.126 269.2 776.5 218 c 0
 705.858 170.17 580.343 158.87 419.142 160.5 c 0
 387.714 160.17 364.333 160 349 160 c 1
 349 755 l 1
EndSplineSet
EndChar
StartChar: afii10045
Encoding: 1067 1067 352
Width: 1615
Flags: HW
TeX: 0 0 0 0
HStem: 1458 21G<148 346> 755 169<346 505.754> -10 170<325.899 646.903>
VStem: 148 198<924 1479 160 755> 882 205<305.02 554.106>
Fore
1248 -9 m 1
 1248 1481 l 1
 1432 1481 l 1
 1432 -9 l 1
 1248 -9 l 1
350 -10 m 2
 918.535 -10 1102.8 106.6 1090 465 c 0
 1071.59 823.578 752.225 944.16 349 924 c 1
 349 1479 l 1
 151 1479 l 1
 151 -10 l 1
 350 -10 l 2
349 755 m 1
 577.5 755 l 2
 629.922 748.631 760.488 721.823 827.5 647.5 c 0
 874.119 595.796 885 520.596 885 465 c 0
 885 341.939 852.126 269.2 776.5 218 c 0
 705.858 170.17 580.343 158.87 419.142 160.5 c 0
 387.714 160.17 364.333 160 349 160 c 1
 349 755 l 1
EndSplineSet
EndChar
StartChar: afii10044
Encoding: 1066 1066 353
Width: 1412
Flags: HW
TeX: 0 0 0 0
HStem: 1458 21G<148 346> 755 169<346 505.754> -10 170<325.899 646.903>
VStem: 148 198<924 1479 160 755> 882 205<305.02 554.106>
Fore
633 -10 m 2
 1201.54 -10 1386.8 106.6 1374 465 c 0
 1355.59 823.578 1036.22 944.16 633 924 c 1
 633 1479 l 1
 0 1480 l 1
 0 1291 l 1
 435 1291 l 1
 434 -10 l 1
 633 -10 l 2
633 755 m 1
 861.5 755 l 2
 913.922 748.631 1044.49 721.823 1111.5 647.5 c 0
 1158.12 595.796 1169 520.596 1169 465 c 0
 1169 341.939 1136.13 269.2 1060.5 218 c 0
 989.858 170.17 864.343 158.87 703.142 160.5 c 0
 671.714 160.17 648.333 160 633 160 c 1
 633 755 l 1
EndSplineSet
EndChar
StartChar: afii10048
Encoding: 1070 1070 354
Width: 1948
Flags: W
TeX: 0 0 0 0
HStem: 0 21G<151 335> 705 190<335 562.22> 1345 170<982.668 1358.28>
VStem: 151 184<0 705 895 1516> 562.22 203.78<457.877 727>
Fore
562.22 705 m 1
 335 705 l 1
 335 0 l 1
 151 0 l 1
 151 1516 l 1
 335 1516 l 1
 335 895 l 1
 572 895 l 1
 605.062 1203.18 746.806 1498.61 1197 1515 c 0
 1268.33 1517.67 1336.83 1510.67 1402.5 1494 c 0
 1947.58 1355.63 1944.32 631.789 1788.5 316 c 0
 1571.34 -124.11 1049.76 -78.9473 830.5 89 c 0
 729.956 166.011 573.619 352.315 562.22 705 c 1
1409 182.5 m 0
 1767.58 352.711 1694.7 964.267 1573.5 1157 c 0
 1488.41 1292.3 1365.69 1340.99 1211 1345 c 0
 1035.36 1346.67 752.189 1253.57 766 727 c 0
 772.572 431.27 872.208 133.931 1238 143 c 0
 1299.33 144.333 1356.33 157.5 1409 182.5 c 0
EndSplineSet
EndChar
StartChar: afii10023
Encoding: 1025 1025 355
Width: 1149
Flags: W
TeX: 0 0 0 0
HStem: 0 176<349 1082> 729 176<349 1032> 1313 176<349 1082> 1677 203<300 503 713 916>
VStem: 151 198<176 729 905 1313> 300 203<1677 1880> 713 203<1677 1880>
Fore
151 0 m 1xfa
 151 1489 l 1
 1082 1489 l 1
 1082 1313 l 1
 349 1313 l 1
 349 905 l 1
 1032 905 l 1
 1032 729 l 1
 349 729 l 1
 349 176 l 1
 1082 176 l 1
 1082 0 l 1
 151 0 l 1xfa
EndSplineSet
Refer: 103 168 N 1 0 0 1 46 373 2
EndChar
StartChar: afii10085
Encoding: 1091 1091 356
Width: 1020
Flags: HW
TeX: 0 0 0 0
HStem: -426 154<107 293.867> 1100 20G<6 201 901 1096>
Fore
604 -104 m 2
 560 -214.667 519.667 -291 483 -333 c 0
 427.667 -395 351.333 -426 254 -426 c 2
 107 -426 l 1
 107 -272 l 1
 215 -272 l 2
 275.667 -272 322.333 -251.667 355 -211 c 0
 373 -189 396.667 -140.667 426 -66 c 2
 459 18 l 1
 6 1120 l 1
 201 1120 l 1
 551 244 l 1
 901 1120 l 1
 1096 1120 l 1
 604 -104 l 2
EndSplineSet
EndChar
StartChar: afii10033
Encoding: 1055 1055 357
Width: 1383
Flags: HW
TeX: 0 0 0 0
HStem: 0 21G<150 348 1033 1231> 729 176<348 1033>
VStem: 150 198<0 729 905 1489> 1033 198<0 729 905 1489>
Fore
151 0 m 1
 151 1489 l 1
 1232 1489 l 1
 1232 0 l 1
 1034 0 l 1
 1034 1313 l 1
 349 1313 l 1
 349 0 l 1
 151 0 l 1
EndSplineSet
EndChar
StartChar: afii10029
Encoding: 1051 1051 358
Width: 1388
Flags: W
TeX: 0 0 0 0
HStem: 0 21G<15 82.5 1049 1247> 1313 176<546 1049>
VStem: 1049 198<0 1313>
Fore
15 207 m 1
 15 207 68.0576 209.228 102 213 c 0
 126 215.668 174.5 198.5 245 287 c 0
 346.396 414.283 339.289 839.079 348.5 945 c 0
 369.5 1186.5 372.5 1487.5 372.5 1487.5 c 1
 1247 1489 l 1
 1247 0 l 1
 1049 0 l 1
 1049 1313 l 1
 546 1313 l 1
 511 738.5 l 0
 511 738.5 487.5 447.5 455 315 c 0
 434.485 231.364 391.305 147.445 308 77 c 24
 237.04 16.9932 82.5 0 82.5 0 c 0
 15 0 l 1
 15 207 l 1
EndSplineSet
EndChar
StartChar: afii10021
Encoding: 1044 1044 359
Width: 1400
Flags: HW
TeX: 0 0 0 0
HStem: 0 21G<180 378 1063 1261> 729 176<378 1063>
VStem: 180 198<0 729 905 1489> 1063 198<0 729 905 1489>
Fore
325 188 m 1
 394 347 366 258 429 462 c 0
 468.943 591.339 519 1011 519 1011 c 1
 546 1313 l 1
 1049 1313 l 1
 1048 187 l 1
 325 188 l 1
1166 0 m 5
 1166 -274 l 1
 1357 -274 l 1
 1356 186 l 1
 1249 186 l 1
 1247 1489 l 1
 372.5 1487.5 l 1
 356.275 1032.01 293.111 620.507 273 549 c 0
 192 261 127 189.5 127 189.5 c 1
 15 190 l 1
 16 -258 l 1
 219 -258 l 17
 219 0 l 1
 1166 0 l 5
EndSplineSet
EndChar
StartChar: afii10042
Encoding: 1064 1064 360
Width: 1932
Flags: W
TeX: 0 0 0 0
HStem: 0 177<349 873 1071 1585.5>
VStem: 151 198<176 1489> 873 198<178.5 1489> 1585.5 198.5<177 1489>
Fore
1585.5 177 m 17
 1586 1489 l 1
 1784 1489 l 1
 1784 0 l 1
 151 0 l 1
 151 1489 l 1
 349 1489 l 1
 349 176 l 1
 873 176 l 1
 873 1489 l 1
 1071 1489 l 1
 1071 178.5 l 1
 1585.5 177 l 17
1071 175 m 25
EndSplineSet
EndChar
StartChar: afii10043
Encoding: 1065 1065 361
Width: 1962
Flags: HW
TeX: 0 0 0 0
HStem: 1468 21G<150 348 1033 1231> 584 176<348 1033>
VStem: 150 198<760 1489 0 584> 1033 198<760 1489 0 584>
Fore
1586.5 177 m 17
 1586 1489 l 1
 1784 1489 l 1
 1784 177 l 1
 1914.5 177 l 1
 1913 -338.5 l 1
 1726 -339 l 1
 1724.5 1 l 1
 151 0 l 1
 151 1489 l 1
 349 1489 l 1
 349 176 l 1
 873 176 l 1
 873 1489 l 1
 1071 1489 l 1
 1071 178.5 l 1
 1586.5 177 l 17
1071 175 m 25
EndSplineSet
EndChar
StartChar: afii10040
Encoding: 1062 1062 362
Width: 1403
Flags: W
TeX: 0 0 0 0
HStem: 1 178<350 1034.5>
VStem: 152 198<178.5 1489> 1034 198<179 1489> 1172.5 190<-338.5 1>
Fore
152 0 m 1xe0
 1172.5 1 l 1
 1172 -339 l 1
 1362 -338.5 l 1
 1362.5 177 l 1xd0
 1232 177 l 1
 1232 1489 l 1
 1034 1489 l 1
 1034.5 179 l 9
 350 178.5 l 1
 350 1489 l 1
 152 1489 l 1
 152 0 l 1xe0
350 175 m 25
EndSplineSet
EndChar
StartChar: afii10038
Encoding: 1060 1060 363
Width: 1533
Flags: W
TeX: 0 0 0 0
VStem: 66 217.124<494.181 989.826> 657.15 210.525<0 141.626 278.104 1231.88 1371.66 1519.5>
Fore
868.2 276.216 m 9
 867.675 1231.88 l 1
 996.268 1218.75 1066.68 1176.7 1142.57 1086 c 0
 1275.19 927.491 1371.23 377.376 868.2 276.216 c 9
658.725 278.104 m 17
 345.27 307.934 290.101 525.524 283.124 742 c 0
 271.42 1105.15 475.851 1210.55 657.15 1231.88 c 1
 658.725 278.104 l 17
655.1 1371 m 17
 158.581 1327.96 66 1009.74 66 739.6 c 0
 66 434.426 240.649 295.577 351.773 231.6 c 0
 425.242 189.302 543.726 158.779 660.825 145 c 1
 660.825 0 l 1
 692.752 -1.81738 872.975 0 872.975 0 c 1
 873.45 141.626 l 1
 1064.8 162.594 1259.02 242.008 1371.4 413.2 c 0
 1537.25 665.832 1540.72 1244.9 960.571 1355.6 c 0
 916.126 1364.08 916.662 1369.43 869.778 1371.66 c 1
 870.3 1519.5 l 25
 654.625 1520 l 25
 655.1 1371 l 17
EndSplineSet
EndChar
StartChar: afii10024
Encoding: 1046 1046 364
Width: 1831
Flags: W
TeX: 0 0 0 0
HStem: 0 21G<0.290039 249.58 818.97 1011.03 1580.42 1829.71>
VStem: 818.97 192.06<0 775 824 1489>
Fore
818.97 775 m 1
 818.97 0 l 1
 1011.03 0 l 1
 1011.03 775 l 1
 1580.42 0 l 1
 1829.71 0 l 1
 1239.95 824 l 1
 1794.79 1489 l 1
 1561.02 1489 l 1
 1011.03 824 l 1
 1011.03 1489 l 1
 818.97 1489 l 1
 818.97 824 l 1
 268.98 1489 l 1
 35.21 1489 l 1
 590.05 824 l 1
 0.290039 0 l 1
 249.58 0 l 1
 818.97 775 l 1
EndSplineSet
EndChar
